<?xml version="1.0" encoding="utf-8"?>
<svg version="1.1" xmlns:xlink="http://www.w3.org/1999/xlink" width="90px" height="20px" xmlns="http://www.w3.org/2000/svg">
  <defs>
    <mask fill="white" id="clip110">
      <path d="M 0 15  L 0 5  C 0 2.2  2.19999999999999 0  5 0  L 85 0  C 87.8 0  90 2.2  90 5  L 90 15  C 90 17.8  87.8 20  85 20  L 68.4117647058824 20  L 5 20  C 2.19999999999999 20  0 17.8  0 15  Z " fill-rule="evenodd" />
    </mask>
  </defs>
  <g transform="matrix(1 0 0 1 -301 -94 )">
    <path d="M 0 15  L 0 5  C 0 2.2  2.19999999999999 0  5 0  L 85 0  C 87.8 0  90 2.2  90 5  L 90 15  C 90 17.8  87.8 20  85 20  L 68.4117647058824 20  L 5 20  C 2.19999999999999 20  0 17.8  0 15  Z " fill-rule="nonzero" fill="#ffffff" stroke="none" transform="matrix(1 0 0 1 301 94 )" />
    <path d="M 0 15  L 0 5  C 0 2.2  2.19999999999999 0  5 0  L 85 0  C 87.8 0  90 2.2  90 5  L 90 15  C 90 17.8  87.8 20  85 20  L 68.4117647058824 20  L 5 20  C 2.19999999999999 20  0 17.8  0 15  Z " stroke-width="2" stroke="#ff4444" fill="none" transform="matrix(1 0 0 1 301 94 )" mask="url(#clip110)" />
  </g>
</svg>