<?xml version="1.0" encoding="utf-8"?>
<svg version="1.1" xmlns:xlink="http://www.w3.org/1999/xlink" width="13px" height="8px" xmlns="http://www.w3.org/2000/svg">
  <g transform="matrix(1 0 0 1 -61 -147 )">
    <path d="M 7.00259591836734 6.93327620278878  C 6.82261224489795 7.11369840243788  6.56961632653064 7.17667596269277  6.33869387755102 7.12220888355341  C 6.20964897959187 7.09157115153753  6.09248979591839 7.02689149505954  5.99910204081633 6.93327620278878  L 0.327918367346925 1.24997691384244  C 0.0511510204081371 0.972535229476404  0.0511510204081371 0.523181826576774  0.327918367346925 0.24744223843384  C 0.604685714285651 -0.0299994459322599  1.05294693877555 -0.0299994459322599  1.32801632653061 0.24744223843384  L 6.5 5.4303252377874  L 11.6702857142857 0.24744223843384  C 11.9470530612245 -0.0299994459322599  12.3953142857143 -0.0299994459322599  12.6703836734693 0.24744223843384  C 12.9454530612245 0.524883922799907  12.9471510204081 0.974237325699505  12.6703836734693 1.24997691384244  L 7.00259591836734 6.93327620278878  Z " fill-rule="nonzero" fill="#323233" stroke="none" transform="matrix(1 0 0 1 61 147 )" />
  </g>
</svg>