<?xml version="1.0" encoding="utf-8"?>
<svg version="1.1" xmlns:xlink="http://www.w3.org/1999/xlink" width="22px" height="11px" xmlns="http://www.w3.org/2000/svg">
  <g transform="matrix(1 0 0 1 -357 -281 )">
    <path d="M 21.3110424 1.802517475  C 21.53531805 1.46368699999999  21.46053085 1.01189155500001  21.161468 0.748342419000011  C 20.8250223 0.484771799599997  20.3764065 0.560096106000003  20.11470505 0.898948063000006  C 20.0773007 0.936567246999999  15.9276533 5.86871945000001  10.9928585 5.86871945000001  C 6.20765955000002 5.86871945000001  1.87103342500001 0.898948063000006  1.83367205500002 0.861285909499998  C 1.57194909499998 0.560074621500007  1.085971965 0.522455437199994  0.786887634499976 0.7859830875  C 0.487824786399983 1.04953222  0.450441930400018 1.53896834  0.712100437999993 1.84020111000001  C 0.78686614999998 1.95312311999999  1.68409766500002 2.96967899000001  3.10468916000002 4.09917834999999  L 1.19805608000001 6.09464940000001  C 0.898993233499993 6.39583920000001  0.936376089500016 6.88527535  1.23546041999998 7.14882449999999  C 1.31024761999998 7.2994301  1.49716189999998 7.37473295000001  1.68409766500002 7.37473295000001  C 1.87101194500002 7.37473295000001  2.05792622500002 7.2994301  2.20745764499998 7.14882449999999  L 4.26362215 5.00279072999999  C 5.235619375 5.68049465000001  6.39453090000001 6.32055790000001  7.66561245000003 6.77233185  L 6.88052950000002 9.44550684999999  C 6.76838090000001 9.85964014999999  6.99269955 10.2737734  7.40391095000001 10.3867384  L 7.62820809999999 10.3867384  C 7.96465380000001 10.3867384  8.26375960000001 10.16082995  8.33852535 9.821978  L 9.1235653 7.14882449999999  C 9.72173394999999 7.26178945000001  10.3572855 7.33709225000001  10.99281555 7.33709225000001  C 11.6283241 7.33709225000001  12.2638971 7.26178945000001  12.86206575 7.14882449999999  L 13.6471057 9.7843373  C 13.7219144 10.12318925  14.0583601 10.34907625  14.35744445 10.34907625  C 14.43221015 10.34907625  14.50697585 10.34907625  14.5443587 10.3114356  C 14.95557015 10.19842765  15.17991025 9.7843373  15.06776165 9.370204  L 14.28267875 6.73466970000001  C 15.55378175 6.28285274999999  16.7126718 5.64281099999999  17.684669 4.96512857499999  L 19.70345065 7.07352165  C 19.8529821 7.22412729999999  20.03989635 7.2994301  20.22681065 7.2994301  C 20.41372495 7.2994301  20.6006607 7.22410579999999  20.75017065 7.07354315000001  C 21.04925495 6.77233185  21.04925495 6.32053640000001  20.78757495 6.01930365000001  L 18.8809419 4.02389701000001  C 20.4137464 2.89435467999999  21.3110424 1.802517475  21.3110424 1.802517475  Z " fill-rule="nonzero" fill="#999999" stroke="none" transform="matrix(1 0 0 1 357 281 )" />
  </g>
</svg>