<?xml version="1.0" encoding="utf-8"?>
<svg version="1.1" xmlns:xlink="http://www.w3.org/1999/xlink" width="21px" height="11px" xmlns="http://www.w3.org/2000/svg">
  <g transform="matrix(1 0 0 1 -339 -280 )">
    <path d="M 20.3423586545455 1.802517475  C 20.5564399568182 1.46368699999999  20.485052175 1.01189155500001  20.1995830909091 0.748342419000011  C 19.8784303772727 0.484771799599997  19.4502062045455 0.560096106000003  19.200400275 0.898948063000006  C 19.1646961227273 0.936567246999999  15.2036690590909 5.86871945000001  10.4931831136364 5.86871945000001  C 5.9254932068182 5.86871945000001  1.78598645113637 0.898948063000006  1.75032332522729 0.861285909499998  C 1.50049686340907 0.560074621500007  1.03660960295454 0.522455437199994  0.751120014749977 0.7859830875  C 0.465650932472711 1.04953222  0.429967297200017 1.53896834  0.679732236272721 1.84020111000001  C 0.751099506818163 1.95312311999999  1.60754777113639 2.96967899000001  2.96356692545457 4.09917834999999  L 1.14359898545456 6.09464940000001  C 0.858129904704539 6.39583920000001  0.893813539977288 6.88527535  1.1793031281818 7.14882449999999  C 1.25069090999999 7.2994301  1.42910908636362 7.37473295000001  1.60754777113639 7.37473295000001  C 1.78596594750002 7.37473295000001  1.96438412386365 7.2994301  2.10711866113634 7.14882449999999  L 4.06982114318182 5.00279072999999  C 4.99763667613636 5.68049465000001  6.10387040454546 6.32055790000001  7.31717552045457 6.77233185  L 6.56777815909093 9.44550684999999  C 6.46072722272728 9.85964014999999  6.67484957045454 10.2737734  7.06736954318183 10.3867384  L 7.28147136818181 10.3867384  C 7.60262408181819 10.3867384  7.88813416363638 10.16082995  7.95950147045454 9.821978  L 8.70885778636363 7.14882449999999  C 9.27983695227272 7.26178945000001  9.88649979545453 7.33709225000001  10.4931421159091 7.33709225000001  C 11.0997639136364 7.33709225000001  11.7064472318182 7.26178945000001  12.2774263977273 7.14882449999999  L 13.0267827136364 9.7843373  C 13.0981910181818 10.12318925  13.4193437318182 10.34907625  13.7048333386364 10.34907625  C 13.7762005977273 10.34907625  13.8475678568182 10.34907625  13.8832514863636 10.3114356  C 14.2757715068182 10.19842765  14.4899143295454 9.7843373  14.3828633931818 9.370204  L 13.6334660795455 6.73466970000001  C 14.8467916704545 6.28285274999999  15.9530049 5.64281099999999  16.8808204090909 4.96512857499999  L 18.8078392568182 7.07352165  C 18.9505738227273 7.22412729999999  19.1289919704545 7.2994301  19.3074101659091 7.2994301  C 19.4858283613637 7.2994301  19.6642670318182 7.22410579999999  19.806981075 7.07354315000001  C 20.0924706340909 6.77233185  20.0924706340909 6.32053640000001  19.8426851795455 6.01930365000001  L 18.0227172681818 4.02389701000001  C 19.4858488363636 2.89435467999999  20.3423586545455 1.802517475  20.3423586545455 1.802517475  Z " fill-rule="nonzero" fill="#999999" stroke="none" transform="matrix(1 0 0 1 339 280 )" />
  </g>
</svg>