<?xml version="1.0" encoding="utf-8"?>
<svg version="1.1" xmlns:xlink="http://www.w3.org/1999/xlink" width="15px" height="16px" xmlns="http://www.w3.org/2000/svg">
  <g transform="matrix(1 0 0 1 -415 -55 )">
    <path d="M 422.5 56  C 426.14 56  429 59.08  429 63  C 429 66.92  426.14 70  422.5 70  C 418.86 70  416 66.92  416 63  C 416 59.08  418.86 56  422.5 56  Z " fill-rule="nonzero" fill="#ffffff" stroke="none" />
    <path d="M 422.5 56  C 426.14 56  429 59.08  429 63  C 429 66.92  426.14 70  422.5 70  C 418.86 70  416 66.92  416 63  C 416 59.08  418.86 56  422.5 56  Z " stroke-width="2" stroke="#000000" fill="none" />
  </g>
</svg>