<?xml version="1.0" encoding="utf-8"?>
<svg version="1.1" xmlns:xlink="http://www.w3.org/1999/xlink" width="11px" height="12px" xmlns="http://www.w3.org/2000/svg">
  <g transform="matrix(1 0 0 1 -64 -109 )">
    <path d="M 9.02069227430557 4.96520182291664  C 9.02069227430557 6.176513671875  8.61654730902778 7.28595377604165  7.94717475043403 8.14013671875  C 7.94717475043403 8.14013671875  10.3487996419271 10.763623046875  10.8001505533854 11.2458170572917  C 11.1710544162326 11.6417317708334  10.7456488715278 12.2566243489583  10.2663682725695 11.7004720052083  C 9.97788085937501 11.3654459635417  7.46059841579863 8.67164713541666  7.46059841579863 8.67164713541666  C 6.67622477213543 9.40834960937502  5.65589599609377 9.85359700520831  4.5398125542535 9.85359700520831  C 2.06506618923609 9.85359700520831  0.0589477539062292 7.6644368489583  0.0589477539062292 4.96518554687498  C 0.0589477539062292 2.26591796874999  2.06506618923609 0.0771647135416629  4.5398125542535 0.0771647135416629  C 7.01457383897571 0.0771647135416629  9.02069227430557 2.26593424479165  9.02069227430557 4.96518554687498  Z M 8.31075303819447 4.96484375  C 8.31075303819447 2.69376627604169  6.6223646375868 0.851969401041686  4.53979763454859 0.851969401041686  C 2.45790201822918 0.851969401041686  0.769513617621504 2.69376627604169  0.769513617621504 4.96484375  C 0.769513617621504 7.23665364583331  2.45790201822918 9.07845052083331  4.53979763454859 9.07845052083331  C 6.62234971788194 9.07845052083331  8.31075303819447 7.23663736979165  8.31075303819447 4.96484375  Z " fill-rule="nonzero" fill="#000000" stroke="none" transform="matrix(1 0 0 1 64 109 )" />
  </g>
</svg>