<?xml version="1.0" encoding="utf-8"?>
<svg version="1.1" xmlns:xlink="http://www.w3.org/1999/xlink" width="15px" height="16px" xmlns="http://www.w3.org/2000/svg">
  <g transform="matrix(1 0 0 1 -345 -55 )">
    <path d="M 352.5 56  C 356.14 56  359 59.08  359 63  C 359 66.92  356.14 70  352.5 70  C 348.86 70  346 66.92  346 63  C 346 59.08  348.86 56  352.5 56  Z " fill-rule="nonzero" fill="#ffffff" stroke="none" />
    <path d="M 352.5 56  C 356.14 56  359 59.08  359 63  C 359 66.92  356.14 70  352.5 70  C 348.86 70  346 66.92  346 63  C 346 59.08  348.86 56  352.5 56  Z " stroke-width="2" stroke="#000000" fill="none" />
  </g>
</svg>