<?xml version="1.0" encoding="utf-8"?>
<svg version="1.1" xmlns:xlink="http://www.w3.org/1999/xlink" width="14px" height="24px" xmlns="http://www.w3.org/2000/svg">
  <g transform="matrix(1 0 0 1 -56 -56 )">
    <path d="M 13.7594501718213 1.44288577154308  C 13.9198167239404 1.60320641282565  14 1.7875751503006  14 1.99599198396794  C 14 2.20440881763527  13.9198167239404 2.38877755511022  13.7594501718213 2.54909819639279  L 4.30584192439863 12  L 13.7594501718213 21.4509018036072  C 13.9198167239404 21.6112224448898  14 21.7955911823647  14 22.0040080160321  C 14 22.2124248496994  13.9198167239404 22.3967935871743  13.7594501718213 22.5571142284569  L 12.5567010309278 23.7595190380762  C 12.3963344788087 23.9198396793587  12.2119129438717 24  12.0034364261168 24  C 11.794959908362 24  11.610538373425 23.9198396793587  11.4501718213058 23.7595190380762  L 0.240549828178694 12.5531062124248  C 0.0801832760595648 12.3927855711423  0 12.2084168336673  0 12  C 0 11.7915831663327  0.0801832760595648 11.6072144288577  0.240549828178694 11.4468937875752  L 11.4501718213058 0.240480961923848  C 11.610538373425 0.0801603206412818  11.794959908362 0  12.0034364261168 0  C 12.2119129438717 0  12.3963344788087 0.0801603206412818  12.5567010309278 0.240480961923848  L 13.7594501718213 1.44288577154308  Z " fill-rule="nonzero" fill="#ffffff" stroke="none" transform="matrix(1 0 0 1 56 56 )" />
  </g>
</svg>