<?xml version="1.0" encoding="utf-8"?>
<svg version="1.1" xmlns:xlink="http://www.w3.org/1999/xlink" width="11px" height="18px" xmlns="http://www.w3.org/2000/svg">
  <g transform="matrix(1 0 0 1 -385 -299 )">
    <path d="M 1.15464122949997 1.46809215562504  L 8.47954761500002 8.19997914375006  C 8.71513692500001 8.41651993125006  8.734511555 8.78736825000006  8.522802145 9.02833166250005  C 8.50916280500001 9.04384687500006  8.49472420500001 9.05860704375005  8.47954761500002 9.07254950625006  L 1.15464122400003 15.80445624375  C 0.860734634100021 16.0745488312501  0.83658401969999 16.537174875  1.10069389650002 16.8377414062501  C 1.36478443750001 17.1383276812501  1.81712988600002 17.1630073687501  2.11101714449999 16.89291478125  L 9.43592352999999 10.1610277875001  C 9.48895936999999 10.11228615  9.53941428 10.0606845375001  9.58707277000001 10.00644339375  C 10.3269826 9.16434691875003  10.25930675 7.86824656875006  9.43592358500003 7.11152055000005  L 2.11101718300002 0.379633579875065  C 1.81711059200003 0.109521205312536  1.36478448149999 0.134220696750042  1.1006939405 0.434806981875049  C 0.836584060399997 0.735373496250059  0.860734674249972 1.19799952312506  1.154641268 1.46809212187505  Z " fill-rule="nonzero" fill="#cccccc" stroke="none" transform="matrix(1 0 0 1 385 299 )" />
  </g>
</svg>