<?xml version="1.0" encoding="utf-8"?>
<svg version="1.1" xmlns:xlink="http://www.w3.org/1999/xlink" width="15px" height="16px" xmlns="http://www.w3.org/2000/svg">
  <g transform="matrix(1 0 0 1 -331 -57 )">
    <path d="M 14.400006890625 7.66948437000167  C 14.3946239744612 3.43206234882371  11.1726961277598 0  7.20010933593748 0  C 3.22372230405954 0  0.000218362873916078 3.43840420393059  0.000218362873916078 7.67989073999843  C 0.000218362873916078 11.9213772760663  3.22372230405954 15.3597814799968  7.20011593162393 15.3597814799968  C 11.1765095591883 15.3597814799968  14.400013500374 11.9213772760663  14.400013500374 7.67989073999843  C 14.400013500374 7.676421948805  14.4000112971238 7.67295315801061  14.400006890625 7.66948437000167  Z M 8.1366813703125 7.71110980500163  L 10.2829923 9.96928905000118  C 10.4262411770737 10.1055289119552  10.5081609351633 10.3005115810641  10.5081609351633 10.5052279066041  C 10.5081609351633 10.9017896586054  10.2067764182895 11.223266476604  9.83499977578834 11.223266476604  C 9.65507651991118 11.223266476604  9.48264113214314 11.1464371737122  9.35617622343745 11.0099246550009  L 7.20010933593748 8.66849455500142  L 5.04404244843752 10.9578928800009  C 4.91467039108116 11.095889741181  4.73920422669913 11.1734155705406  4.55624450859375 11.1734155705406  C 4.17525061864332 11.1734155705406  3.86639404636909 10.8439685601148  3.86639404636909 10.437575077501  C 3.86639404636909 10.2424180448554  3.93907451139363 10.0552541361812  4.06844656874998 9.91725727500119  L 6.21475749843746 7.61745259500168  L 4.06844656874998 5.32805427000216  C 3.93907451447671 5.19005741012154  3.8663940513409 5.0028935044038  3.8663940513409 4.80773647500229  C 3.8663940513409 4.40134299531752  4.17525062138917 4.07189598726609  4.55624450859375 4.07189598726609  C 4.73920422710339 4.07189598726609  4.91467039172779 4.14942181752286  5.04404244843752 4.28741868000236  L 7.20010933593748 6.68088055500186  L 9.35617622343745 4.38107587500235  C 9.47949623059809 4.26378978456358  9.63894743461502 4.19897616160551  9.8041687476492 4.19897616160551  C 10.1759453901504 4.19897616160551  10.4773299070242 4.52045297960416  10.4773299070242 4.91701473160538  C 10.4773299070242 5.10596880815905  10.4075040324003 5.28730731703672  10.2829923 5.42171148000216  L 8.1366813703125 7.71110980500163  Z " fill-rule="nonzero" fill="#cdcdcd" stroke="none" transform="matrix(1 0 0 1 331 57 )" />
  </g>
</svg>