<?xml version="1.0" encoding="utf-8"?>
<svg version="1.1" xmlns:xlink="http://www.w3.org/1999/xlink" width="29px" height="30px" xmlns="http://www.w3.org/2000/svg">
  <g transform="matrix(1 0 0 1 -47 -480 )">
    <path d="M 11.1168701754386 28.0526315789474  C 11.6866947368421 28.2042105263158  12.4746807017544 28.0088421052632  13.5296701754386 27.3149473684211  L 14.5032561403509 26.6749473684211  L 15.4735859649123 27.3149473684211  C 16.5253192982456 28.0088421052632  17.3133052631579 28.2075789473684  17.8798736842105 28.0492631578947  C 18.4464421052631 27.8909473684211  19.0325473684211 27.3149473684211  19.6088842105263 26.1663157894737  L 20.1428912280702 25.1086315789474  L 21.2955649122807 25.1625263157895  C 22.5426666666667 25.2197894736842  23.3176280701754 24.984  23.7344140350877 24.5528421052632  C 24.1512 24.1216842105263  24.3791298245614 23.32  24.3237754385965 22.0298947368421  L 24.2716771929825 20.8374736842105  L 25.2941052631579 20.285052631579  C 26.4011929824561 19.6888421052632  26.961249122807 19.0825263157895  27.1142877192982 18.4964210526316  C 27.2673263157895 17.9103157894737  27.0752140350877 17.0951578947368  26.404449122807 16.0071578947368  L 25.7857824561403 15.0033684210526  L 26.404449122807 13.9962105263158  C 27.0752140350877 12.9048421052632  27.2673263157895 12.0896842105263  27.1142877192982 11.5035789473684  C 26.961249122807 10.9174736842105  26.404449122807 10.3111578947369  25.2941052631579 9.71494736842106  L 24.2749333333333 9.16589473684211  L 24.3237754385965 7.97684210526317  C 24.3758736842105 6.68336842105264  24.1479438596491 5.8783157894737  23.7344140350877 5.45052631578948  C 23.3208842105263 5.02273684210527  22.5426666666667 4.78694736842106  21.2923087719298 4.84084210526316  L 20.1428912280702 4.89136842105264  L 19.6121403508772 3.83705263157896  C 19.032547368421 2.68842105263159  18.4464421052631 2.11242105263159  17.8831298245614 1.95410526315791  C 17.3165614035088 1.79578947368422  16.5285754385965 1.99452631578949  15.4735859649123 2.68842105263159  L 14.5032561403509 3.32842105263158  L 13.5329263157895 2.68842105263159  C 12.4779368421053 1.99452631578948  11.689950877193 1.79578947368422  11.1233824561403 1.9541052631579  C 10.5568140350877 2.11242105263159  9.97070877192982 2.68842105263159  9.39437192982455 3.83705263157896  L 8.86362105263158 4.89473684210526  L 7.71094736842105 4.84421052631579  C 6.46058947368421 4.78694736842105  5.68562807017544 5.02273684210526  5.26884210526316 5.4538947368421  C 4.85205614035088 5.88505263157895  4.62412631578947 6.68673684210526  4.67948070175439 7.98021052631579  L 4.72832280701754 9.17263157894737  L 3.7058947368421 9.72168421052632  C 2.59880701754386 10.3178947368421  2.03875087719298 10.9242105263158  1.88571228070176 11.5103157894737  C 1.73267368421053 12.0964210526316  1.92478596491228 12.9115789473684  2.59555087719298 13.9995789473684  L 3.21421754385965 15.0033684210526  L 2.59555087719298 16.0105263157895  C 1.92478596491228 17.1018947368421  1.73267368421053 17.9170526315789  1.88571228070176 18.5031578947368  C 2.03875087719298 19.0892631578947  2.59555087719298 19.6955789473684  3.7058947368421 20.2917894736842  L 4.72506666666667 20.8408421052632  L 4.67622456140351 22.0298947368421  C 4.62412631578947 23.3233684210526  4.85205614035088 24.1284210526316  5.26558596491228 24.5562105263158  C 5.67911578947369 24.984  6.45733333333333 25.2197894736842  7.70769122807017 25.1658947368421  L 8.85710877192982 25.1153684210526  L 9.38785964912281 26.1696842105263  C 9.96745263157894 27.3183157894737  10.5535578947368 27.8943157894737  11.1168701754386 28.0526315789474  Z M 18.3520140350877 29.8581052631579  C 17.2286456140351 30.168  15.9457263157895 29.8446315789474  14.5 28.8913684210526  C 13.0542736842105 29.8446315789474  11.7713543859649 30.1646315789474  10.6512421052632 29.8547368421053  C 9.53438596491228 29.5448421052632  8.57708070175439 28.6016842105263  7.78583859649123 27.0286315789474  C 6.06985263157895 27.1061052631579  4.8064701754386 26.7187368421053  3.98592280701754 25.8732631578947  C 3.16863157894737 25.0277894736842  2.79417543859649 23.7174736842105  2.86906666666667 21.9423157894737  C 1.34844912280702 21.1237894736842  0.436729824561408 20.1334736842105  0.137164912280701 18.9781052631579  C -0.162399999999999 17.8227368421053  0.146933333333334 16.4955789473684  1.06842105263158 14.9966315789474  C 0.150189473684214 13.5044210526316  -0.162399999999999 12.1772631578947  0.140421052631581 11.0185263157895  C 0.439985964912281 9.85978947368421  1.3517052631579 8.87284210526316  2.87232280701754 8.05431578947368  C 2.79743157894737 6.28252631578948  3.16863157894737 4.97221052631579  3.98917894736842 4.12336842105263  C 4.80972631578948 3.27452631578947  6.07310877192983 2.89052631578947  7.78909473684211 2.968  C 8.58033684210526 1.39494736842106  9.53764210526316 0.451789473684215  10.654498245614 0.141894736842104  C 11.7746105263158 -0.167999999999999  13.0575298245614 0.152000000000001  14.5032561403509 1.10526315789474  C 15.9489824561404 0.152000000000001  17.231901754386 -0.167999999999999  18.3520140350877 0.141894736842104  C 19.4688701754386 0.451789473684215  20.4261754385965 1.39494736842106  21.2174175438597 2.968  C 22.9334035087719 2.89052631578947  24.1967859649123 3.27789473684211  25.0173333333333 4.12336842105263  C 25.8346245614035 4.96884210526316  26.2090807017544 6.27915789473684  26.1341894736842 8.05431578947368  C 27.6548070175439 8.87284210526316  28.5665263157895 9.86315789473684  28.8660912280702 11.0185263157895  C 29.1656561403509 12.1738947368421  28.8563228070175 13.501052631579  27.9348350877193 15  C 28.8563228070175 16.4955789473684  29.1656561403509 17.8227368421053  28.8660912280702 18.9814736842105  C 28.5665263157895 20.1402105263158  27.6548070175439 21.1271578947368  26.1341894736842 21.9456842105263  C 26.2090807017544 23.7174736842105  25.8378807017544 25.0277894736842  25.0173333333333 25.8766315789474  C 24.1967859649123 26.7254736842105  22.9301473684211 27.1094736842105  21.2174175438597 27.032  C 20.4261754385965 28.6050526315789  19.4721263157895 29.5482105263158  18.3520140350877 29.8581052631579  Z " fill-rule="nonzero" fill="#323233" stroke="none" transform="matrix(1 0 0 1 47 480 )" />
  </g>
</svg>