<?xml version="1.0" encoding="utf-8"?>
<svg version="1.1" xmlns:xlink="http://www.w3.org/1999/xlink" width="12px" height="12px" xmlns="http://www.w3.org/2000/svg">
  <g transform="matrix(1 0 0 1 -55 -489 )">
    <path d="M 7.84966530612245 6.39403636363636  C 8.26657959183673 5.77265454545454  8.86844081632653 5.47941818181818  9.64584489795919 5.47941818181818  C 10.4107102040816 5.47941818181818  10.9968979591837 5.77265454545454  11.413812244898 6.39403636363636  C 11.7774367346939 6.92116363636363  11.971787755102 7.63679999999999  11.971787755102 8.52  C 11.971787755102 9.38923636363637  11.7774367346939 10.1013818181818  11.413812244898 10.6459636363636  C 10.9968979591837 11.2359272727273  10.4107102040816 11.5466181818182  9.64584489795919 11.5466181818182  C 8.86530612244898 11.5466181818182  8.26657959183673 11.2359272727273  7.84966530612245 10.6459636363636  C 7.47350204081633 10.0874181818182  7.29168979591837 9.38923636363636  7.29168979591837 8.52  C 7.29168979591837 7.63679999999999  7.47350204081633 6.92116363636363  7.84966530612245 6.39403636363636  Z M 2.69622857142857 11.7630545454546  L 8.26657959183673 0.250036363636362  L 9.4076081632653 0.250036363636362  L 3.82471836734694 11.7630545454546  L 2.69622857142857 11.7630545454546  Z M 0.690024489795921 1.38109090909091  C 1.1069387755102 0.763199999999998  1.70566530612245 0.46647272727273  2.48620408163265 0.46647272727273  C 3.2510693877551 0.46647272727273  3.83725714285714 0.759709090909091  4.25417142857143 1.38109090909091  C 4.61779591836735 1.90821818181819  4.81214693877551 2.62385454545455  4.81214693877551 3.50705454545454  C 4.81214693877551 4.37629090909091  4.61779591836735 5.08843636363636  4.25417142857143 5.63301818181819  C 3.83725714285714 6.22298181818182  3.2510693877551 6.53367272727273  2.48620408163265 6.53367272727273  C 1.70566530612245 6.53367272727273  1.10693877551021 6.22298181818182  0.690024489795921 5.63301818181819  C 0.313861224489793 5.07447272727273  0.132048979591839 4.37629090909091  0.132048979591839 3.50705454545454  C 0.132048979591839 2.62385454545455  0.313861224489793 1.90821818181819  0.690024489795921 1.38109090909091  Z M 10.3981714285714 7.16901818181819  C 10.247706122449 6.75010909090909  9.9969306122449 6.55112727272727  9.64584489795919 6.55112727272727  C 9.28222040816327 6.55112727272727  9.01890612244898 6.75360000000001  8.85276734693878 7.15505454545455  C 8.72737959183674 7.4797090909091  8.67095510204082 7.93003636363636  8.67095510204082 8.52000000000001  C 8.67095510204082 9.07854545454546  8.72737959183674 9.52887272727273  8.85276734693878 9.87098181818182  C 9.01890612244898 10.2759272727273  9.28535510204082 10.4749090909091  9.64584489795919 10.4749090909091  C 9.99379591836735 10.4749090909091  10.2445714285714 10.2584727272727  10.4107102040816 9.83956363636364  C 10.5235591836735 9.5149090909091  10.5925224489796 9.07854545454545  10.5925224489796 8.52000000000001  C 10.5925224489796 7.94749090909092  10.5235591836735 7.49716363636364  10.3981714285714 7.16901818181819  Z M 3.2385306122449 2.15607272727273  C 3.0849306122449 1.74065454545455  2.83415510204081 1.53818181818182  2.48620408163265 1.53818181818182  C 2.12257959183674 1.53818181818182  1.85926530612245 1.74065454545455  1.69312653061225 2.14210909090909  C 1.5677387755102 2.46676363636364  1.51131428571429 2.91709090909091  1.51131428571429 3.50705454545454  C 1.51131428571429 4.0656  1.5677387755102 4.51592727272728  1.69312653061225 4.85803636363637  C 1.85926530612245 5.26298181818181  2.12571428571429 5.46196363636363  2.48620408163265 5.46196363636363  C 2.83415510204081 5.46196363636363  3.0849306122449 5.24552727272727  3.2510693877551 4.82661818181818  C 3.36391836734694 4.50196363636364  3.43288163265306 4.0656  3.43288163265306 3.50705454545454  C 3.43288163265306 2.93454545454546  3.36391836734694 2.48421818181819  3.2385306122449 2.15607272727273  Z " fill-rule="nonzero" fill="#323233" stroke="none" transform="matrix(1 0 0 1 55 489 )" />
  </g>
</svg>