<?xml version="1.0" encoding="utf-8"?>
<svg version="1.1" xmlns:xlink="http://www.w3.org/1999/xlink" width="17px" height="12px" xmlns="http://www.w3.org/2000/svg">
  <g transform="matrix(1 0 0 1 -258 -3814 )">
    <path d="M 15.4208470066519 3.27694117647059  L 3.76793126385809 3.27694117647059  L 4.5550199556541 10.4182352941176  C 4.58534478935698 10.6932352941176  4.80907760532151 10.9008431372549  5.07514079822616 10.9008431372549  L 14.2898381374723 10.9008431372549  C 14.5431984478936 10.9008431372549  14.7601840354767 10.7121176470588  14.8050964523282 10.4527058823529  L 15.9361053215078 3.91813725490196  C 15.9873314855876 3.62207843137255  15.7981829268293 3.33886274509804  15.5136308203991 3.28556862745098  C 15.4830107371155 3.27983020821163  15.4519599144532 3.27694296484881  15.4208470066519 3.27694117647059  Z M 3.56675831485588 1.45170588235294  L 3.64787583148559 2.18760784313726  L 15.4208470066519 2.18760784313726  C 15.514177383592 2.18760784313726  15.6073381374723 2.19627450980392  15.6991796008869 2.21349019607843  C 16.5528736141907 2.37341176470588  17.120300443459 3.22303921568627  16.9665842572062 4.11117647058824  L 15.8355753880266 10.6457647058824  C 15.7008758314856 11.4239803921569  15.0499002217295 11.9901764705882  14.2898381374723 11.9901764705882  L 5.07515964523282 11.9901764705882  C 4.27697006651885 11.9901764705882  3.60571507760532 11.3673333333333  3.51477827050998 10.5423333333333  L 2.52651662971175 1.57580392156863  C 2.49621064301552 1.30080392156863  2.27245898004435 1.09319607843137  2.00639578713969 1.09319607843137  L 0.53819512195122 1.09319607843137  C 0.249044345898004 1.09319607843137  0.0146629711751663 0.849333333333334  0.0146629711751663 0.548529411764706  C 0.0146629711751663 0.247725490196078  0.249044345898004 0.00386274509803927  0.53819512195122 0.00386274509803927  L 2.00639578713969 0.00386274509803927  C 2.80458536585366 0.00386274509803927  3.47584035476718 0.626705882352941  3.56675831485588 1.45170588235294  Z " fill-rule="nonzero" fill="#323233" stroke="none" transform="matrix(1 0 0 1 258 3814 )" />
  </g>
</svg>