<?xml version="1.0" encoding="utf-8"?>
<svg version="1.1" xmlns:xlink="http://www.w3.org/1999/xlink" width="12px" height="18px" xmlns="http://www.w3.org/2000/svg">
  <g transform="matrix(1 0 0 1 -177 -3800 )">
    <path d="M 3.56621298701299 1.23253333333333  C 2.28554805194805 1.23253333333333  1.24625454545455 2.34186666666667  1.24625454545454 3.7136  L 0.137142857142858 3.7136  C 0.137142857142858 1.68906666666666  1.67314285714286 0.0464000000000013  3.56621298701299 0.0464000000000013  C 5.45928311688311 0.0464000000000013  6.99528311688312 1.68693333333333  6.99528311688312 3.7136  L 5.88617142857143 3.7136  C 5.88617142857143 2.344  4.84687792207792 1.23253333333333  3.56621298701299 1.23253333333333  Z M 4.67532467532467 16.0464  C 4.67532467532467 16.3749333333333  4.42796883116883 16.6394666666667  4.12076883116883 16.6394666666667  C 3.81556363636364 16.6394666666667  3.56621298701299 16.3749333333333  3.56621298701299 16.0464  C 3.56621298701299 15.72  3.81356883116883 15.4533333333333  4.12076883116883 15.4533333333333  C 4.42796883116883 15.4533333333333  4.67532467532467 15.72  4.67532467532467 16.0464  Z M 9.10778181818182 9.52693333333333  C 9.10778181818182 9.85546666666666  8.86042597402598 10.12  8.55322597402597 10.12  C 8.24802077922078 10.12  7.99867012987013 9.85546666666667  7.99867012987013 9.52693333333333  C 7.99867012987013 9.19839999999999  8.24602597402597 8.93386666666667  8.55322597402597 8.93386666666667  C 8.86042597402598 8.93386666666667  9.10778181818182 9.19839999999999  9.10778181818182 9.52693333333333  Z M 11.8785662337662 13.8426666666667  L 11.3220155844156 13.8469333333333  L 11.8765714285714 13.8469333333333  C 11.8765714285714 14.0816  11.8306909090909 14.3184  11.7469090909091 14.5594666666667  C 11.7149922077922 14.6597333333333  11.6731012987013 14.7621333333333  11.5693714285714 14.9605333333333  C 11.5972987012987 14.9178666666667  11.5972987012987 14.9178666666667  11.6012883116883 14.9114666666667  L 11.6192415584416 14.8773333333333  L 11.6072727272727 14.9029333333333  C 11.6092675324675 14.8986666666667  11.6092675324675 14.8986666666667  11.5992935064935 14.9221333333333  C 11.573361038961 14.9776  11.5474285714286 15.0288  11.5294753246753 15.0544  C 11.4895792207792 15.1290666666667  11.4476883116883 15.2037333333333  11.4018077922078 15.2762666666667  C 11.1524571428571 15.6858666666667  10.8113454545455 16.1061333333333  10.4004155844156 16.5370666666667  C 10.1131636363636 16.8378666666667  9.80795844155844 17.1258666666667  9.49876363636364 17.3946666666667  C 9.31524155844156 17.5546666666667  8.97014025974026 17.8405333333333  9.0638961038961 17.7594666666667  C 8.91628051948052 17.8853333333333  8.73475324675325 17.9514666666667  8.54923636363636 17.9514666666667  C 8.36371948051948 17.9514666666667  8.18418701298702 17.8853333333333  8.03457662337663 17.7594666666667  C 8.13232207792207 17.8426666666667  7.78323116883117 17.5546666666667  7.6017038961039 17.3946666666667  C 7.29250909090909 17.1258666666667  6.9892987012987 16.84  6.70404155844156 16.5392  C 6.28114285714285 16.0976  5.93205194805195 15.6624  5.68070649350649 15.24  C 5.5670025974026 15.048  5.47324675324675 14.8581333333333  5.40143376623377 14.6704  C 5.39744415584416 14.6576  5.39744415584416 14.6576  5.39345454545454 14.6490666666667  C 5.28972467532468 14.3717333333333  5.23586493506494 14.1029333333333  5.23586493506494 13.8426666666667  C 5.23187532467533 13.7978666666667  5.23187532467533 13.768  5.23187532467533 13.7274666666667  C 5.23187532467533 12.3962666666667  6.19736103896104 11.3018666666667  7.40022857142857 11.3018666666667  C 7.81315324675325 11.3018666666667  8.21410909090909 11.4362666666667  8.55522077922078 11.6794666666667  C 8.89832727272727 11.4362666666667  9.29728831168831 11.3018666666667  9.71220779220779 11.3018666666667  C 10.9150753246753 11.3018666666667  11.880561038961 12.3984  11.880561038961 13.7274666666667  C 11.880561038961 13.7808  11.880561038961 13.7829333333333  11.8785662337662 13.8170666666667  L 11.8785662337662 13.8426666666667  Z M 10.6397922077922 14.3162666666667  C 10.6657246753247 14.2629333333333  10.6856727272727 14.2117333333333  10.703625974026 14.1584  C 10.7495064935065 14.0282666666667  10.7674597402597 13.928  10.7674597402597 13.8469333333333  L 11.3220155844156 13.8469333333333  L 10.7674597402597 13.8469333333333  L 10.7674597402597 13.7850666666667  C 10.7674597402597 13.7658666666667  10.7674597402597 13.7658666666667  10.7694545454545 13.7552  L 10.7694545454545 13.7338666666667  C 10.7694545454545 13.0426666666667  10.2847168831169 12.4922666666667  9.70821818181818 12.4922666666667  C 9.43094025974026 12.4922666666667  9.16363636363636 12.6245333333333  8.96216103896104 12.8592  L 8.55322597402597 13.3413333333333  L 8.14229610389611 12.8613333333333  C 7.94082077922078 12.6245333333333  7.67152207792208 12.4922666666667  7.39424415584416 12.4922666666667  C 6.81774545454545 12.4922666666667  6.33300779220779 13.0426666666667  6.33300779220779 13.7338666666667  C 6.33300779220779 13.736  6.3350025974026 13.7850666666667  6.3369974025974 13.8789333333333  C 6.3369974025974 13.8725333333333  6.3369974025974 13.8725333333333  6.33899220779221 13.8533333333333  C 6.33899220779221 13.9472  6.36492467532467 14.0709333333333  6.41878441558442 14.216  C 6.42476883116883 14.2309333333333  6.42476883116883 14.2352  6.42676363636363 14.2373333333333  C 6.47064935064935 14.3504  6.53248831168831 14.4762666666667  6.61228051948052 14.6085333333333  C 6.81176103896104 14.9434666666667  7.10898701298701 15.3125333333333  7.47603116883117 15.6965333333333  C 7.73535584415584 15.9696  8.01662337662338 16.232  8.29988571428571 16.4794666666667  C 8.36770909090908 16.5392  8.46345974025974 16.6202666666667  8.54724155844156 16.6906666666667  C 8.63102337662338 16.6202666666667  8.72677402597403 16.5392  8.7945974025974 16.4794666666667  C 9.07985454545454 16.2298666666667  9.36112207792208 15.9653333333333  9.62244155844156 15.6922666666667  C 9.97951168831168 15.3189333333333  10.2707532467532 14.9584  10.4702337662338 14.632  C 10.5041454545455 14.5765333333333  10.5340675324675 14.5232  10.5779532467532 14.4421333333333  C 10.5839376623377 14.4336  10.5859324675325 14.4272  10.6018909090909 14.3952  C 10.6118649350649 14.3717333333333  10.6118649350649 14.3717333333333  10.621838961039 14.3525333333333  L 10.6397922077922 14.3162666666667  Z " fill-rule="nonzero" fill="#333333" stroke="none" transform="matrix(1 0 0 1 177 3800 )" />
  </g>
</svg>