<?xml version="1.0" encoding="utf-8"?>
<svg version="1.1" xmlns:xlink="http://www.w3.org/1999/xlink" width="12px" height="12px" xmlns="http://www.w3.org/2000/svg">
  <g transform="matrix(1 0 0 1 -50 -57 )">
    <path d="M 9.84075520833335 4.96520182291664  C 9.84075520833335 6.176513671875  9.39986979166667 7.28595377604165  8.66964518229167 8.14013671875  C 8.66964518229167 8.14013671875  11.289599609375 10.763623046875  11.781982421875 11.2458170572917  C 12.1866048177083 11.6417317708334  11.7225260416666 12.2566243489583  11.1996744791667 11.7004720052083  C 10.8849609375 11.3654459635417  8.13883463541669 8.67164713541666  8.13883463541669 8.67164713541666  C 7.28315429687501 9.40834960937502  6.17006835937502 9.85359700520831  4.95252278645836 9.85359700520831  C 2.25279947916664 9.85359700520831  0.0643066406249773 7.6644368489583  0.0643066406249773 4.96518554687498  C 0.0643066406249773 2.26591796874999  2.25279947916664 0.0771647135416629  4.95252278645836 0.0771647135416629  C 7.65226236979169 0.0771647135416629  9.84075520833335 2.26593424479165  9.84075520833335 4.96518554687498  Z M 9.0662760416667 4.96484375  C 9.0662760416667 2.69376627604169  7.22439778645833 0.851969401041686  4.95250651041664 0.851969401041686  C 2.68134765625001 0.851969401041686  0.83946940104164 2.69376627604169  0.83946940104164 4.96484375  C 0.83946940104164 7.23665364583331  2.68134765625001 9.07845052083331  4.95250651041664 9.07845052083331  C 7.22438151041666 9.07845052083331  9.0662760416667 7.23663736979165  9.0662760416667 4.96484375  Z " fill-rule="nonzero" fill="#000000" stroke="none" transform="matrix(1 0 0 1 50 57 )" />
  </g>
</svg>