<?xml version="1.0" encoding="utf-8"?>
<svg version="1.1" xmlns:xlink="http://www.w3.org/1999/xlink" width="25px" height="30px" xmlns="http://www.w3.org/2000/svg">
  <g transform="matrix(1 0 0 1 -129 -480 )">
    <path d="M 16.2807407407407 27.4592156862745  C 20.9414814814815 25.0937254901961  23.1992592592593 22.4050980392157  23.1992592592593 19.4247058823529  C 23.1992592592593 17.3321568627451  22.4437037037037 15.3305882352941  21.1696296296296 13.4952941176471  C 20.7484858145591 12.88947597291  20.2839021994347 12.318899933866  19.78 11.7886274509804  C 19.1874074074074 12.6137254901961  18.6244444444444 13.1941176470588  18.2007407407407 13.5392156862745  C 17.5874074074074 14.0349019607843  16.7251851851852 13.4482352941176  16.897037037037 12.6513725490196  C 17.7414814814815 8.77058823529412  16.5177777777778 5.88117647058823  13.9133333333333 3.74470588235294  C 13.1874074074074 3.14862745098039  12.4022222222222 2.65921568627451  11.62 2.27333333333333  C 11.5962962962963 2.26078431372549  11.5725925925926 2.2513725490196  11.5518518518518 2.23882352941176  C 11.0837037037037 5.48901960784313  9.66444444444444 7.30235294117647  6.44074074074074 9.96274509803921  L 6.36074074074074 10.0286274509804  C 2.89111111111111 12.8929411764706  1.80074074074074 14.5525490196078  1.80074074074074 18.4364705882353  C 1.80074074074074 22.1886274509804  4.17111111111111 25.2223529411765  8.17703703703704 27.1862745098039  C 6.88222222222223 24.9682352941176  6.48222222222222 22.8380392156863  6.89111111111111 20.8270588235294  C 7.24666666666667 19.0701960784314  8.19185185185185 17.5329411764706  9.52518518518518 16.2121568627451  C 10.1177777777778 15.6254901960784  10.7488888888889 15.1203921568627  11.382962962963 14.696862745098  C 11.7651851851852 14.4396078431373  12.0703703703704 14.2639215686274  12.2540740740741 14.1666666666667  C 13.0125925925926 13.7776470588235  13.7711111111111 14.7062745098039  13.2911111111111 15.4435294117647  C 13.2822222222222 15.4560784313725  13.2437037037037 15.5313725490196  13.1992592592593 15.6631372549019  C 12.7577777777778 16.943137254902  13.1874074074074 18.6874509803921  15.3888888888889 20.9211764705882  C 17.06 22.7313725490196  17.3355555555555 24.9556862745098  16.2807407407407 27.4592156862745  Z M 18.8081481481481 10.2325490196078  C 18.8585185185185 10.1572549019608  18.9088888888889 10.0819607843137  18.9562962962963 10.0035294117647  C 19.22 9.57372549019608  19.777037037037 9.47647058823529  20.1562962962963 9.79647058823529  C 20.3133333333333 9.93137254901961  20.577037037037 10.1729411764706  20.9059259259259 10.5149019607843  C 21.4837037037037 11.1172549019608  22.017037037037 11.7698039215686  22.497037037037 12.463137254902  C 23.9607407407407 14.5745098039216  24.8437037037037 16.9149019607843  24.8437037037037 19.4247058823529  C 24.8437037037037 23.5376470588235  21.6940740740741 26.9447058823529  15.5874074074074 29.6960784313725  L 15.2644444444444 29.7650980392157  L 14.5562962962963 29.7650980392157  C 13.8925925925926 29.7650980392157  13.5014814814815 28.9776470588235  13.8777777777778 28.3972549019608  C 15.62 25.7305882352941  15.6851851851852 23.7321568627451  14.2274074074074 22.1541176470588  C 12.3251851851852 20.2247058823529  11.4807407407407 18.4019607843137  11.4096296296296 16.8019607843137  C 11.1459259259259 17.018431372549  10.8940740740741 17.2443137254902  10.6511111111111 17.4858823529412  C 9.54296296296296 18.5839215686275  8.77851851851851 19.8262745098039  8.50296296296296 21.1941176470588  C 8.07629629629629 23.3023529411765  8.80518518518518 25.658431372549  11.0422222222222 28.3156862745098  C 11.5162962962963 28.8772549019608  11.14 29.7682352941177  10.4288888888889 29.7682352941177  L 10.0348148148148 29.7682352941177  L 9.77407407407407 29.7243137254902  C 3.89555555555556 27.6474509803922  0.153333333333331 23.6945098039216  0.153333333333331 18.4364705882353  C 0.153333333333331 13.8937254901961  1.51925925925926 11.816862745098  5.34740740740741 8.65450980392156  L 5.42740740740741 8.58862745098039  C 8.68666666666667 5.9  9.78592592592593 4.34705882352941  10.0318518518518 0.940000000000001  C 10.0733333333333 0.381568627450979  10.5918518518519 0.00823529411764459  11.0955555555556 0.174509803921571  C 11.3503703703704 0.259215686274509  11.7740740740741 0.428627450980391  12.3133333333333 0.6921568627451  C 13.2022222222222 1.12823529411765  14.0881481481481 1.68352941176471  14.9207407407407 2.36431372549019  C 17.3385185185185 4.34705882352941  18.7874074074074 6.96666666666667  18.8081481481481 10.2325490196078  Z " fill-rule="nonzero" fill="#323233" stroke="none" transform="matrix(1 0 0 1 129 480 )" />
  </g>
</svg>