<?xml version="1.0" encoding="utf-8"?>
<svg version="1.1" xmlns:xlink="http://www.w3.org/1999/xlink" width="13px" height="14px" xmlns="http://www.w3.org/2000/svg">
  <g transform="matrix(1 0 0 1 -316 -295 )">
    <path d="M 12.9332465116279 7.58216170212766  L 11.8574511627907 7.57834893617022  L 5.4065488372093 7.57834893617022  L 5.4065488372093 2.2824170212766  L 2.18303255813953 2.2824170212766  L 2.18303255813953 13.934229787234  C 0.995013953488368 13.934229787234  0.0314418604651223 12.9848510638298  0 11.8143319148936  L 0 0.204459574468089  C 0.0314418604651223 0.181582978723398  0.0469209302325595 0.166331914893618  0.0701395348837224 0.166331914893618  L 7.55813953488372 0.166331914893618  L 7.55813953488372 5.46226382978723  L 10.7816558139535 5.46226382978723  L 10.7816558139535 0.166331914893618  C 11.9696744186047 0.166331914893618  12.9332465116279 1.11571063829787  12.9332465116279 2.28622978723405  L 12.9332465116279 7.58216170212766  Z M 7.55813953488372 11.2843574468085  C 7.55813953488372 12.1651063829787  6.83449302325582 12.8742808510638  5.94444651162792 12.8742808510638  C 5.0544 12.8742808510638  4.3307534883721 12.1612936170213  4.3307534883721 11.2843574468085  C 4.3307534883721 10.4074212765957  5.0544 9.6944340425532  5.94444651162792 9.6944340425532  C 6.83449302325582 9.6944340425532  7.55813953488372 10.4074212765958  7.55813953488372 11.2843574468085  Z M 12.9332465116279 11.2843574468085  C 12.9332465116279 12.1651063829787  12.2096 12.8742808510638  11.3195534883721 12.8742808510638  C 10.4295069767442 12.8742808510638  9.70586046511629 12.1612936170213  9.70586046511629 11.2843574468085  C 9.70586046511629 10.4074212765957  10.4295069767442 9.6944340425532  11.3195534883721 9.6944340425532  C 12.2096 9.6944340425532  12.9332465116279 10.4074212765958  12.9332465116279 11.2843574468085  Z " fill-rule="nonzero" fill="#323233" stroke="none" transform="matrix(1 0 0 1 316 295 )" />
  </g>
</svg>