<?xml version="1.0" encoding="utf-8"?>
<svg version="1.1" xmlns:xlink="http://www.w3.org/1999/xlink" width="29px" height="30px" xmlns="http://www.w3.org/2000/svg">
  <g transform="matrix(1 0 0 1 -312 -494 )">
    <path d="M 6.251936 25.49856  L 8.620192 23  L 26.872096 23  L 26.872096 2.20128  L 2.127904 2.20128  L 2.127904 23.53632  L 6.251936 23.53632  L 6.251936 25.49856  Z M 9.344032 25.67136  L 9.344032 25.66752  L 4.188064 29.93376  L 4.188064 25.66752  L 2.124192 25.66752  C 0.984608000000001 25.66752  0.0603200000000037 24.71136  0 23.53248  L 0 2.20128  C 0.0603200000000037 1.0224  0.984608000000001 0.0662400000000005  2.124192 0  L 26.872096 0  C 28.01168 0.0662400000000005  28.935968 1.0224  29 2.20128  L 29 23.53632  C 28.935968 24.7152  28.01168 25.67136  26.872096 25.67136  L 9.344032 25.67136  Z M 19.429536 11.80896  C 19.997472 11.80896  20.45776 12.28128  20.461472 12.86496  C 20.465184 16.39776  17.744288 19.26624  14.38864 19.26624  C 11.036704 19.26624  8.31952000000001 16.40928  8.312096 12.88032  L 8.312096 12.87648  C 8.312096 12.28896  8.77238400000001 11.80896  9.344032 11.80896  C 9.911968 11.80896  10.372256 12.28128  10.375968 12.8688  C 10.375968 15.23424  12.18 17.13504  14.38864 17.13504  C 16.571296 17.13504  18.364192 15.27264  18.401312 12.9456  C 18.401312 12.92256  18.3976 12.89952  18.3976 12.87648  C 18.3976 12.28896  18.857888 11.80896  19.429536 11.80896  Z M 8.312096 7.53504  C 8.312096 6.94368  8.776096 6.46752  9.344032 6.46752  C 9.911968 6.46752  10.375968 6.94368  10.375968 7.53504  C 10.375968 8.12256  9.91568 8.60256  9.344032 8.60256  C 8.772384 8.60256  8.312096 8.1264  8.312096 7.53504  Z M 18.624032 7.53504  C 18.624032 6.94368  19.08432 6.46752  19.655968 6.46752  C 20.223904 6.46752  20.687904 6.94368  20.687904 7.53504  C 20.687904 8.12256  20.227616 8.60256  19.655968 8.60256  C 19.08432 8.60256  18.624032 8.1264  18.624032 7.53504  Z " fill-rule="nonzero" fill="#323233" stroke="none" transform="matrix(1 0 0 1 312 494 )" />
  </g>
</svg>