<?xml version="1.0" encoding="utf-8"?>
<svg version="1.1" xmlns:xlink="http://www.w3.org/1999/xlink" width="30px" height="30px" xmlns="http://www.w3.org/2000/svg">
  <g transform="matrix(1 0 0 1 -325 -293 )">
    <path d="M 11.80128 2.20128  L 2.20128 2.20128  L 2.20128 11.80128  L 11.80128 11.80128  L 11.80128 2.20128  Z M 0.0662400000000005 2.20128  C 0.0662400000000005 1.0224  1.0224 0.0662400000000005  2.20128 0.0662400000000005  L 11.80128 0.0662400000000005  C 12.98016 0.0662400000000005  13.93632 1.0224  13.93632 2.20128  L 13.93632 11.80128  C 13.93632 12.98016  12.98016 13.93632  11.80128 13.93632  L 2.20128 13.93632  C 1.0224 13.93632  0.0662400000000005 12.98016  0.0662400000000005 11.80128  L 0.0662400000000005 2.20128  Z M 16.06368 2.20128  C 16.06752 1.0224  17.02368 0.0662400000000005  18.19872 0.0662400000000005  L 27.79872 0.0662400000000005  C 28.9776 0.0662400000000005  29.93376 1.0224  29.93376 2.20128  L 29.93376 11.80128  C 29.93376 12.98016  28.9776 13.93632  27.79872 13.93632  L 18.19872 13.93632  C 17.01984 13.93632  16.06368 12.98016  16.06368 11.80128  L 16.06368 2.20128  Z M 27.79872 2.20128  L 18.19872 2.20128  L 18.19872 11.80128  L 27.79872 11.80128  L 27.79872 2.20128  Z M 0.0662400000000005 18.20256  C 0.0662400000000005 17.02368  1.0224 16.06752  2.20128 16.06752  L 11.80128 16.06752  C 12.98016 16.06752  13.93632 17.02368  13.93632 18.20256  L 13.93632 27.80256  C 13.93632 28.98144  12.98016 29.9376  11.80128 29.9376  L 2.20128 29.9376  C 1.0224 29.9376  0.0662400000000005 28.98144  0.0662400000000005 27.80256  L 0.0662400000000005 18.20256  Z M 11.80128 18.19872  L 2.20128 18.19872  L 2.20128 27.79872  L 11.80128 27.79872  L 11.80128 18.19872  Z " fill-rule="nonzero" fill="#323233" stroke="none" transform="matrix(1 0 0 1 325 293 )" />
  </g>
</svg>