<?xml version="1.0" encoding="utf-8"?>
<svg version="1.1" xmlns:xlink="http://www.w3.org/1999/xlink" width="26px" height="30px" xmlns="http://www.w3.org/2000/svg">
  <g transform="matrix(1 0 0 1 -207 -480 )">
    <path d="M 7.67207797270955 18.7456842105263  L 1.85943079922027 21.6256842105263  L 1.85943079922027 28  L 23.4849434697856 28  L 23.4849434697856 21.6256842105263  L 17.6722962962963 18.7456842105263  L 7.67207797270955 18.7456842105263  Z M 0.0559532163742657 21.6256842105263  C 0.0559532163742657 20.9014736842105  0.45492397660819 20.2446315789474  1.08095126705653 19.9347368421053  L 6.89684210526316 17.0547368421053  C 7.14011695906433 16.9334736842105  7.40285380116959 16.8728421052632  7.67207797270955 16.8728421052632  L 17.6690526315789 16.8728421052632  C 17.9382768031189 16.8728421052632  18.2042573099415 16.9334736842105  18.4442884990253 17.0547368421053  L 24.2569356725146 19.9347368421053  C 24.882962962963 20.2446315789474  25.2819337231969 20.9014736842105  25.2819337231969 21.6223157894737  L 25.2819337231969 28.0964210526316  C 25.2819337231969 29.1305263157895  24.474261208577 29.9692631578947  23.4784561403509 30  L 1.85943079922027 30  C 0.863625730994148 29.9692631578947  0.0559532163742657 29.1305263157895  0.0559532163742657 28.0964210526316  L 0.0559532163742657 21.6256842105263  Z M 7.26337621832359 7.512  C 7.26337621832359 10.6143157894737  9.68639376218324 13.1271578947368  12.6705653021442 13.1271578947368  C 15.6547368421053 13.1271578947368  18.0777543859649 10.6143157894737  18.0777543859649 7.512  C 18.0777543859649 4.41305263157895  15.6579805068226 1.89684210526316  12.6705653021442 1.89684210526316  C 9.68315009746588 1.89684210526316  7.26337621832359 4.40968421052632  7.26337621832359 7.512  Z M 19.8779883040936 7.51536842105263  C 19.8779883040936 11.6517894736842  16.6505419103314 15  12.6705653021442 15  C 8.69058869395711 15  5.46314230019493 11.6484210526316  5.46314230019493 7.51536842105263  C 5.46314230019493 3.38231578947369  8.69058869395711 0.030736842105263  12.6705653021442 0.030736842105263  C 16.6505419103314 0.030736842105263  19.8779883040936 3.37894736842105  19.8779883040936 7.51536842105263  Z M 14.4707992202729 23.4210526315789  C 14.4707992202729 22.9023157894737  14.8762573099415 22.4846315789474  15.3725380116959 22.4846315789474  L 18.9762495126706 22.4846315789474  C 19.4725302144249 22.4846315789474  19.8779883040936 22.9023157894737  19.8779883040936 23.4210526315789  C 19.8779883040936 23.9397894736842  19.4757738791423 24.3574736842105  18.9762495126706 24.3574736842105  L 15.3725380116959 24.3574736842105  C 14.8762573099415 24.3574736842105  14.4707992202729 23.9397894736842  14.4707992202729 23.4210526315789  Z " fill-rule="nonzero" fill="#323233" stroke="none" transform="matrix(1 0 0 1 207 480 )" />
  </g>
</svg>