<?xml version="1.0" encoding="utf-8"?>
<svg version="1.1" xmlns:xlink="http://www.w3.org/1999/xlink" width="173px" height="180px" xmlns="http://www.w3.org/2000/svg">
  <g transform="matrix(1 0 0 1 -204 -1782 )">
    <path d="M 204 1782  L 377 1782  L 377 1962  L 204 1962  L 204 1782  " fill-rule="nonzero" fill="#cccccc" stroke="none" />
    <path d="M 216 1794  L 365 1794  L 365 1950  L 216 1950  L 216 1794  " fill-rule="nonzero" fill="#ffffff" stroke="none" />
    <path d="M 306.935 1834.95  C 299.669 1834.95  293.96 1829.241  293.96 1821.975  C 293.96 1814.709  299.669 1809  306.935 1809  C 314.201 1809  319.91 1814.709  319.91 1821.975  C 319.91 1829.241  314.201 1834.95  306.935 1834.95  " fill-rule="nonzero" fill="#cccccc" stroke="none" />
    <path d="M 221 1946  L 221 1865.15  L 256 1828.4  L 305 1857.8  L 333 1850.45  L 361 1857.8  L 361 1946  L 221 1946  " fill-rule="nonzero" fill="#169bd5" stroke="none" />
  </g>
</svg>