<?xml version="1.0" encoding="utf-8"?>
<svg version="1.1" xmlns:xlink="http://www.w3.org/1999/xlink" width="147px" height="200px" xmlns="http://www.w3.org/2000/svg">
  <g transform="matrix(1 0 0 1 -203 -480 )">
    <path d="M 203 480  L 350 480  L 350 680  L 203 680  L 203 480  " fill-rule="nonzero" fill="#cccccc" stroke="none" />
    <path d="M 213 490  L 340 490  L 340 670  L 213 670  L 213 490  " fill-rule="nonzero" fill="#ffffff" stroke="none" />
    <path d="M 290.465 532.05  C 284.291 532.05  279.44 527.199  279.44 521.025  C 279.44 514.851  284.291 510  290.465 510  C 296.639 510  301.49 514.851  301.49 521.025  C 301.49 527.199  296.639 532.05  290.465 532.05  " fill-rule="nonzero" fill="#cccccc" stroke="none" />
    <path d="M 217 667  L 217 571.85  L 247 528.6  L 289 563.2  L 313 554.55  L 337 563.2  L 337 667  L 217 667  " fill-rule="nonzero" fill="#169bd5" stroke="none" />
  </g>
</svg>