<?xml version="1.0" encoding="utf-8"?>
<svg version="1.1" xmlns:xlink="http://www.w3.org/1999/xlink" width="29px" height="33px" xmlns="http://www.w3.org/2000/svg">
  <g transform="matrix(1 0 0 1 -269 -308 )">
    <path d="M 28.851088372093 17.8722382978724  L 26.4512372093023 17.8632510638298  L 12 17.8632510638298  L 12 5.37998297872342  L 5 5.37998297872342  L 5 32.844970212766  C 2.2196465116279 32.844970212766  0.0701395348837344 30.6071489361702  0 27.8480680851064  L 0 0.481940425531924  C 0.0701395348837344 0.428017021276581  0.104669767441864 0.392068085106386  0.156465116279073 1  L 16.8604651162791 1  L 16.8604651162791 12.8753361702128  L 24 12.8753361702128  L 24 0.392068085106386  C 26.7015813953488 0.392068085106386  28.851088372093 2.62988936170212  28.851088372093 5.38897021276597  L 28.851088372093 17.8722382978724  Z M 16.8604651162791 26.5988425531915  C 16.8604651162791 28.6748936170213  15.2461767441861 30.3465191489362  13.260688372093 30.3465191489362  C 11.2752 30.3465191489362  9.66091162790698 28.6659063829787  9.66091162790698 26.5988425531915  C 9.66091162790698 24.5317787234042  11.2752 22.8511659574468  13.260688372093 22.8511659574468  C 15.2461767441861 22.8511659574468  16.8604651162791 24.5317787234043  16.8604651162791 26.5988425531915  Z M 28.851088372093 26.5988425531915  C 28.851088372093 28.6748936170213  27.2368 30.3465191489362  25.251311627907 30.3465191489362  C 23.265823255814 30.3465191489362  21.651534883721 28.6659063829787  21.651534883721 26.5988425531915  C 21.651534883721 24.5317787234042  23.265823255814 22.8511659574468  25.251311627907 22.8511659574468  C 27.2368 22.8511659574468  28.851088372093 24.5317787234043  28.851088372093 26.5988425531915  Z " fill-rule="nonzero" fill="#323233" stroke="none" transform="matrix(1 0 0 1 269 308 )" />
  </g>
</svg>