<?xml version="1.0" encoding="utf-8"?>
<svg version="1.1" xmlns:xlink="http://www.w3.org/1999/xlink" width="68px" height="70px" xmlns="http://www.w3.org/2000/svg">
  <g transform="matrix(1 0 0 1 -230 -271 )">
    <path d="M 27 6  L 5 6  L 5 28  L 27 28  L 27 6  Z M 1 5.13631999999999  C 0.150144000000001 2.38559999999999  2.31743999999999 0.154560000000001  4.98956799999999 1  L 26.749568 1  C 29.421696 0.154560000000001  31.588992 2.38559999999999  32 5.13631999999999  L 32 27.53632  C 31.588992 30.28704  29.421696 32.51808  26.749568 33  L 4.98956799999999 33  C 2.31743999999999 32.51808  0.150144000000001 30.28704  1 27.53632  L 1 5.13631999999999  Z M 36 5.13631999999999  C 36.419712 2.38559999999999  38.587008 0.154560000000001  41.250432 1  L 63.010432 1  C 65.68256 0.154560000000001  67.849856 2.38559999999999  67 5.13631999999999  L 67 27.53632  C 67.849856 30.28704  65.68256 32.51808  63.010432 33  L 41.250432 33  C 38.578304 32.51808  36.411008 30.28704  36 27.53632  L 36 5.13631999999999  Z M 63 6  L 41 6  L 41 28  L 63 28  L 63 6  Z M 1 42.47264  C 0.150144000000001 39.72192  2.31743999999999 37.49088  4.98956799999999 37  L 26.749568 37  C 29.421696 37.49088  31.588992 39.72192  32 42.47264  L 32 64.87264  C 31.588992 67.62336  29.421696 69.8544  26.749568 69  L 4.98956799999999 69  C 2.31743999999999 69.8544  0.150144000000001 67.62336  1 64.87264  L 1 42.47264  Z M 27 42  L 5 42  L 5 64  L 27 64  L 27 42  Z " fill-rule="nonzero" fill="#323233" stroke="none" transform="matrix(1 0 0 1 230 271 )" />
  </g>
</svg>