<?xml version="1.0" encoding="utf-8"?>
<svg version="1.1" xmlns:xlink="http://www.w3.org/1999/xlink" width="12px" height="13px" xmlns="http://www.w3.org/2000/svg">
  <g transform="matrix(1 0 0 1 -21 -3805 )">
    <path d="M 11.392125 5.21932164634148  L 7.22212500000001 0.638687754065074  C 6.88087499999999 0.227896341463406  6.51900000000001 0.0875254065040849  6.09525 0.0875254065040849  C 5.7165 0.0875254065040849  5.34899999999999 0.174225101626064  4.968375 0.640752032520311  L 0.693374999999994 5.24822154471548  C 0.307124999999998 5.67552718495938  0.0315000000000028 6.1895325203252  0.0315000000000028 6.790237550813  L 0.0315000000000028 12.1676829268293  C 0.0315000000000028 12.5846671747968  0.280875000000002 12.9211445630082  0.659624999999992 12.9211445630082  C 1.03837500000001 12.9211445630082  1.28774999999999 12.5846671747968  1.28774999999999 12.1676829268293  L 1.28774999999999 6.790237550813  C 1.28774999999999 6.5900025406504  1.479 6.40008892276421  1.6065 6.25971798780489  L 5.875875 1.60064151422762  C 5.932125 1.53664888211381  6.02962499999999 1.52839176829269  6.063375 1.52839176829269  C 6.09712500000001 1.52839176829269  6.17962500000001 1.53664888211381  6.23775000000001 1.60064151422762  L 10.4715 6.23081808943084  C 10.600875 6.37325330284551  10.70025 6.5631669207317  10.70025 6.7634019308943  L 10.70025 12.1676829268293  C 10.70025 12.5846671747968  10.949625 12.9211445630082  11.328375 12.9211445630082  C 11.707125 12.9211445630082  11.9565 12.5846671747968  11.9565 12.1676829268293  L 11.9565 6.7654662093496  C 11.9565 6.1626969004065  11.778375 5.64662728658539  11.392125 5.21932164634148  Z " fill-rule="nonzero" fill="#07c160" stroke="none" transform="matrix(1 0 0 1 21 3805 )" />
  </g>
</svg>