<?xml version="1.0" encoding="utf-8"?>
<svg version="1.1" xmlns:xlink="http://www.w3.org/1999/xlink" width="19px" height="18px" xmlns="http://www.w3.org/2000/svg">
  <g transform="matrix(1 0 0 1 -374 -3800 )">
    <path d="M 18.6101725177755 5.40445657694261  C 18.6529170898933 3.58325926866434  18.117592210513 2.09844781615033  17.0632260982732 1.11071609954291  C 16.304001079228 0.401520441848675  15.304592273997 0.0501364906043591  14.2522616175724 0.120841797866944  C 13.0900163471305 0.200117445403748  11.9399838115795 0.793613509395641  10.9283622714575 1.83705243778564  C 10.6372920898933 2.13701434738442  10.6332211782631 2.62766632808535  10.9181849923819 2.9340559928898  C 11.2031488065007 3.24044565769424  11.6692681881666 3.24473082783135  11.9603383697309 2.94476891823263  C 13.552064817166 1.30354875571356  15.1783940134586 1.42353351955308  16.0821363953784 2.26771203656682  C 17.5904091543931 3.67753301168108  17.4764236287455 6.80356462671409  15.7971725812595 10.0474384205181  L 15.7869953021839 10.0667216861351  C 15.2964504507365 11.0823070086338  14.4619135665313 12.1750253936008  13.3057746635348 13.3148806500762  C 12.310436769934 14.2961846114779  11.0810214575927 15.2989144235653  9.75186881030979 16.2137982478416  C 9.50557865667852 16.383062468258  9.1880475495175 16.383062468258  8.94175739588623 16.2137982478416  C 7.61260474860337 15.2967718384967  6.38318943626205 14.2940420264093  5.38785154266119 13.3148806500762  C 4.23171263966482 12.1750253936008  3.3951402996445 11.0823070086338  2.90663090401221 10.0667216861351  L 2.89645362493647 10.0474384205181  C 1.22127348908081 6.80999238191976  1.10932341924835 3.68181818181819  2.61352526663276 2.26556945149821  C 3.09592829481971 1.81134141696293  3.78594781615036 1.57565705942102  4.50242826307766 1.62065134586084  C 5.36953244032505 1.67421597257493  6.22849479431182 2.11558849669882  6.987719813357 2.89977463179281  C 7.27878999492127 3.19973654139159  7.7449093765871 3.19545137125448  8.02987319070589 2.88906170644998  C 8.31483700482478 2.58267204164548  8.31076609319447 2.09202006094466  8.01969591163031 1.79205815134588  C 7.00196800406294 0.74219146775016  5.81529726383956 0.148695403758268  4.58791740731337 0.0715623412899618  C 3.48266489969522 0.00299961909598778  2.40387331767399 0.38223717623157  1.63040010792282 1.10857351447436  C 0.578069451498186 2.09844781615033  0.0447800279330067 3.58540185373283  0.0854891442357058 5.40659916201116  C 0.122127348908043 7.07995810055866  0.645239493397642 8.93757935500253  1.5957973590655 10.7802025139665  C 3.0022973273235 13.6855478669376  6.29362938039615 16.24593702387  8.13368143727784 17.5122047993906  C 8.50209893981715 17.7671724225495  8.92547374936516 17.8935849415948  9.34681310309798 17.8935849415948  C 9.76815245683086 17.8935849415948  10.1915272663789 17.7671724225495  10.5599447689182 17.5122047993906  C 12.3979613699848 16.2437944388014  15.6892934230573 13.6855478669376  17.0978288471305 10.7802025139665  C 18.0483867127983 8.93757935500253  18.5714988572879 7.07995810055866  18.6101725177755 5.40445657694261  Z " fill-rule="nonzero" fill="#07c160" stroke="none" transform="matrix(1 0 0 1 374 3800 )" />
  </g>
</svg>