<?xml version="1.0" encoding="utf-8"?>
<svg version="1.1" xmlns:xlink="http://www.w3.org/1999/xlink" width="17px" height="18px" xmlns="http://www.w3.org/2000/svg">
  <g transform="matrix(1 0 0 1 -108 -3800 )">
    <path d="M 15.752608 4.200768  C 15.752608 2.608704  14.536224 1.320768  13.032608 1.320768  C 11.531168 1.320768  10.312608 2.611008  10.312608 4.200768  C 10.312608 5.790528  11.531168 7.080768  13.032608 7.080768  C 14.534048 7.080768  15.752608 5.790528  15.752608 4.200768  Z M 9.102752 4.200768  C 9.102752 1.901376  10.863136 0.0397440000000003  13.032608 0.0397440000000003  C 15.20208 0.0397440000000003  16.962464 1.901376  16.962464 4.200768  C 16.962464 6.50016  15.204256 8.361792  13.032608 8.361792  C 10.86096 8.361792  9.102752 6.50016  9.102752 4.200768  Z M 6.687392 1.320768  L 1.247392 1.320768  L 1.247392 7.080768  L 6.687392 7.080768  L 6.687392 1.320768  Z M 0.0375360000000003 1.320768  C 0.0375360000000003 0.613439999999998  0.579360000000003 0.0397440000000003  1.247392 0.0397440000000003  L 6.687392 0.0397440000000003  C 7.355424 0.0397440000000003  7.897248 0.613439999999998  7.897248 1.320768  L 7.897248 7.080768  C 7.897248 7.788096  7.355424 8.361792  6.687392 8.361792  L 1.247392 8.361792  C 0.579360000000003 8.361792  0.0375360000000003 7.788096  0.0375360000000003 7.080768  L 0.0375360000000003 1.320768  Z M 6.687392 10.919232  L 1.247392 10.919232  L 1.247392 16.679232  L 6.687392 16.679232  L 6.687392 10.919232  Z M 0.0375360000000003 10.921536  C 0.0375360000000003 10.214208  0.579360000000003 9.640512  1.247392 9.640512  L 6.687392 9.640512  C 7.355424 9.640512  7.897248 10.214208  7.897248 10.921536  L 7.897248 16.681536  C 7.897248 17.388864  7.355424 17.96256  6.687392 17.96256  L 1.247392 17.96256  C 0.579360000000003 17.96256  0.0375360000000003 17.388864  0.0375360000000003 16.681536  L 0.0375360000000003 10.921536  Z M 15.752608 10.919232  L 10.312608 10.919232  L 10.312608 16.679232  L 15.752608 16.679232  L 15.752608 10.919232  Z M 9.102752 10.921536  C 9.104928 10.214208  9.64675200000001 9.640512  10.312608 9.640512  L 15.752608 9.640512  C 16.42064 9.640512  16.962464 10.214208  16.962464 10.921536  L 16.962464 16.681536  C 16.962464 17.388864  16.42064 17.96256  15.752608 17.96256  L 10.312608 17.96256  C 9.64457600000001 17.96256  9.102752 17.388864  9.102752 16.681536  L 9.102752 10.921536  Z " fill-rule="nonzero" fill="#323233" stroke="none" transform="matrix(1 0 0 1 108 3800 )" />
  </g>
</svg>