<?xml version="1.0" encoding="utf-8"?>
<svg version="1.1" xmlns:xlink="http://www.w3.org/1999/xlink" width="12px" height="13px" xmlns="http://www.w3.org/2000/svg">
  <g transform="matrix(1 0 0 1 -198 -3804 )">
    <path d="M 11.2044631578947 12.9731443037975  C 11.2287157894737 12.9731443037975  11.2529684210526 12.9731443037975  11.2752 12.9710379746835  L 11.2044631578947 12.9731443037975  Z M 11.2044631578947 12.9731443037975  L 11.2752 12.9710379746835  C 11.2509473684211 12.9731443037975  11.2287157894737 12.9731443037975  11.2044631578947 12.9731443037975  Z M 10.7901473684211 6.00962025316455  L 11.9118315789474 5.95274936708861  L 11.6955789473684 1.19876455696202  C 11.6592 0.581610126582276  11.1680842105263 0.101367088607595  10.5759157894737 0.101367088607595  L 1.87730526315789 0.101367088607595  C 1.28513684210526 0.101367088607595  0.79402105263158 0.581610126582276  0.757642105263159 1.19876455696202  L 0.125052631578947 11.7304101265823  C 0.123031578947368 11.7556860759494  0.123031578947368 11.7788556962025  0.123031578947368 11.8041316455696  C 0.123031578947368 12.4507746835443  0.626273684210527 12.9752506329114  1.24673684210526 12.9752506329114  L 6.86122105263158 12.9752506329114  L 6.86122105263158 11.8041316455696  L 1.24471578947369 11.8041316455696  L 1.87730526315789 1.27248607594937  L 10.5738947368421 1.27248607594937  L 10.7901473684211 6.00962025316455  Z M 10.7901473684211 6.00962025316455  L 11.9118315789474 5.95274936708861  L 11.6955789473684 1.19876455696202  C 11.6592 0.581610126582276  11.1680842105263 0.101367088607595  10.5759157894737 0.101367088607595  L 1.87730526315789 0.101367088607595  C 1.28513684210526 0.101367088607595  0.79402105263158 0.581610126582276  0.757642105263159 1.19876455696202  L 0.125052631578947 11.7304101265823  C 0.123031578947368 11.7556860759494  0.123031578947368 11.7788556962025  0.123031578947368 11.8041316455696  C 0.123031578947368 12.4507746835443  0.626273684210527 12.9752506329114  1.24673684210526 12.9752506329114  L 6.86122105263158 12.9752506329114  L 6.86122105263158 11.8041316455696  L 1.24471578947369 11.8041316455696  L 1.87730526315789 1.27248607594937  L 10.5738947368421 1.27248607594937  L 10.7901473684211 6.00962025316455  Z " fill-rule="nonzero" fill="#333333" stroke="none" transform="matrix(1 0 0 1 198 3804 )" />
  </g>
</svg>