<?xml version="1.0" encoding="utf-8"?>
<svg version="1.1" xmlns:xlink="http://www.w3.org/1999/xlink" width="18px" height="9px" xmlns="http://www.w3.org/2000/svg">
  <g transform="matrix(1 0 0 1 -18 -750 )">
    <path d="M 17.6950535220995 8.73671025815219  C 17.972807320442 8.46157438858694  17.972807320442 7.98772927989131  17.6950535220995 7.714504076087  L 10.5045321132597 0.669879415760875  C 10.1024689226519 0.274371603260875  9.56832700276244 0.0871263586956275  9.00116540055248 0.0871263586956275  L 8.99922306629834 0.0871263586956275  C 8.43011912983426 0.0871263586956275  7.89597720994476 0.278192934782624  7.49391401933701 0.673700747282624  L 0.299507941988959 7.771824048913  C 0.02369647790055 8.04504925271738  0.02369647790055 8.47877038043475  0.301450276243091 8.75008491847825  C 0.439356008287295 8.8857421875  0.619993093922645 8.94879415760869  0.800630179558009 8.94879415760869  C 0.983209599447518 8.94879415760869  1.16384668508287 8.8780995244565  1.30369475138122 8.74244225543475  L 8.49810082872929 1.76278023097825  C 8.80693197513811 1.458984375  9.29445787292817 1.55642832880437  9.50228763812155 1.76086956521738  L 16.6928090469613 8.769191576087  C 16.9705628453039 9.04241677989131  17.4192420580111 9.00802479619563  17.6950535220995 8.73671025815219  Z " fill-rule="nonzero" fill="#07c160" stroke="none" transform="matrix(1 0 0 1 18 750 )" />
  </g>
</svg>