<?xml version="1.0" encoding="utf-8"?>
<svg version="1.1" xmlns:xlink="http://www.w3.org/1999/xlink" width="17px" height="14px" xmlns="http://www.w3.org/2000/svg">
  <g transform="matrix(1 0 0 1 -285 -750 )">
    <path d="M 15.4208470066519 4  L 3.76793126385809 4  L 4.5550199556541 12.1546078431373  C 4.58534478935698 12.4754411764706  4.80907760532151 12.7176503267974  5.07514079822616 12.7176503267974  L 14.2898381374723 12.7176503267974  C 14.5431984478936 12.7176503267974  14.7601840354767 12.4974705882353  14.8050964523282 12.1948235294118  L 15.9361053215078 4.57116013071896  C 15.9873314855876 4.22575816993464  15.7981829268293 3.89533986928105  15.5136308203991 3.83316339869281  C 15.4830107371155 3.8264685762469  15.4519599144532 3.82310012565694  15.4208470066519 4  Z M 3.56675831485588 1.6936568627451  L 3.64787583148559 2.5522091503268  L 15.4208470066519 2.5522091503268  C 15.514177383592 2.5522091503268  15.6073381374723 2.56232026143791  15.6991796008869 2.58240522875817  C 16.5528736141907 2.76898039215686  17.120300443459 3.76021241830065  16.9665842572062 4.79637254901961  L 15.8355753880266 12.4200588235294  C 15.7008758314856 13.327977124183  15.0499002217295 13.9885392156863  14.2898381374723 13.9885392156863  L 5.07515964523282 13.9885392156863  C 4.27697006651885 13.9885392156863  3.60571507760532 13.2618888888889  3.51477827050998 12.2993888888889  L 2.52651662971175 1.83843790849673  C 2.49621064301552 1.5176045751634  2.27245898004435 1.2753954248366  2.00639578713969 1.2753954248366  L 0.53819512195122 1.2753954248366  C 0.249044345898004 1.2753954248366  0.0146629711751663 0.990888888888889  0.0146629711751663 0.639950980392157  C 0.0146629711751663 0.289013071895425  0.249044345898004 0.00450653594771248  0.53819512195122 0.00450653594771248  L 2.00639578713969 0.00450653594771248  C 2.80458536585366 0.00450653594771248  3.47584035476718 0.731156862745098  3.56675831485588 1.6936568627451  Z " fill-rule="nonzero" fill="#323233" stroke="none" transform="matrix(1 0 0 1 285 750 )" />
  </g>
</svg>