<?xml version="1.0" encoding="utf-8"?>
<svg version="1.1" xmlns:xlink="http://www.w3.org/1999/xlink" width="46px" height="16px" xmlns="http://www.w3.org/2000/svg">
  <g transform="matrix(1 0 0 1 -116 -652 )">
    <path d="M 0.980522866041665 0.767132704000005  C 1.29286854416667 0.592825611000023  1.60268452416667 0.5  2.45705665 0.5  L 43.54294335 0.5  C 44.3973154854167 0.5  44.707131475 0.592825611000023  45.0194771291667 0.767132704000005  C 45.33182283125 0.941439796499992  45.576953525 1.19722837  45.7439978291667 1.52315429499998  C 45.9110421333333 1.84908022000002  46 2.17236645999998  46 3.06388520000002  L 46 12.9361148  C 46 13.82763355  45.9110421333333 14.1509198  45.7439978291667 14.4768457  C 45.576953525 14.80277165  45.33182283125 15.0585602  45.0194771291667 15.2328673  C 44.707131475 15.4071744  44.3973154854167 15.5  43.54294335 15.5  L 2.45705665 15.5  C 1.60268452416667 15.5  1.29286854416667 15.4071744  0.980522866041665 15.2328673  C 0.668177187916671 15.0585602  0.423046471645839 14.80277165  0.256002174666672 14.4768457  C 0.0889578772083285 14.1509198  0 13.82763355  0 12.9361148  L 0 3.06388520000002  C 0 2.17236645999998  0.0889578772083285 1.84908022000002  0.256002174666672 1.52315429499998  C 0.423046471645839 1.19722837  0.668177187916671 0.941439796499992  0.980522866041665 0.767132704000005  Z " fill-rule="nonzero" fill="#ffece3" stroke="none" transform="matrix(1 0 0 1 116 652 )" />
  </g>
</svg>