<?xml version="1.0" encoding="utf-8"?>
<svg version="1.1" xmlns:xlink="http://www.w3.org/1999/xlink" width="54px" height="16px" xmlns="http://www.w3.org/2000/svg">
  <g transform="matrix(1 0 0 1 -116 -316 )">
    <path d="M 1.151048581875 0.767132704000005  C 1.51771524750001 0.592825611000023  1.88141226750001 0.5  2.88437085 0.5  L 51.11562915 0.5  C 52.11858774375 0.5  52.482284775 0.592825611000023  52.8489514125 0.767132704000005  C 53.21561810625 0.941439796499992  53.503380225 1.19722837  53.6994757125 1.52315429499998  C 53.8955712 1.84908022000002  54 2.17236645999998  54 3.06388520000002  L 54 12.9361148  C 54 13.82763355  53.8955712 14.1509198  53.6994757125 14.4768457  C 53.503380225 14.80277165  53.21561810625 15.0585602  52.8489514125 15.2328673  C 52.482284775 15.4071744  52.11858774375 15.5  51.11562915 15.5  L 2.88437085 15.5  C 1.88141226750001 15.5  1.51771524750001 15.4071744  1.151048581875 15.2328673  C 0.784381916250005 15.0585602  0.496619771062507 14.80277165  0.300524292000006 14.4768457  C 0.104428812374994 14.1509198  0 13.82763355  0 12.9361148  L 0 3.06388520000002  C 0 2.17236645999998  0.104428812374994 1.84908022000002  0.300524292000006 1.52315429499998  C 0.496619771062507 1.19722837  0.784381916250005 0.941439796499992  1.151048581875 0.767132704000005  Z " fill-rule="nonzero" fill="#ffece3" stroke="none" transform="matrix(1 0 0 1 116 316 )" />
  </g>
</svg>