<?xml version="1.0" encoding="utf-8"?>
<svg version="1.1" xmlns:xlink="http://www.w3.org/1999/xlink" width="58px" height="60px" xmlns="http://www.w3.org/2000/svg">
  <g transform="matrix(1 0 0 1 -192 -166 )">
    <path d="M 57.9405754385965 30  C 57.9405754385965 46.5322105263158  44.987649122807 59.9385263157895  29 59.9385263157895  C 13.012350877193 59.9385263157895  0.0594245614035084 46.5322105263158  0.0594245614035084 30  C 0.0594245614035084 13.4677894736842  13.012350877193 0.0614736842105259  29 0.0614736842105259  C 44.987649122807 0.0614736842105259  57.9405754385965 13.4677894736842  57.9405754385965 30  Z M 14.7641543859649 28.7873684210526  C 14.4059789473684 29.2252631578947  14.471101754386 29.8315789473684  14.8748631578947 30.2223157894737  L 23.8357614035088 38.8656842105263  C 24.493501754386 39.4989473684211  25.5419789473684 39.5258947368421  26.1866947368421 38.9128421052632  L 46.7459649122807 19.0863157894737  C 47.1757754385965 18.6686315789474  47.2083368421052 18.0421052631579  46.7980631578948 17.6446315789474  L 46.3291789473684 17.1865263157895  C 45.9514666666667 16.8227368421053  45.2741894736842 16.7957894736842  44.8443789473684 17.1326315789474  L 25.685249122807 32.1423157894737  C 25.3270736842105 32.4252631578947  24.6693333333333 32.4522105263158  24.2851087719298 32.2096842105263  L 17.0369403508772 27.5343157894737  C 16.5810807017544 27.2446315789474  15.9428771929825 27.3456842105263  15.5977263157895 27.7633684210526  L 14.7641543859649 28.7873684210526  Z " fill-rule="nonzero" fill="#95f204" stroke="none" transform="matrix(1 0 0 1 192 166 )" />
  </g>
</svg>