<?xml version="1.0" encoding="utf-8"?>
<svg version="1.1" xmlns:xlink="http://www.w3.org/1999/xlink" width="50px" height="16px" xmlns="http://www.w3.org/2000/svg">
  <g transform="matrix(1 0 0 1 -179 -311 )">
    <path d="M 1.06578572395833 0.767132704000005  C 1.40529189583334 0.592825611000023  1.74204839583334 0.5  2.67071375 0.5  L 47.32928625 0.5  C 48.2579516145833 0.5  48.594708125 0.592825611000023  48.9342142708334 0.767132704000005  C 49.27372046875 0.941439796499992  49.540166875 1.19722837  49.7217367708333 1.52315429499998  C 49.9033066666667 1.84908022000002  50 2.17236645999998  50 3.06388520000002  L 50 12.9361148  C 50 13.82763355  49.9033066666667 14.1509198  49.7217367708333 14.4768457  C 49.540166875 14.80277165  49.27372046875 15.0585602  48.9342142708334 15.2328673  C 48.594708125 15.4071744  48.2579516145833 15.5  47.32928625 15.5  L 2.67071375 15.5  C 1.74204839583334 15.5  1.40529189583334 15.4071744  1.06578572395833 15.2328673  C 0.726279552083338 15.0585602  0.459833121354173 14.80277165  0.278263233333339 14.4768457  C 0.0966933447916614 14.1509198  0 13.82763355  0 12.9361148  L 0 3.06388520000002  C 0 2.17236645999998  0.0966933447916614 1.84908022000002  0.278263233333339 1.52315429499998  C 0.459833121354173 1.19722837  0.726279552083338 0.941439796499992  1.06578572395833 0.767132704000005  Z " fill-rule="nonzero" fill="#ffece3" stroke="none" transform="matrix(1 0 0 1 179 311 )" />
  </g>
</svg>