<?xml version="1.0" encoding="utf-8"?>
<svg version="1.1" xmlns:xlink="http://www.w3.org/1999/xlink" width="49px" height="16px" xmlns="http://www.w3.org/2000/svg">
  <g transform="matrix(1 0 0 1 -274 -351 )">
    <path d="M 1.04447000947916 0.767132704000005  C 1.37718605791667 0.592825611000023  1.70720742791667 0.5  2.617299475 0.5  L 46.382700525 0.5  C 47.2927925822917 0.5  47.6228139625 0.592825611000023  47.9555299854167 0.767132704000005  C 48.288246059375 0.941439796499992  48.5493635375 1.19722837  48.7273020354167 1.52315429499998  C 48.9052405333333 1.84908022000002  49 2.17236645999998  49 3.06388520000002  L 49 12.9361148  C 49 13.82763355  48.9052405333333 14.1509198  48.7273020354167 14.4768457  C 48.5493635375 14.80277165  48.288246059375 15.0585602  47.9555299854167 15.2328673  C 47.6228139625 15.4071744  47.2927925822917 15.5  46.382700525 15.5  L 2.617299475 15.5  C 1.70720742791667 15.5  1.37718605791667 15.4071744  1.04447000947916 15.2328673  C 0.711753961041672 15.0585602  0.45063645892709 14.80277165  0.272697968666672 14.4768457  C 0.0947594778958282 14.1509198  0 13.82763355  0 12.9361148  L 0 3.06388520000002  C 0 2.17236645999998  0.0947594778958282 1.84908022000002  0.272697968666672 1.52315429499998  C 0.45063645892709 1.19722837  0.711753961041672 0.941439796499992  1.04447000947916 0.767132704000005  Z " fill-rule="nonzero" fill="#ffece3" stroke="none" transform="matrix(1 0 0 1 274 351 )" />
  </g>
</svg>