<?xml version="1.0" encoding="utf-8"?>
<svg version="1.1" xmlns:xlink="http://www.w3.org/1999/xlink" width="51px" height="16px" xmlns="http://www.w3.org/2000/svg">
  <g transform="matrix(1 0 0 1 -290 -311 )">
    <path d="M 1.0871014384375 0.767132704000005  C 1.43339773375001 0.592825611000023  1.77688936375001 0.5  2.724128025 0.5  L 48.275871975 0.5  C 49.223110646875 0.5  49.5666022875 0.592825611000023  49.91289855625 0.767132704000005  C 50.259194878125 0.941439796499992  50.5309702125 1.19722837  50.71617150625 1.52315429499998  C 50.9013728 1.84908022000002  51 2.17236645999998  51 3.06388520000002  L 51 12.9361148  C 51 13.82763355  50.9013728 14.1509198  50.71617150625 14.4768457  C 50.5309702125 14.80277165  50.259194878125 15.0585602  49.91289855625 15.2328673  C 49.5666022875 15.4071744  49.223110646875 15.5  48.275871975 15.5  L 2.724128025 15.5  C 1.77688936375001 15.5  1.43339773375001 15.4071744  1.0871014384375 15.2328673  C 0.740805143125005 15.0585602  0.469029783781257 14.80277165  0.283828498000005 14.4768457  C 0.0986272116874947 14.1509198  0 13.82763355  0 12.9361148  L 0 3.06388520000002  C 0 2.17236645999998  0.0986272116874947 1.84908022000002  0.283828498000005 1.52315429499998  C 0.469029783781257 1.19722837  0.740805143125005 0.941439796499992  1.0871014384375 0.767132704000005  Z " fill-rule="nonzero" fill="#ffece3" stroke="none" transform="matrix(1 0 0 1 290 311 )" />
  </g>
</svg>