<?xml version="1.0" encoding="utf-8"?>
<svg version="1.1" xmlns:xlink="http://www.w3.org/1999/xlink" width="48px" height="16px" xmlns="http://www.w3.org/2000/svg">
  <g transform="matrix(1 0 0 1 -166 -1424 )">
    <path d="M 1.023154295 0.767132704000005  C 1.34908022 0.592825611000023  1.67236646000001 0.5  2.5638852 0.5  L 45.4361148 0.5  C 46.32763355 0.5  46.6509198 0.592825611000023  46.9768457 0.767132704000005  C 47.30277165 0.941439796499992  47.5585602 1.19722837  47.7328673 1.52315429499998  C 47.9071744 1.84908022000002  48 2.17236645999998  48 3.06388520000002  L 48 12.9361148  C 48 13.82763355  47.9071744 14.1509198  47.7328673 14.4768457  C 47.5585602 14.80277165  47.30277165 15.0585602  46.9768457 15.2328673  C 46.6509198 15.4071744  46.32763355 15.5  45.4361148 15.5  L 2.5638852 15.5  C 1.67236646000001 15.5  1.34908022 15.4071744  1.023154295 15.2328673  C 0.697228370000005 15.0585602  0.441439796500006 14.80277165  0.267132704000005 14.4768457  C 0.092825610999995 14.1509198  0 13.82763355  0 12.9361148  L 0 3.06388520000002  C 0 2.17236645999998  0.092825610999995 1.84908022000002  0.267132704000005 1.52315429499998  C 0.441439796500006 1.19722837  0.697228370000005 0.941439796499992  1.023154295 0.767132704000005  Z " fill-rule="nonzero" fill="#ffece3" stroke="none" transform="matrix(1 0 0 1 166 1424 )" />
  </g>
</svg>