<?xml version="1.0" encoding="utf-8"?>
<svg version="1.1" xmlns:xlink="http://www.w3.org/1999/xlink" width="15px" height="20px" xmlns="http://www.w3.org/2000/svg">
  <g transform="matrix(1 0 0 1 -369 -132 )">
    <path d="M 8.10654545454545 17.4633906633907  L 8.10654545454545 9.96972972972972  L 13.5545454545455 1.43351351351351  L 1.44545454545455 1.43351351351351  L 6.89345454545455 9.96972972972972  L 6.89345454545455 16.6779361179361  L 8.10654545454545 17.4633906633907  Z M 5.68036363636364 17.4185749385749  L 5.68254545454545 10.3777886977887  L 0.184363636363635 1.76609336609337  C 0.073090909090908 1.59154791154791  0.0120000000000005 1.38398034398034  0.0120000000000005 1.17169533169533  C 0.0120000000000005 0.593808353808352  0.44618181818182 0.124422604422605  0.980727272727272 0.124422604422605  L 14.0127272727273 0.124422604422605  C 14.2090909090909 0.124422604422605  14.4010909090909 0.188108108108108  14.5625454545455 0.310761670761669  C 15.0032727272727 0.638624078624077  15.1145454545455 1.29199017199017  14.8090909090909 1.76845208845209  L 9.31745454545455 10.3777886977887  L 9.31745454545455 19.7772972972973  L 5.68036363636364 17.4185749385749  Z " fill-rule="nonzero" fill="#323233" stroke="none" transform="matrix(1 0 0 1 369 132 )" />
  </g>
</svg>