<?xml version="1.0" encoding="utf-8"?>
<svg version="1.1" xmlns:xlink="http://www.w3.org/1999/xlink" width="17px" height="18px" xmlns="http://www.w3.org/2000/svg">
  <g transform="matrix(1 0 0 1 -169 -849 )">
    <path d="M 16.7412053571429 17.6633035714286  C 17.0049330357143 17.3880803571428  17.0049330357143 16.9400892857143  16.7431026785714 16.6628571428571  L 12.9313839285714 12.6369642857143  C 13.3905357142857 12.0563839285714  13.7624107142857 11.4095089285714  14.0432142857143 10.7083928571428  C 14.4226785714286 9.76017857142858  14.6143080357143 8.75169642857145  14.6143080357143 7.71508928571427  C 14.6143080357143 6.67848214285715  14.4226785714286 5.67000000000002  14.0432142857143 4.72178571428572  C 13.67703125 3.80571428571426  13.1552678571429 2.98406249999999  12.4874107142857 2.27691964285714  C 11.8214508928571 1.56977678571428  11.0454464285714 1.01531249999999  10.1802678571429 0.629598214285693  C 9.28473214285714 0.227812500000027  8.33417410714284 0.0249107142857383  7.35515625000003 0.0249107142857383  C 6.37613839285714 0.0249107142857383  5.42368303571429 0.223794642857115  4.52814732142856 0.625580357142837  C 3.66296874999999 1.01330357142859  2.88696428571429 1.56776785714288  2.22100446428572 2.27290178571428  C 1.55504464285713 2.98004464285714  1.03138392857141 3.8016964285714  0.665200892857137 4.71776785714286  C 0.285736607142871 5.66598214285716  0.0941071428571263 6.67446428571429  0.0941071428571263 7.71107142857142  C 0.0941071428571263 8.74767857142859  0.285736607142871 9.75616071428573  0.665200892857137 10.704375  C 1.03138392857141 11.6204464285714  1.55314732142858 12.4420982142857  2.22100446428572 13.1492410714286  C 2.88696428571429 13.8563839285714  3.66296874999999 14.4108482142857  4.52814732142856 14.7965625  C 5.42368303571429 15.1983482142857  6.37424107142857 15.40125  7.35325892857143 15.40125  C 8.33227678571429 15.40125  9.28283482142857 15.1983482142857  10.1783705357143 14.7965625  C 10.8329464285714 14.5032589285714  11.4381919642857 14.1135267857143  11.9827232142857 13.6333928571428  L 15.7963392857143 17.6633035714286  C 15.9272544642857 17.8019196428571  16.0980133928571 17.8702232142857  16.2687723214286 17.8702232142857  C 16.43953125 17.8702232142857  16.6121875 17.8019196428571  16.7412053571429 17.6633035714286  Z M 11.5178794642857 12.1769196428571  C 10.4022544642857 13.3441071428571  8.92424107142858 13.9889732142857  7.35515625000003 13.9889732142857  C 5.77279017857145 13.9889732142857  4.28718750000001 13.3360714285714  3.16776785714283 12.1508035714286  C 2.04834821428571 10.9655357142857  1.4336160714286 9.38852678571425  1.4336160714286 7.71308035714287  C 1.4336160714286 6.03562499999998  2.05024553571426 4.46062499999999  3.16776785714283 3.27535714285716  C 4.28529017857141 2.09008928571427  5.77279017857145 1.43718749999999  7.35515625000003 1.43718749999999  C 8.9375223214286 1.43718749999999  10.423125 2.09008928571427  11.5425446428571 3.27535714285716  C 12.6619642857143 4.46062499999999  13.2766964285715 6.03763392857144  13.2766964285715 7.71308035714287  C 13.2766964285715 9.38249999999999  12.6657589285714 10.9514732142857  11.5558258928571 12.1367410714286  C 11.5482366071429 12.1447767857143  11.5406473214286 12.1508035714286  11.5330580357143 12.1588392857143  C 11.5273660714285 12.1648660714286  11.5216741071428 12.1708928571429  11.5178794642857 12.1769196428571  Z " fill-rule="nonzero" fill="#000000" stroke="none" transform="matrix(1 0 0 1 169 849 )" />
  </g>
</svg>