<?xml version="1.0" encoding="utf-8"?>
<svg version="1.1" xmlns:xlink="http://www.w3.org/1999/xlink" width="27px" height="25px" xmlns="http://www.w3.org/2000/svg">
  <g transform="matrix(1 0 0 1 -130 -165 )">
    <path d="M 3.38085314685314 12.3584615384615  L 10.6614125874126 20.1984615384615  L 13.4648811188811 23.2415384615385  L 23.5307832167832 12.3738461538462  C 25.8388111888112 9.88153846153846  25.7844335664336 5.97076923076923  23.4039020979021 3.54923076923077  C 21.0626433566433 1.16461538461538  17.2682937062937 1.16461538461538  14.9300559440559 3.54923076923077  L 13.4497762237762 5.05692307692308  L 11.9694965034965 3.54923076923077  C 9.63125874125874 1.1676923076923  5.83993006993007 1.1676923076923  3.50169230769231 3.54923076923077  C 1.1272027972028 5.96769230769231  1.07282517482517 9.87538461538461  3.38085314685314 12.3584615384615  Z M 2.3084055944056 2.34  C 5.30521678321678 -0.712307692307691  10.1599300699301 -0.712307692307691  13.1537202797203 2.33692307692307  L 13.4497762237762 2.63846153846154  L 13.7458321678322 2.33692307692307  C 16.7426433566433 -0.715384615384617  21.5973566433566 -0.715384615384617  24.5941678321678 2.33692307692307  C 27.6151468531468 5.41384615384615  27.6846293706294 10.38  24.7542797202797 13.5430769230769  L 14.6853566433566 24.4138461538462  L 14.6128531468532 24.4876923076923  C 13.9361538461538 25.1338461538462  12.8757902097902 25.1  12.2413846153846 24.4107692307692  L 9.44395804195804 21.3738461538462  L 2.15735664335664 13.5338461538462  C -0.776013986013985 10.3769230769231  -0.70955244755245 5.41384615384615  2.3084055944056 2.34  Z " fill-rule="nonzero" fill="#323233" stroke="none" transform="matrix(1 0 0 1 130 165 )" />
  </g>
</svg>