<?xml version="1.0" encoding="utf-8"?>
<svg version="1.1" xmlns:xlink="http://www.w3.org/1999/xlink" width="30px" height="26px" xmlns="http://www.w3.org/2000/svg">
  <g transform="matrix(1 0 0 1 -41 -91 )">
    <path d="M 26.00625 4.13636363636363  L 25.99875 4.13636363636363  C 27.10125 4.13636363636363  28.0462500000001 4.52045454545456  28.82625 5.29232954545454  C 29.6099999999999 6.06420454545454  30 6.98750000000002  30 8.07698863636365  L 30 21.8636363636364  C 30 22.9494318181818  29.6099999999999 23.8801136363636  28.82625 24.6482954545455  C 28.0425 25.4201704545455  27.105 25.8042613636364  25.99875 25.8042613636364  L 4.00125000000003 25.8042613636364  C 2.89875000000001 25.8042613636364  1.95374999999994 25.4201704545455  1.17375 24.6482954545455  C 0.393750000000005 23.8764204545454  0 22.953125  0 21.8636363636364  L 0 8.07329545454544  C 0 6.98750000000002  0.390000000000062 6.05681818181818  1.17375 5.28863636363636  C 1.95750000000001 4.52045454545456  2.89500000000001 4.13267045454542  4.00125000000003 4.13267045454542  L 7.50375000000001 4.13267045454542  L 8.29874999999996 2.04232954545454  C 8.49375000000003 1.54005681818183  8.86124999999999 1.10426136363638  9.38625000000002 0.742329545454579  C 9.91125000000005 0.38039772727272  10.45125 0.195738636363643  11.0025 0.195738636363643  L 19.00125 0.195738636363643  C 19.55625 0.195738636363643  20.0925 0.376704545454542  20.6175 0.742329545454579  C 21.1425 1.10426136363638  21.50625 1.54005681818183  21.705 2.04232954545454  L 22.5 4.13267045454542  L 26.00625 4.13267045454542  L 26.00625 4.13636363636363  Z M 8.00249999999999 14.9684659090909  C 8.00249999999999 16.8630681818182  8.68500000000002 18.4880681818182  10.0575 19.8360795454545  C 11.42625 21.1840909090909  13.07625 21.8599431818182  15 21.8599431818182  C 16.9275 21.8599431818182  18.57375 21.1840909090909  19.9425 19.8360795454545  C 21.31125 18.4880681818182  21.9975 16.8630681818182  21.9975 14.9684659090909  C 21.9975 13.0701704545455  21.31125 11.4488636363636  19.9425 10.1008522727273  C 18.57375 8.75284090909089  16.92375 8.07698863636365  15 8.07698863636365  C 13.07625 8.07698863636365  11.42625 8.75284090909089  10.0575 10.1008522727273  C 8.68875000000003 11.4488636363636  8.00249999999999 13.0738636363636  8.00249999999999 14.9684659090909  Z M 10.50375 14.9647727272727  C 10.50375 13.7460227272727  10.9424999999999 12.7045454545454  11.82375 11.8366477272727  C 12.705 10.96875  13.7625 10.5366477272727  15 10.5366477272727  C 16.2375 10.5366477272727  17.29875 10.96875  18.17625 11.8366477272727  C 19.0575000000001 12.7045454545454  19.49625 13.7460227272727  19.49625 14.9647727272727  C 19.49625 16.1835227272727  19.0575000000001 17.2286931818182  18.17625 18.0928977272727  C 17.295 18.9607954545455  16.2375 19.3928977272728  15 19.3928977272728  C 13.7625 19.3928977272728  12.70125 18.9607954545455  11.82375 18.0928977272727  C 10.9424999999999 17.225  10.50375 16.1835227272727  10.50375 14.9647727272727  Z " fill-rule="nonzero" fill="#ffffff" stroke="none" transform="matrix(1 0 0 1 41 91 )" />
  </g>
</svg>