<?xml version="1.0" encoding="utf-8"?>
<svg version="1.1" xmlns:xlink="http://www.w3.org/1999/xlink" width="10px" height="18px" xmlns="http://www.w3.org/2000/svg">
  <g transform="matrix(1 0 0 1 -28 -15 )">
    <path d="M 0.34459259259262 9.69590204081631  C 0.214222222222248 9.56659591836736  0.121777777777766 9.4020244897959  0.0814814814814903 9.22334693877551  C 0.00562962962965072 8.9036081632653  0.0933333333333053 8.55330612244899  0.34459259259262 8.30409795918369  L 8.25925925925924 0.454040816326543  C 8.64562962962964 0.0708244897959034  9.27140740740743 0.0708244897959034  9.65540740740738 0.454040816326543  C 10.0394074074074 0.837257142857151  10.0417777777778 1.45792653061223  9.65540740740738 1.8387918367347  L 2.43762962962961 9  L 9.65777777777777 16.1612081632653  C 10.0441481481482 16.5444244897959  10.0441481481482 17.165093877551  9.65777777777777 17.5459591836735  C 9.27140740740743 17.9268244897959  8.64562962962964 17.9291755102041  8.26162962962963 17.5459591836735  L 0.34459259259262 9.69590204081631  Z " fill-rule="nonzero" fill="#333333" stroke="none" fill-opacity="0.8" transform="matrix(1 0 0 1 28 15 )" />
  </g>
</svg>