<?xml version="1.0" encoding="utf-8"?>
<svg version="1.1" xmlns:xlink="http://www.w3.org/1999/xlink" width="19px" height="17px" xmlns="http://www.w3.org/2000/svg">
  <g transform="matrix(1 0 0 1 -117 -509 )">
    <path d="M 14.8722778320313 14.2673313613766  C 17.010009765625 12.6304859003744  18.602001953125 10.4613579868286  18.602001953125 8.01224334969004  C 18.602001953125 3.66783396823348  14.3416137695313 0.129540208548633  9.55960693359373 0.129540208548633  C 4.49417724609373 0.129540208548633  0.505151367187523 3.67091074541577  0.505151367187523 8.01224334969004  C 0.505151367187523 12.3628062855114  4.49417724609373 15.8949464908317  9.55960693359373 15.8949464908317  C 10.6209350585938 15.8949464908317  11.69130859375 15.6211133216038  12.7556518554687 15.3503569295583  L 15.6743041992187 16.9810488361958  L 14.8722778320313 14.2673313613766  Z M 7.964599609375 5.57543582128096  C 7.964599609375 6.2523268013947  7.42489013671877 6.80614669421493  6.758544921875 6.80614669421493  C 6.09219970703123 6.80614669421493  5.552490234375 6.25540357857699  5.552490234375 5.57543582128096  C 5.552490234375 4.89546806398505  6.09219970703123 4.34472494834711  6.758544921875 4.34472494834711  C 7.42489013671877 4.34472494834711  7.964599609375 4.89546806398505  7.964599609375 5.57543582128096  Z M 13.8230102539063 5.56620548973399  C 13.8230102539063 6.24617324703001  13.28330078125 6.79691636266784  12.6169555664063 6.79691636266784  C 11.9506103515625 6.79691636266784  11.4109008789063 6.24617324703001  11.4109008789063 5.56620548973399  C 11.4109008789063 4.88623773243808  11.9506103515625 4.33549461680002  12.6169555664063 4.33549461680002  C 13.28330078125 4.33549461680002  13.8230102539063 4.88623773243808  13.8230102539063 5.56620548973399  Z " fill-rule="nonzero" fill="#00c800" stroke="none" transform="matrix(1 0 0 1 117 509 )" />
  </g>
</svg>