<?xml version="1.0" encoding="utf-8"?>
<svg version="1.1" xmlns:xlink="http://www.w3.org/1999/xlink" width="12px" height="8px" xmlns="http://www.w3.org/2000/svg">
  <g transform="matrix(1 0 0 1 -95 -178 )">
    <path d="M 6.46393469387755 6.93327620278878  C 6.29779591836734 7.11369840243788  6.06426122448983 7.17667596269277  5.85110204081633 7.12220888355341  C 5.73198367346942 7.09157115153753  5.6238367346939 7.02689149505954  5.53763265306122 6.93327620278878  L 0.302693877551008 1.24997691384244  C 0.047216326530588 0.972535229476404  0.047216326530588 0.523181826576774  0.302693877551008 0.24744223843384  C 0.55817142857137 -0.0299994459322599  0.971951020408198 -0.0299994459322599  1.22586122448979 0.24744223843384  L 6 5.4303252377874  L 10.7725714285714 0.24744223843384  C 11.0280489795918 -0.0299994459322599  11.4418285714286 -0.0299994459322599  11.6957387755102 0.24744223843384  C 11.9496489795919 0.524883922799907  11.9512163265306 0.974237325699505  11.6957387755102 1.24997691384244  L 6.46393469387755 6.93327620278878  Z " fill-rule="nonzero" fill="#323233" stroke="none" transform="matrix(1 0 0 1 95 178 )" />
  </g>
</svg>