<?xml version="1.0" encoding="utf-8"?>
<svg version="1.1" xmlns:xlink="http://www.w3.org/1999/xlink" width="22px" height="20px" xmlns="http://www.w3.org/2000/svg">
  <g transform="matrix(1 0 0 1 -106 -501 )">
    <path d="M 21.6235630580358 7.61031249999996  C 20.7078683035714 3.27765625000006  16.1563267299107 0.0571093749999818  10.9614048549107 0.0571093749999818  C 5.15302734375001 0.0571093749999818  0.395005580357122 4.08812499999999  0.395005580357122 9.20687500000008  C 0.395005580357122 12.16234375  1.97802036830359 14.58765625  4.62336077008928 16.470625  L 3.56702008928568 19.7064062500001  L 7.25972377232142 17.820390625  C 8.58239397321432 18.08546875  9.64172712053568 18.3596875  10.9614048549107 18.3596875  C 11.2935686383929 18.3596875  11.6227399553571 18.3444531250001  11.9489188058036 18.31703125  C 11.7424386160714 17.59796875  11.6227399553571 16.8453906250001  11.6227399553571 16.0623437500001  C 11.6227399553571 11.3610156249999  15.5877580915179 7.54632812500006  20.6061244419643 7.54632812500006  C 20.9502580915179 7.54632812500006  21.2884068080357 7.57070312500002  21.6235630580358 7.61031249999996  Z M 8.84872349330357 5.97718750000001  C 8.84872349330357 6.78460937500006  8.20534319196429 7.43968749999999  7.41233956473212 7.43968749999999  C 6.61933593750001 7.43968749999999  5.97595563616068 6.78460937500006  5.97595563616068 5.97718750000001  C 5.97595563616068 5.16976562499997  6.61933593750001 4.51468750000004  7.41233956473212 4.51468750000004  C 8.20534319196429 4.51468750000004  8.84872349330357 5.16976562499997  8.84872349330357 5.97718750000001  Z M 16.2281459263393 5.97718750000001  C 16.2281459263393 6.78460937500006  15.584765625 7.43968749999999  14.7917619977679 7.43968749999999  C 13.9987583705357 7.43968749999999  13.3553780691964 6.78460937500006  13.3553780691964 5.97718750000001  C 13.3553780691964 5.16976562499997  13.9987583705357 4.51468750000004  14.7917619977679 4.51468750000004  C 15.584765625 4.51468750000004  16.2281459263393 5.16976562499997  16.2281459263393 5.97718750000001  Z " fill-rule="nonzero" fill="#00c800" stroke="none" transform="matrix(1 0 0 1 106 501 )" />
  </g>
</svg>