<?xml version="1.0" encoding="utf-8"?>
<svg version="1.1" xmlns:xlink="http://www.w3.org/1999/xlink" width="25px" height="29px" xmlns="http://www.w3.org/2000/svg">
  <g transform="matrix(1 0 0 1 -209 -499 )">
    <path d="M 12.535263671875 13.82888671875  C 16.658212890625 13.801494140625  19.962431640625 13.0231640625  21.082041015625 12.72451171875  C 21.348935546875 12.65326171875  21.491728515625 12.525615234375  21.491728515625 12.525615234375  C 21.492666015625 12.488994140625  21.508662109375 11.870888671875  21.508662109375 11.552021484375  C 21.508662109375 6.18228515625  18.91017578125 0.786650390625002  12.520029296875 0.786298828125002  C 6.1298828125 0.786650390625  3.53125 6.182255859375  3.53125 11.55205078125  C 3.53125 11.87091796875  3.54736328125 12.4890234375  3.548330078125 12.52564453125  C 3.548330078125 12.52564453125  3.6644921875 12.64505859375  3.87736328125 12.70283203125  C 4.911044921875 12.983466796875  8.2774609375 13.8009375  12.504853515625 13.828916015625  L 12.535234375 13.828916015625  Z M 24.403310546875 23.89998046875  C 24.701728515625 23.863916015625  25.093720703125 22.25525390625  23.883818359375 18.368173828125  C 23.630107421875 17.55298828125  23.283701171875 16.60236328125  22.93298828125 15.689443359375  C 22.93298828125 15.689443359375  22.73125 15.664599609375  22.629296875 15.694072265625  C 19.482109375 16.606728515625  15.66765625 17.188388671875  12.760791015625 17.153291015625  L 12.730732421875 17.153291015625  C 9.840185546875 17.188037109375  6.051572265625 16.613056640625  2.914990234375 15.709306640625  C 2.795166015625 15.674853515625  2.558505859375 15.68947265625  2.558505859375 15.68947265625  C 2.207822265625 16.60236328125  1.8614453125 17.55298828125  1.607734375 18.368173828125  C 0.397773437499998 22.25525390625  0.789765624999997 23.86388671875  1.088271484375 23.899951171875  C 1.728759765625 23.977236328125  3.58140625 20.973779296875  3.58140625 20.973779296875  C 3.58140625 24.025634765625  6.3415234375 28.71181640625  12.661884765625 28.754912109375  C 12.7177927734999 28.7547031492021  12.7737013671251 28.7547031492021  12.829609375 28.754912109375  C 19.15005859375 28.71181640625  21.910087890625 24.025693359375  21.910087890625 20.97380859375  C 21.910087890625 20.97380859375  23.762705078125 23.977294921875  24.403310546875 23.89998046875  Z " fill-rule="nonzero" fill="#000000" stroke="none" transform="matrix(1 0 0 1 209 499 )" />
  </g>
</svg>