<?xml version="1.0" encoding="utf-8"?>
<svg version="1.1" xmlns:xlink="http://www.w3.org/1999/xlink" width="26px" height="21px" xmlns="http://www.w3.org/2000/svg">
  <g transform="matrix(1 0 0 1 -306 -505 )">
    <path d="M 24.943359375 11.290810546875  C 24.2930859375 9.350390625  22.295361328125 8.641728515625  21.84046875 8.59951171875  C 21.385693359375 8.557265625  20.973486328125 8.30830078125  21.275185546875 7.793701171875  C 21.577001953125 7.279072265625  22.133701171875 5.781474609375  21.062841796875 4.726875  C 19.991630859375 3.6680859375  17.649404296875 4.06880859375  15.991728515625 4.75224609375  C 14.338388671875 5.435654296875  14.427568359375 4.958935546875  14.478544921875 4.490771484375  C 14.533916015625 3.997177734375  15.4264453125 1.238232421875  12.69755859375 0.90498046875  C 9.122900390625 0.4705078125  4.53662109375 4.86193359375  2.9171484375 7.39306640625  C 0.46875 11.215048828125  0.855703125 13.800966796875  0.855703125 13.800966796875  L 0.8726953125 13.800966796875  C 1.165927734375 17.3698828125  6.462158203125 20.21314453125  12.9526171875 20.21314453125  C 18.533671875 20.21314453125  23.234677734375 18.108076171875  24.62455078125 15.24796875  C 24.62455078125 15.24796875  24.628740234375 15.235283203125  24.641396484375 15.2141015625  C 24.786064453125 14.90630859375  24.896572265625 14.5939453125  24.9646875 14.26916015625  C 25.1600390625 13.501435546875  25.309072265625 12.387861328125  24.943359375 11.29083984375  Z M 20.518740234375 13.151220703125  C 20.518740234375 16.19267578125  16.769677734375 18.652236328125  12.1494140625 18.652236328125  C 7.52900390625 18.652236328125  3.78005859375 16.188515625  3.78005859375 13.151220703125  C 3.78005859375 10.113984375  7.52478515625 7.650439453125  12.1494140625 7.650439453125  C 16.769677734375 7.650439453125  20.518740234375 10.113984375  20.518740234375 13.151220703125  Z " fill-rule="nonzero" fill="#e71f19" stroke="none" transform="matrix(1 0 0 1 306 505 )" />
  </g>
</svg>