<?xml version="1.0" encoding="utf-8"?>
<svg version="1.1" xmlns:xlink="http://www.w3.org/1999/xlink" width="6px" height="6px" xmlns="http://www.w3.org/2000/svg">
  <g transform="matrix(1 0 0 1 -325 -506 )">
    <path d="M 4.528203125 5.460751953125  C 4.613046875 5.498779296875  4.702373046875 5.5155078125  4.79169921875 5.5155078125  C 5.055166015625 5.5155078125  5.31025390625 5.3594140625  5.416396484375 5.1020703125  C 5.590712890625 4.69296875  5.67986328125 4.258525390625  5.67986328125 3.807001953125  C 5.67986328125 1.976298828125  4.17962890625 0.487050781250001  2.334716796875 0.487050781250001  C 1.88416015625 0.487050781250001  1.446435546875 0.575585937500001  1.034052734375 0.748554687500001  C 0.689667968750001 0.891992187500001  0.52830078125 1.2885546875  0.67267578125 1.6344921875  C 0.817197265625001 1.97615234375  1.21677734375 2.13646484375  1.565205078125 1.99302734375  C 1.81185546875 1.89166015625  2.071103515625 1.836875  2.338935546875 1.836875  C 3.435546875 1.836875  4.323857421875 2.722841796875  4.323857421875 3.807001953125  C 4.323857421875 4.072666015625  4.27302734375 4.33015625  4.1665625 4.574638671875  C 4.13009022067295 4.65868054774709  4.11127065744213 4.74931873124271  4.11127065744213 4.84093349020331  C 4.11127065744213 5.112953949354  4.27600039682205 5.35788295352113  4.527939453125 5.460458984375  Z " fill-rule="nonzero" fill="#f5aa15" stroke="none" transform="matrix(1 0 0 1 325 506 )" />
  </g>
</svg>