<?xml version="1.0" encoding="utf-8"?>
<svg version="1.1" xmlns:xlink="http://www.w3.org/1999/xlink" width="12px" height="12px" xmlns="http://www.w3.org/2000/svg">
  <g transform="matrix(1 0 0 1 -324 -502 )">
    <path d="M 11.147314453125 8.13193359375  C 11.143125 3.83736328125  7.62354492187499 0.344443359375  3.29654296875 0.344443359375  C 2.535732421875 0.344443359375  1.783359375 0.454130859375  1.060751953125 0.665009765625  C 0.521015625 0.825322265625  0.215009765624998 1.386357421875  0.372275390624999 1.922138671875  C 0.533671875 2.457978515625  1.098955078125 2.76169921875  1.638984375 2.60560546875  C 2.17750613256107 2.44865553695131  2.73561614323771 2.36910873207845  3.29654296875 2.36935546875  C 6.497314453125 2.36935546875  9.10286132812499 4.955419921875  9.10286132812499 8.13193359375  C 9.10286132812499 8.70134765625  9.01775390625 9.266572265625  8.8562109375 9.80654296875  C 8.69484375 10.342353515625  8.99654296875 10.90775390625  9.53625 11.067861328125  C 9.63416015625 11.097568359375  9.735966796875 11.110107421875  9.833876953125 11.110107421875  C 10.27166015625 11.110107421875  10.6754296875 10.827451171875  10.811513671875 10.392919921875  C 11.0326171875 9.663251953125  11.147314453125 8.903876953125  11.147314453125 8.13193359375  Z " fill-rule="nonzero" fill="#f5aa15" stroke="none" transform="matrix(1 0 0 1 324 502 )" />
  </g>
</svg>