<?xml version="1.0" encoding="utf-8"?>
<svg version="1.1" xmlns:xlink="http://www.w3.org/1999/xlink" width="10px" height="9px" xmlns="http://www.w3.org/2000/svg">
  <g transform="matrix(1 0 0 1 -312 -514 )">
    <path d="M 9.838798828125 4.5352734375  C 9.838798828125 2.39220703125  7.841044921875 0.65830078125  5.37580078125 0.65830078125  C 2.910439453125 0.65830078125  0.912714843749999 2.39203125  0.912714843749999 4.5352734375  C 0.912714843749999 6.678076171875  2.910439453125 8.4120703125  5.37580078125 8.4120703125  C 7.84107421875 8.4120703125  9.838798828125 6.67822265625  9.838798828125 4.5352734375  Z M 5.48203125 5.50125  C 5.48203125 6.357509765625  4.780751953125 7.053603515625  3.91787109375 7.053603515625  C 3.0549609375 7.053603515625  2.3537109375 6.35765625  2.3537109375 5.50125  C 2.3537109375 4.6449609375  3.055107421875 3.948837890625  3.91787109375 3.948837890625  C 4.780751953125 3.948837890625  5.48203125 4.644931640625  5.48203125 5.50125  Z M 6.84228515625 4.25677734375  C 6.6553125 4.5815625  6.27697265625 4.71662109375  6.000703125 4.556162109375  C 5.72443359375 4.40021484375  5.65646484375 4.0078125  5.84337890625 3.68302734375  C 6.03046875 3.358125  6.408720703125 3.22306640625  6.684931640625 3.38349609375  C 6.961201171875 3.54380859375  7.02931640625 3.93615234375  6.842255859375 4.25677734375  Z " fill-rule="nonzero" fill="#040000" stroke="none" transform="matrix(1 0 0 1 312 514 )" />
  </g>
</svg>