<?xml version="1.0" encoding="utf-8"?>
<svg version="1.1" xmlns:xlink="http://www.w3.org/1999/xlink" width="25px" height="21px" xmlns="http://www.w3.org/2000/svg">
  <g transform="matrix(1 0 0 1 -262 -490 )">
    <path d="M 23.9839993990385 11.290810546875  C 23.3587364783654 9.350390625  21.4378474308894 8.641728515625  21.0004507211538 8.59951171875  C 20.5631666917067 8.557265625  20.1668137770433 8.30830078125  20.4569091796875 7.793701171875  C 20.7471172626202 7.279072265625  21.2824049729567 5.781474609375  20.2527324969952 4.726875  C 19.2227219801683 3.6680859375  16.9705810546875 4.06880859375  15.3766620342548 4.75224609375  C 13.7869121844952 5.435654296875  13.8726618840144 4.958935546875  13.9216778094952 4.490771484375  C 13.9749192457933 3.997177734375  14.8331204927885 1.238232421875  12.2091909555288 0.90498046875  C 8.77201960637019 0.4705078125  4.36213566706731 4.86193359375  2.80495042067308 7.39306640625  C 0.450721153846154 11.215048828125  0.822791466346154 13.800966796875  0.822791466346154 13.800966796875  L 0.839130108173077 13.800966796875  C 1.12108435997596 17.3698828125  6.21361365685096 20.21314453125  12.4544396033654 20.21314453125  C 17.8208383413462 20.21314453125  22.3410362830529 18.108076171875  23.6774526742788 15.24796875  C 23.6774526742788 15.24796875  23.6814809945913 15.235283203125  23.6936504657452 15.2141015625  C 23.832754281851 14.90630859375  23.9390117938702 14.5939453125  24.0045072115385 14.26916015625  C 24.1923452524038 13.501435546875  24.3356464092548 12.387861328125  23.9839993990385 11.29083984375  Z M 19.7295579176683 13.151220703125  C 19.7295579176683 16.19267578125  16.1246901292067 18.652236328125  11.68212890625 18.652236328125  C 7.23942683293269 18.652236328125  3.63467172475962 16.188515625  3.63467172475962 13.151220703125  C 3.63467172475962 10.113984375  7.23537034254808 7.650439453125  11.68212890625 7.650439453125  C 16.1246901292067 7.650439453125  19.7295579176683 10.113984375  19.7295579176683 13.151220703125  Z " fill-rule="nonzero" fill="#e71f19" stroke="none" transform="matrix(1 0 0 1 262 490 )" />
  </g>
</svg>