<?xml version="1.0" encoding="utf-8"?>
<svg version="1.1" xmlns:xlink="http://www.w3.org/1999/xlink" width="24px" height="29px" xmlns="http://www.w3.org/2000/svg">
  <g transform="matrix(1 0 0 1 -261 -484 )">
    <path d="M 12.033853125 13.82888671875  C 15.991884375 13.801494140625  19.163934375 13.0231640625  20.238759375 12.72451171875  C 20.494978125 12.65326171875  20.632059375 12.525615234375  20.632059375 12.525615234375  C 20.632959375 12.488994140625  20.648315625 11.870888671875  20.648315625 11.552021484375  C 20.648315625 6.18228515625  18.15376875 0.786650390625002  12.019228125 0.786298828125002  C 5.8846875 0.786650390625  3.39 6.182255859375  3.39 11.55205078125  C 3.39 11.87091796875  3.40546875 12.4890234375  3.406396875 12.52564453125  C 3.406396875 12.52564453125  3.5179125 12.64505859375  3.72226875 12.70283203125  C 4.714603125 12.983466796875  7.9463625 13.8009375  12.004659375 13.828916015625  L 12.033825 13.828916015625  Z M 23.427178125 23.89998046875  C 23.713659375 23.863916015625  24.089971875 22.25525390625  22.928465625 18.368173828125  C 22.684903125 17.55298828125  22.352353125 16.60236328125  22.01566875 15.689443359375  C 22.01566875 15.689443359375  21.822 15.664599609375  21.724125 15.694072265625  C 18.702825 16.606728515625  15.04095 17.188388671875  12.250359375 17.153291015625  L 12.221503125 17.153291015625  C 9.446578125 17.188037109375  5.809509375 16.613056640625  2.798390625 15.709306640625  C 2.683359375 15.674853515625  2.456165625 15.68947265625  2.456165625 15.68947265625  C 2.119509375 16.60236328125  1.7869875 17.55298828125  1.543425 18.368173828125  C 0.381862499999998 22.25525390625  0.758174999999998 23.86388671875  1.044740625 23.899951171875  C 1.659609375 23.977236328125  3.43815 20.973779296875  3.43815 20.973779296875  C 3.43815 24.025634765625  6.0878625 28.71181640625  12.155409375 28.754912109375  C 12.2090810625599 28.7547031492021  12.2627533124401 28.7547031492021  12.316425 28.754912109375  C 18.38405625 28.71181640625  21.033684375 24.025693359375  21.033684375 20.97380859375  C 21.033684375 20.97380859375  22.812196875 23.977294921875  23.427178125 23.89998046875  Z " fill-rule="nonzero" fill="#000000" stroke="none" transform="matrix(1 0 0 1 261 484 )" />
  </g>
</svg>