<?xml version="1.0" encoding="utf-8"?>
<svg version="1.1" xmlns:xlink="http://www.w3.org/1999/xlink" width="21px" height="20px" xmlns="http://www.w3.org/2000/svg">
  <g transform="matrix(1 0 0 1 -159 -526 )">
    <path d="M 20.640673828125 7.61031249999996  C 19.7666015625 3.27765625000006  15.4219482421875 0.0571093749999818  10.4631591796875 0.0571093749999818  C 4.91879882812501 0.0571093749999818  0.37705078124998 4.08812499999999  0.37705078124998 9.20687500000008  C 0.37705078124998 12.16234375  1.88811035156252 14.58765625  4.41320800781249 16.470625  L 3.40488281249996 19.7064062500001  L 6.92973632812499 17.820390625  C 8.19228515625004 18.08546875  9.20346679687496 18.3596875  10.4631591796875 18.3596875  C 10.780224609375 18.3596875  11.09443359375 18.3444531250001  11.4057861328125 18.31703125  C 11.20869140625 17.59796875  11.09443359375 16.8453906250001  11.09443359375 16.0623437500001  C 11.09443359375 11.3610156249999  14.8792236328125 7.54632812500006  19.669482421875 7.54632812500006  C 19.9979736328125 7.54632812500006  20.320751953125 7.57070312500002  20.640673828125 7.61031249999996  Z M 8.4465087890625 5.97718750000001  C 8.4465087890625 6.78460937500006  7.832373046875 7.43968749999999  7.07541503906248 7.43968749999999  C 6.31845703125001 7.43968749999999  5.70432128906246 6.78460937500006  5.70432128906246 5.97718750000001  C 5.70432128906246 5.16976562499997  6.31845703125001 4.51468750000004  7.07541503906248 4.51468750000004  C 7.832373046875 4.51468750000004  8.4465087890625 5.16976562499997  8.4465087890625 5.97718750000001  Z M 15.4905029296875 5.97718750000001  C 15.4905029296875 6.78460937500006  14.8763671875 7.43968749999999  14.1194091796875 7.43968749999999  C 13.362451171875 7.43968749999999  12.7483154296875 6.78460937500006  12.7483154296875 5.97718750000001  C 12.7483154296875 5.16976562499997  13.362451171875 4.51468750000004  14.1194091796875 4.51468750000004  C 14.8763671875 4.51468750000004  15.4905029296875 5.16976562499997  15.4905029296875 5.97718750000001  Z " fill-rule="nonzero" fill="#00c800" stroke="none" transform="matrix(1 0 0 1 159 526 )" />
  </g>
</svg>