<?xml version="1.0" encoding="utf-8"?>
<svg version="1.1" xmlns:xlink="http://www.w3.org/1999/xlink" width="18px" height="17px" xmlns="http://www.w3.org/2000/svg">
  <g transform="matrix(1 0 0 1 -157 -494 )">
    <path d="M 14.0895263671875 14.2673313613766  C 16.11474609375 12.6304859003744  17.62294921875 10.4613579868286  17.62294921875 8.01224334969004  C 17.62294921875 3.66783396823348  13.5867919921875 0.129540208548633  9.05646972656248 0.129540208548633  C 4.25764160156248 0.129540208548633  0.478564453125022 3.67091074541577  0.478564453125022 8.01224334969004  C 0.478564453125022 12.3628062855114  4.25764160156248 15.8949464908317  9.05646972656248 15.8949464908317  C 10.0619384765625 15.8949464908317  11.0759765625 15.6211133216038  12.0843017578125 15.3503569295583  L 14.8493408203125 16.9810488361958  L 14.0895263671875 14.2673313613766  Z M 7.54541015625 5.57543582128096  C 7.54541015625 6.2523268013947  7.03410644531252 6.80614669421493  6.40283203125 6.80614669421493  C 5.77155761718748 6.80614669421493  5.26025390625 6.25540357857699  5.26025390625 5.57543582128096  C 5.26025390625 4.89546806398505  5.77155761718748 4.34472494834711  6.40283203125 4.34472494834711  C 7.03410644531252 4.34472494834711  7.54541015625 4.89546806398505  7.54541015625 5.57543582128096  Z M 13.0954833984375 5.56620548973399  C 13.0954833984375 6.24617324703001  12.5841796875 6.79691636266784  11.9529052734375 6.79691636266784  C 11.321630859375 6.79691636266784  10.8103271484375 6.24617324703001  10.8103271484375 5.56620548973399  C 10.8103271484375 4.88623773243808  11.321630859375 4.33549461680002  11.9529052734375 4.33549461680002  C 12.5841796875 4.33549461680002  13.0954833984375 4.88623773243808  13.0954833984375 5.56620548973399  Z " fill-rule="nonzero" fill="#00c800" stroke="none" transform="matrix(1 0 0 1 157 494 )" />
  </g>
</svg>