<?xml version="1.0" encoding="utf-8"?>
<svg version="1.1" xmlns:xlink="http://www.w3.org/1999/xlink" width="12px" height="4px" xmlns="http://www.w3.org/2000/svg">
  <g transform="matrix(1 0 0 1 -265 -533 )">
    <path d="M 11.3898046875 1.597646484375  C 11.3897031708302 1.57076432255252  11.3840478174462 1.54419313839922  11.373193359375 1.519599609375  C 11.144384765625 0.96931640625  8.840009765625 0.356250000000001  5.98716796875 0.356250000000001  L 5.956552734375 0.356250000000001  C 3.103740234375 0.356250000000001  0.7993359375 0.96931640625  0.570556640624998 1.519599609375  C 0.559640338128363 1.54425895952409  0.553954307518961 1.57091347494221  0.553857421875 1.597880859375  C 0.553857421875 1.63751953125  0.566103515624999 1.6733203125  0.585263671875 1.703701171875  C 0.778037109374999 2.008857421875  3.336943359375 3.51673828125  5.95658203125 3.51673828125  L 5.987197265625 3.51673828125  C 8.606806640625 3.51673828125  11.165654296875 2.0089453125  11.358486328125 1.703759765625  C 11.3787721490632 1.67207193757865  11.3896336092776 1.63527099380271  11.3898046875 1.597646484375  Z " fill-rule="nonzero" fill="#faad08" stroke="none" transform="matrix(1 0 0 1 265 533 )" />
  </g>
</svg>