<?xml version="1.0" encoding="utf-8"?>
<svg version="1.1" xmlns:xlink="http://www.w3.org/1999/xlink" width="7px" height="3px" xmlns="http://www.w3.org/2000/svg">
  <g transform="matrix(1 0 0 1 -268 -530 )">
    <path d="M 0.868124999999999 0.20009765625  C 1.24083984375 0.15169921875  1.57458984375 0.51533203125  1.61349609375 1.011767578125  C 1.65287109375 1.508232421875  1.3829296875 1.949267578125  1.0114453125 1.9974609375  C 0.639345703124999 2.045712890625  0.306152343749998 1.682373046875  0.266542968749999 1.18564453125  C 0.227695312499998 0.6889453125  0.497197265624999 0.24791015625  0.868124999999999 0.20009765625  Z M 3.96638671875 1.513974609375  C 3.88271484375 1.456669921875  3.8480859375 1.34044921875  3.8977734375 1.259736328125  C 3.97693359375 1.131064453125  4.517373046875 0.454423828124999  5.6358984375 0.700810546874999  C 5.9296875 0.765498046874999  6.065595703125 0.860683593749999  6.09427734375 0.898183593749999  C 6.136611328125 0.953496093749999  6.14818359375 1.03224609375  6.105263671875 1.13830078125  C 6.02021484375 1.3484765625  5.844697265625 1.342763671875  5.74734375 1.301630859375  C 5.68453125 1.27505859375  4.90546875 0.805107421874999  4.1878125 1.506416015625  C 4.138447265625 1.554697265625  4.0501171875 1.571220703125  3.96638671875 1.513974609375  Z " fill-rule="nonzero" fill="#000000" stroke="none" transform="matrix(1 0 0 1 268 530 )" />
  </g>
</svg>