<?xml version="1.0" encoding="utf-8"?>
<svg version="1.1" xmlns:xlink="http://www.w3.org/1999/xlink" width="11px" height="6px" xmlns="http://www.w3.org/2000/svg">
  <g transform="matrix(1 0 0 1 -253 -488 )">
    <path d="M 4.066396484375 2.57755859375  C 4.11412109375 3.823701171875  3.4459765625 4.86505859375  2.574453125 4.903642578125  C 1.702578125 4.94240234375  0.957412109375001 3.96283203125  0.910683593750001 2.717509765625  C 0.86328125 1.4713671875  1.531279296875 0.4298046875  2.403359375 0.39083984375  C 3.2744140625 0.352607421875  4.019052734375 1.33173828125  4.066396484375 2.57755859375  Z M 9.032890625 2.717509765625  C 8.986220703125 3.96283203125  8.24099609375 4.94234375  7.36912109375 4.903642578125  C 6.49765625 4.864970703125  5.829482421875 3.823701171875  5.87720703125 2.57755859375  C 5.9244921875 1.3316796875  6.6691015625 0.352519531250001  7.54021484375 0.390869140625  C 8.4123828125 0.429833984375001  9.0803515625 1.4713671875  9.032919921875 2.7175390625  Z " fill-rule="nonzero" fill="#ffffff" stroke="none" transform="matrix(1 0 0 1 253 488 )" />
  </g>
</svg>