<?xml version="1.0" encoding="utf-8"?>
<svg version="1.1" xmlns:xlink="http://www.w3.org/1999/xlink" width="14px" height="8px" xmlns="http://www.w3.org/2000/svg">
  <g transform="matrix(1 0 0 1 -90 -173 )">
    <path d="M 7.54125714285714 6.93327620278878  C 7.34742857142857 7.11369840243788  7.07497142857146 7.17667596269277  6.82628571428572 7.12220888355341  C 6.68731428571432 7.09157115153753  6.56114285714288 7.02689149505954  6.46057142857143 6.93327620278878  L 0.353142857142842 1.24997691384244  C 0.0550857142856861 0.972535229476404  0.0550857142856861 0.523181826576774  0.353142857142842 0.24744223843384  C 0.651199999999932 -0.0299994459322599  1.1339428571429 -0.0299994459322599  1.43017142857142 0.24744223843384  L 7 5.4303252377874  L 12.5679999999999 0.24744223843384  C 12.8660571428571 -0.0299994459322599  13.3488000000001 -0.0299994459322599  13.6450285714285 0.24744223843384  C 13.9412571428572 0.524883922799907  13.9430857142857 0.974237325699505  13.6450285714285 1.24997691384244  L 7.54125714285714 6.93327620278878  Z " fill-rule="nonzero" fill="#323233" stroke="none" transform="matrix(1 0 0 1 90 173 )" />
  </g>
</svg>