<?xml version="1.0" encoding="utf-8"?>
<svg version="1.1" xmlns:xlink="http://www.w3.org/1999/xlink" width="20px" height="15px" xmlns="http://www.w3.org/2000/svg">
  <g transform="matrix(1 0 0 1 -365 -277 )">
    <path d="M 5.73760000000004 13.7448261818182  L 0.256639999999948 8.37106036363639  C 0.00832000000002608 8.12725527272721  -0.0326400000000149 7.74772363636367  0.18751999999995 7.47627054545455  L 0.699520000000007 6.84287999999998  C 0.909440000000018 6.58399418181813  1.30111999999997 6.51864436363638  1.58015999999998 6.69961309090905  L 6.01408000000004 9.60516654545455  C 6.24703999999997 9.75848727272722  6.65152000000001 9.73837963636362  6.86911999999995 9.56495127272729  L 18.58368 0.232494545454585  C 18.84736 0.023877818181802  19.25952 0.0414719999999988  19.48992 0.267682909090922  L 19.7791999999999 0.551703272727252  C 20.03008 0.798021818181837  20.01216 1.18760727272729  19.74848 1.44649309090909  L 7.17376000000002 13.7724741818181  C 6.78207999999995 14.1570327272727  6.13951999999995 14.1394385454545  5.73760000000004 13.7448261818182  Z " fill-rule="nonzero" fill="#07c160" stroke="none" transform="matrix(1 0 0 1 365 277 )" />
  </g>
</svg>