<?xml version="1.0" encoding="utf-8"?>
<svg version="1.1" xmlns:xlink="http://www.w3.org/1999/xlink" width="19px" height="15px" xmlns="http://www.w3.org/2000/svg">
  <g transform="matrix(1 0 0 1 -312 -237 )">
    <path d="M 5.45072000000004 13.7448261818182  L 0.24380799999995 8.37106036363639  C 0.00790400000002478 8.12725527272721  -0.0310080000000141 7.74772363636367  0.178143999999952 7.47627054545455  L 0.664544000000006 6.84287999999998  C 0.863968000000017 6.58399418181813  1.23606399999997 6.51864436363638  1.50115199999998 6.69961309090905  L 5.71337600000003 9.60516654545455  C 5.93468799999997 9.75848727272722  6.318944 9.73837963636362  6.52566399999996 9.56495127272729  L 17.654496 0.232494545454585  C 17.904992 0.023877818181802  18.296544 0.0414719999999988  18.515424 0.267682909090922  L 18.7902399999999 0.551703272727252  C 19.028576 0.798021818181837  19.011552 1.18760727272729  18.761056 1.44649309090909  L 6.81507200000001 13.7724741818181  C 6.44297599999995 14.1570327272727  5.83254399999995 14.1394385454545  5.45072000000004 13.7448261818182  Z " fill-rule="nonzero" fill="#07c160" stroke="none" transform="matrix(1 0 0 1 312 237 )" />
  </g>
</svg>