<?xml version="1.0" encoding="utf-8"?>
<svg version="1.1" xmlns:xlink="http://www.w3.org/1999/xlink" width="15px" height="15px" xmlns="http://www.w3.org/2000/svg">
  <g transform="matrix(1 0 0 1 -345 -62 )">
    <path d="M 14.400006890625 7.19014159687656  C 14.3946239744612 3.21755845202222  11.1726961277598 0  7.20010933593748 0  C 3.22372230405954 0  0.000218362873916078 3.22350394118493  0.000218362873916078 7.19989756874853  C 0.000218362873916078 11.1762911963121  3.22372230405954 14.399795137497  7.20011593162393 14.399795137497  C 11.1765095591883 14.399795137497  14.400013500374 11.1762911963121  14.400013500374 7.19989756874853  C 14.400013500374 7.19664557700469  14.4000112971238 7.19339358563495  14.400006890625 7.19014159687656  Z M 8.1366813703125 7.22916544218903  L 10.2829923 9.34620848437611  C 10.4262411770737 9.47393335495796  10.5081609351633 9.65672960724758  10.5081609351633 9.84865116244139  C 10.5081609351633 10.2204278049425  10.2067764182895 10.5218123218163  9.83499977578834 10.5218123218163  C 9.65507651991118 10.5218123218163  9.48264113214314 10.4497848503552  9.35617622343745 10.3218043640634  L 7.20010933593748 8.12671364531383  L 5.04404244843752 10.2730245750009  C 4.91467039108116 10.4023966323572  4.73920422669913 10.4750770973818  4.55624450859375 10.4750770973818  C 4.17525061864332 10.4750770973818  3.86639404636909 10.1662205251076  3.86639404636909 9.78522663515722  C 3.86639404636909 9.6022669170519  3.93907451139363 9.42680075266992  4.06844656874998 9.29742869531362  L 6.21475749843746 7.14136180781408  L 4.06844656874998 4.99505087812702  C 3.93907451447671 4.86567882198894  3.8663940513409 4.69021266037856  3.8663940513409 4.50725294531464  C 3.8663940513409 4.12625905811018  4.17525062138917 3.81740248806196  4.55624450859375 3.81740248806196  C 4.73920422710339 3.81740248806196  4.91467039172779 3.89008295392768  5.04404244843752 4.01945501250221  L 7.20010933593748 6.26332552031425  L 9.35617622343745 4.10725863281471  C 9.47949623059809 3.99730292302836  9.63894743461502 3.93654015150517  9.8041687476492 3.93654015150517  C 10.1759453901504 3.93654015150517  10.4773299070242 4.2379246683789  10.4773299070242 4.60970131088004  C 10.4773299070242 4.78684575764911  10.4075040324003 4.95685060972193  10.2829923 5.08285451250202  L 8.1366813703125 7.22916544218903  Z " fill-rule="nonzero" fill="#cdcdcd" stroke="none" transform="matrix(1 0 0 1 345 62 )" />
  </g>
</svg>