<?xml version="1.0" encoding="utf-8"?>
<svg version="1.1" xmlns:xlink="http://www.w3.org/1999/xlink" width="19px" height="17px" xmlns="http://www.w3.org/2000/svg">
  <g transform="matrix(1 0 0 1 -339 -801 )">
    <path d="M 18.6101725177755 5.10420898933469  C 18.6529170898933 3.38418930929409  18.117592210513 1.98186738191975  17.0632260982732 1.04900964956831  C 16.304001079228 0.379213750634859  15.304592273997 0.047351130015228  14.2522616175724 0.114128364652114  C 13.0900163471305 0.188999809547984  11.9399838115795 0.749523869984772  10.9283622714575 1.73499396901978  C 10.6372920898933 2.01829132808529  10.6332211782631 2.48168486541395  10.9181849923819 2.7710528821737  C 11.2031488065007 3.06042089893345  11.6692681881666 3.06446800406294  11.9603383697309 2.78117064499748  C 13.552064817166 1.23112938039614  15.1783940134586 1.34444832402235  16.0821363953784 2.14172803453533  C 17.5904091543931 3.47322562214324  17.4764236287455 6.42558881411887  15.7971725812595 9.48924739715595  L 15.7869953021839 9.50745937023872  C 15.2964504507365 10.466623285932  14.4619135665313 11.4986350939563  13.3057746635348 12.5751650584053  C 12.310436769934 13.5019521330625  11.0810214575927 14.4489747333672  9.75186881030979 15.313031678517  C 9.50557865667852 15.4728923311326  9.1880475495175 15.4728923311326  8.94175739588623 15.313031678517  C 7.61260474860337 14.4469511808024  6.38318943626205 13.4999285804977  5.38785154266119 12.5751650584053  C 4.23171263966482 11.4986350939563  3.3951402996445 10.466623285932  2.90663090401221 9.50745937023872  L 2.89645362493647 9.48924739715595  C 1.22127348908081 6.4316594718131  1.10932341924835 3.47727272727273  2.61352526663276 2.13970448197053  C 3.09592829481971 1.71071133824277  3.78594781615036 1.48812055611985  4.50242826307766 1.53061515997968  C 5.36953244032505 1.58120397409854  6.22849479431182 1.99805580243777  6.987719813357 2.73867604113765  C 7.27878999492127 3.02197340020317  7.7449093765871 3.01792629507367  8.02987319070589 2.72855827831387  C 8.31483700482478 2.43919026155406  8.31076609319447 1.97579672422551  8.01969591163031 1.69249936516  C 7.00196800406294 0.700958608430707  5.81529726383956 0.14043454799392  4.58791740731337 0.0675866556627417  C 3.48266489969522 0.00283297359065513  2.40387331767399 0.361001777552038  1.63040010792282 1.04698609700356  C 0.578069451498186 1.98186738191975  0.0447800279330067 3.38621286185879  0.0854891442357058 5.10623254189943  C 0.122127348908043 6.68662709497206  0.645239493397642 8.4410471686135  1.5957973590655 10.1813023743017  C 3.0022973273235 12.9252396521077  6.29362938039615 15.3433849669883  8.13368143727784 16.5393045327578  C 8.50209893981715 16.7801072879634  8.92547374936516 16.899496889284  9.34681310309798 16.899496889284  C 9.76815245683086 16.899496889284  10.1915272663789 16.7801072879634  10.5599447689182 16.5393045327578  C 12.3979613699848 15.3413614144236  15.6892934230573 12.9252396521077  17.0978288471305 10.1813023743017  C 18.0483867127983 8.4410471686135  18.5714988572879 6.68662709497206  18.6101725177755 5.10420898933469  Z " fill-rule="nonzero" fill="#07c160" stroke="none" transform="matrix(1 0 0 1 339 801 )" />
  </g>
</svg>