<?xml version="1.0" encoding="utf-8"?>
<svg version="1.1" xmlns:xlink="http://www.w3.org/1999/xlink" width="12px" height="12px" xmlns="http://www.w3.org/2000/svg">
  <g transform="matrix(1 0 0 1 -86 -806 )">
    <path d="M 11.392125 4.81783536585368  L 7.22212500000001 0.589557926829299  C 6.88087499999999 0.210365853658529  6.51900000000001 0.0807926829268476  6.09525 0.0807926829268476  C 5.7165 0.0807926829268476  5.34899999999999 0.160823170731751  4.968375 0.591463414634133  L 0.693374999999994 4.84451219512198  C 0.307124999999998 5.23894817073173  0.0315000000000028 5.71341463414634  0.0315000000000028 6.26791158536585  L 0.0315000000000028 11.2317073170732  C 0.0315000000000028 11.6166158536586  0.280875000000002 11.9272103658537  0.659624999999992 11.9272103658537  C 1.03837500000001 11.9272103658537  1.28774999999999 11.6166158536586  1.28774999999999 11.2317073170732  L 1.28774999999999 6.26791158536585  C 1.28774999999999 6.08307926829268  1.479 5.90777439024389  1.6065 5.77820121951221  L 5.875875 1.47751524390242  C 5.932125 1.41844512195121  6.02962499999999 1.41082317073172  6.063375 1.41082317073172  C 6.09712500000001 1.41082317073172  6.17962500000001 1.41844512195121  6.23775000000001 1.47751524390242  L 10.4715 5.75152439024385  C 10.600875 5.88300304878047  10.70025 6.05830792682927  10.70025 6.24314024390243  L 10.70025 11.2317073170732  C 10.70025 11.6166158536586  10.949625 11.9272103658537  11.328375 11.9272103658537  C 11.707125 11.9272103658537  11.9565 11.6166158536586  11.9565 11.2317073170732  L 11.9565 6.24504573170732  C 11.9565 5.68864329268292  11.778375 5.21227134146343  11.392125 4.81783536585368  Z " fill-rule="nonzero" fill="#000000" stroke="none" transform="matrix(1 0 0 1 86 806 )" />
  </g>
</svg>