<?xml version="1.0" encoding="utf-8"?>
<svg version="1.1" xmlns:xlink="http://www.w3.org/1999/xlink" width="12px" height="12px" xmlns="http://www.w3.org/2000/svg">
  <g transform="matrix(1 0 0 1 -180 -805 )">
    <path d="M 11.2044631578947 11.9752101265823  C 11.2287157894737 11.9752101265823  11.2529684210526 11.9752101265823  11.2752 11.9732658227848  L 11.2044631578947 11.9752101265823  Z M 11.2044631578947 11.9752101265823  L 11.2752 11.9732658227848  C 11.2509473684211 11.9752101265823  11.2287157894737 11.9752101265823  11.2044631578947 11.9752101265823  Z M 10.7901473684211 5.54734177215189  L 11.9118315789474 5.49484556962025  L 11.6955789473684 1.10655189873418  C 11.6592 0.536870886075947  11.1680842105263 0.0935696202531644  10.5759157894737 0.0935696202531644  L 1.87730526315789 0.0935696202531644  C 1.28513684210526 0.0935696202531644  0.79402105263158 0.536870886075947  0.757642105263159 1.10655189873418  L 0.125052631578947 10.8280708860759  C 0.123031578947368 10.8514025316456  0.123031578947368 10.8727898734177  0.123031578947368 10.8961215189873  C 0.123031578947368 11.4930227848101  0.626273684210527 11.9771544303797  1.24673684210526 11.9771544303797  L 6.86122105263158 11.9771544303797  L 6.86122105263158 10.8961215189873  L 1.24471578947369 10.8961215189873  L 1.87730526315789 1.17460253164557  L 10.5738947368421 1.17460253164557  L 10.7901473684211 5.54734177215189  Z M 10.7901473684211 5.54734177215189  L 11.9118315789474 5.49484556962025  L 11.6955789473684 1.10655189873418  C 11.6592 0.536870886075947  11.1680842105263 0.0935696202531644  10.5759157894737 0.0935696202531644  L 1.87730526315789 0.0935696202531644  C 1.28513684210526 0.0935696202531644  0.79402105263158 0.536870886075947  0.757642105263159 1.10655189873418  L 0.125052631578947 10.8280708860759  C 0.123031578947368 10.8514025316456  0.123031578947368 10.8727898734177  0.123031578947368 10.8961215189873  C 0.123031578947368 11.4930227848101  0.626273684210527 11.9771544303797  1.24673684210526 11.9771544303797  L 6.86122105263158 11.9771544303797  L 6.86122105263158 10.8961215189873  L 1.24471578947369 10.8961215189873  L 1.87730526315789 1.17460253164557  L 10.5738947368421 1.17460253164557  L 10.7901473684211 5.54734177215189  Z " fill-rule="nonzero" fill="#333333" stroke="none" transform="matrix(1 0 0 1 180 805 )" />
  </g>
</svg>