<?xml version="1.0" encoding="utf-8"?>
<svg version="1.1" xmlns:xlink="http://www.w3.org/1999/xlink" width="17px" height="17px" xmlns="http://www.w3.org/2000/svg">
  <g transform="matrix(1 0 0 1 -130 -801 )">
    <path d="M 15.752608 3.967392  C 15.752608 2.463776  14.536224 1.247392  13.032608 1.247392  C 11.531168 1.247392  10.312608 2.465952  10.312608 3.967392  C 10.312608 5.468832  11.531168 6.687392  13.032608 6.687392  C 14.534048 6.687392  15.752608 5.468832  15.752608 3.967392  Z M 9.102752 3.967392  C 9.102752 1.795744  10.863136 0.0375360000000003  13.032608 0.0375360000000003  C 15.20208 0.0375360000000003  16.962464 1.795744  16.962464 3.967392  C 16.962464 6.13904  15.204256 7.897248  13.032608 7.897248  C 10.86096 7.897248  9.102752 6.13904  9.102752 3.967392  Z M 6.687392 1.247392  L 1.247392 1.247392  L 1.247392 6.687392  L 6.687392 6.687392  L 6.687392 1.247392  Z M 0.0375360000000003 1.247392  C 0.0375360000000003 0.579359999999999  0.579360000000003 0.0375360000000003  1.247392 0.0375360000000003  L 6.687392 0.0375360000000003  C 7.355424 0.0375360000000003  7.897248 0.579359999999999  7.897248 1.247392  L 7.897248 6.687392  C 7.897248 7.355424  7.355424 7.897248  6.687392 7.897248  L 1.247392 7.897248  C 0.579360000000003 7.897248  0.0375360000000003 7.355424  0.0375360000000003 6.687392  L 0.0375360000000003 1.247392  Z M 6.687392 10.312608  L 1.247392 10.312608  L 1.247392 15.752608  L 6.687392 15.752608  L 6.687392 10.312608  Z M 0.0375360000000003 10.314784  C 0.0375360000000003 9.646752  0.579360000000003 9.104928  1.247392 9.104928  L 6.687392 9.104928  C 7.355424 9.104928  7.897248 9.646752  7.897248 10.314784  L 7.897248 15.754784  C 7.897248 16.422816  7.355424 16.96464  6.687392 16.96464  L 1.247392 16.96464  C 0.579360000000003 16.96464  0.0375360000000003 16.422816  0.0375360000000003 15.754784  L 0.0375360000000003 10.314784  Z M 15.752608 10.312608  L 10.312608 10.312608  L 10.312608 15.752608  L 15.752608 15.752608  L 15.752608 10.312608  Z M 9.102752 10.314784  C 9.104928 9.646752  9.64675200000001 9.104928  10.312608 9.104928  L 15.752608 9.104928  C 16.42064 9.104928  16.962464 9.646752  16.962464 10.314784  L 16.962464 15.754784  C 16.962464 16.422816  16.42064 16.96464  15.752608 16.96464  L 10.312608 16.96464  C 9.64457600000001 16.96464  9.102752 16.422816  9.102752 15.754784  L 9.102752 10.314784  Z " fill-rule="nonzero" fill="#323233" stroke="none" transform="matrix(1 0 0 1 130 801 )" />
  </g>
</svg>