<?xml version="1.0" encoding="utf-8"?>
<svg version="1.1" xmlns:xlink="http://www.w3.org/1999/xlink" width="12px" height="17px" xmlns="http://www.w3.org/2000/svg">
  <g transform="matrix(1 0 0 1 -183 -801 )">
    <path d="M 3.56621298701299 1.16405925925926  C 2.28554805194805 1.16405925925926  1.24625454545455 2.21176296296296  1.24625454545454 3.50728888888889  L 0.137142857142858 3.50728888888889  C 0.137142857142858 1.59522962962963  1.67314285714286 0.0438222222222234  3.56621298701299 0.0438222222222234  C 5.45928311688311 0.0438222222222234  6.99528311688312 1.59321481481482  6.99528311688312 3.50728888888889  L 5.88617142857143 3.50728888888889  C 5.88617142857143 2.21377777777778  4.84687792207792 1.16405925925926  3.56621298701299 1.16405925925926  Z M 4.67532467532467 15.1549333333333  C 4.67532467532467 15.4652148148148  4.42796883116883 15.7150518518519  4.12076883116883 15.7150518518519  C 3.81556363636364 15.7150518518519  3.56621298701299 15.4652148148148  3.56621298701299 15.1549333333333  C 3.56621298701299 14.8466666666667  3.81356883116883 14.5948148148148  4.12076883116883 14.5948148148148  C 4.42796883116883 14.5948148148148  4.67532467532467 14.8466666666667  4.67532467532467 15.1549333333333  Z M 9.10778181818182 8.99765925925926  C 9.10778181818182 9.30794074074074  8.86042597402598 9.55777777777778  8.55322597402597 9.55777777777778  C 8.24802077922078 9.55777777777778  7.99867012987013 9.30794074074074  7.99867012987013 8.99765925925926  C 7.99867012987013 8.68737777777777  8.24602597402597 8.43754074074074  8.55322597402597 8.43754074074074  C 8.86042597402598 8.43754074074074  9.10778181818182 8.68737777777777  9.10778181818182 8.99765925925926  Z M 11.8785662337662 13.0736296296296  L 11.3220155844156 13.0776592592593  L 11.8765714285714 13.0776592592593  C 11.8765714285714 13.2992888888889  11.8306909090909 13.5229333333333  11.7469090909091 13.7506074074074  C 11.7149922077922 13.8453037037037  11.6731012987013 13.9420148148148  11.5693714285714 14.1293925925926  C 11.5972987012987 14.0890962962963  11.5972987012987 14.0890962962963  11.6012883116883 14.0830518518519  L 11.6192415584416 14.0508148148148  L 11.6072727272727 14.0749925925926  C 11.6092675324675 14.070962962963  11.6092675324675 14.070962962963  11.5992935064935 14.0931259259259  C 11.573361038961 14.1455111111111  11.5474285714286 14.1938666666667  11.5294753246753 14.2180444444444  C 11.4895792207792 14.288562962963  11.4476883116883 14.3590814814815  11.4018077922078 14.4275851851852  C 11.1524571428571 14.8144296296296  10.8113454545455 15.2113481481481  10.4004155844156 15.6183407407407  C 10.1131636363636 15.9024296296296  9.80795844155844 16.1744296296296  9.49876363636364 16.4282962962963  C 9.31524155844156 16.5794074074074  8.97014025974026 16.8493925925926  9.0638961038961 16.7728296296296  C 8.91628051948052 16.8917037037037  8.73475324675325 16.954162962963  8.54923636363636 16.954162962963  C 8.36371948051948 16.954162962963  8.18418701298702 16.8917037037037  8.03457662337663 16.7728296296296  C 8.13232207792207 16.8514074074074  7.78323116883117 16.5794074074074  7.6017038961039 16.4282962962963  C 7.29250909090909 16.1744296296296  6.9892987012987 15.9044444444444  6.70404155844156 15.6203555555556  C 6.28114285714285 15.2032888888889  5.93205194805195 14.7922666666667  5.68070649350649 14.3933333333333  C 5.5670025974026 14.212  5.47324675324675 14.0326814814815  5.40143376623377 13.8553777777778  C 5.39744415584416 13.8432888888889  5.39744415584416 13.8432888888889  5.39345454545454 13.8352296296296  C 5.28972467532468 13.5733037037037  5.23586493506494 13.319437037037  5.23586493506494 13.0736296296296  C 5.23187532467533 13.0313185185185  5.23187532467533 13.0031111111111  5.23187532467533 12.9648296296296  C 5.23187532467533 11.7075851851852  6.19736103896104 10.6739851851852  7.40022857142857 10.6739851851852  C 7.81315324675325 10.6739851851852  8.21410909090909 10.8009185185185  8.55522077922078 11.0306074074074  C 8.89832727272727 10.8009185185185  9.29728831168831 10.6739851851852  9.71220779220779 10.6739851851852  C 10.9150753246753 10.6739851851852  11.880561038961 11.7096  11.880561038961 12.9648296296296  C 11.880561038961 13.0152  11.880561038961 13.0172148148148  11.8785662337662 13.0494518518519  L 11.8785662337662 13.0736296296296  Z M 10.6397922077922 13.5209185185185  C 10.6657246753247 13.4705481481481  10.6856727272727 13.4221925925926  10.703625974026 13.3718222222222  C 10.7495064935065 13.2489185185185  10.7674597402597 13.1542222222222  10.7674597402597 13.0776592592593  L 11.3220155844156 13.0776592592593  L 10.7674597402597 13.0776592592593  L 10.7674597402597 13.0192296296296  C 10.7674597402597 13.0010962962963  10.7674597402597 13.0010962962963  10.7694545454545 12.9910222222222  L 10.7694545454545 12.9708740740741  C 10.7694545454545 12.3180740740741  10.2847168831169 11.7982518518519  9.70821818181818 11.7982518518519  C 9.43094025974026 11.7982518518519  9.16363636363636 11.9231703703704  8.96216103896104 12.1448  L 8.55322597402597 12.6001481481481  L 8.14229610389611 12.1468148148148  C 7.94082077922078 11.9231703703704  7.67152207792208 11.7982518518519  7.39424415584416 11.7982518518519  C 6.81774545454545 11.7982518518519  6.33300779220779 12.3180740740741  6.33300779220779 12.9708740740741  C 6.33300779220779 12.9728888888889  6.3350025974026 13.0192296296296  6.3369974025974 13.1078814814815  C 6.3369974025974 13.101837037037  6.3369974025974 13.101837037037  6.33899220779221 13.0837037037037  C 6.33899220779221 13.1723555555556  6.36492467532467 13.2892148148148  6.41878441558442 13.4262222222222  C 6.42476883116883 13.4403259259259  6.42476883116883 13.4443555555556  6.42676363636363 13.4463703703704  C 6.47064935064935 13.5531555555556  6.53248831168831 13.6720296296296  6.61228051948052 13.7969481481482  C 6.81176103896104 14.1132740740741  7.10898701298701 14.461837037037  7.47603116883117 14.8245037037037  C 7.73535584415584 15.0824  8.01662337662338 15.3302222222222  8.29988571428571 15.5639407407407  C 8.36770909090908 15.6203555555556  8.46345974025974 15.6969185185185  8.54724155844156 15.7634074074074  C 8.63102337662338 15.6969185185185  8.72677402597403 15.6203555555556  8.7945974025974 15.5639407407407  C 9.07985454545454 15.3282074074074  9.36112207792208 15.0783703703704  9.62244155844156 14.8204740740741  C 9.97951168831168 14.4678814814815  10.2707532467532 14.1273777777778  10.4702337662338 13.8191111111111  C 10.5041454545455 13.7667259259259  10.5340675324675 13.7163555555556  10.5779532467532 13.6397925925926  C 10.5839376623377 13.6317333333333  10.5859324675325 13.6256888888889  10.6018909090909 13.5954666666667  C 10.6118649350649 13.5733037037037  10.6118649350649 13.5733037037037  10.621838961039 13.5551703703704  L 10.6397922077922 13.5209185185185  Z " fill-rule="nonzero" fill="#333333" stroke="none" transform="matrix(1 0 0 1 183 801 )" />
  </g>
</svg>