<?xml version="1.0" encoding="utf-8"?>
<svg version="1.1" xmlns:xlink="http://www.w3.org/1999/xlink" width="22px" height="22px" xmlns="http://www.w3.org/2000/svg">
  <g transform="matrix(1 0 0 1 -31 109 )">
    <path d="M 21.1200101062501 10.5455410087523  C 21.1121151625432 4.7190857296326  16.386620987381 0  10.560160359375 0  C 4.72812604595399 0  0.000320265548410248 4.72780578040456  0.000320265548410248 10.5598497674978  C 0.000320265548410248 16.3918937545911  4.72812604595399 21.1196995349956  10.5601700330484 21.1196995349956  C 16.3922140201429 21.1196995349956  21.1200198005485 16.3918937545911  21.1200198005485 10.5598497674978  C 21.1200198005485 10.5550801796069  21.1200165691149 10.5503105922646  21.1200101062501 10.5455410087523  Z M 11.933799343125 10.6027759818772  L 15.08172204 13.7077724437516  C 15.2918203930414 13.8951022539383  15.4119693715729 14.1632034239631  15.4119693715729 14.4446883715807  C 15.4119693715729 14.9899607805824  14.9699387468247 15.4319914053305  14.4246663378229 15.4319914053305  C 14.1607788958697 15.4319914053305  13.9078736604766 15.3263511138543  13.7223917943749 15.1386464006263  L 10.560160359375 11.9191800131269  L 7.39792892437502 15.0671027100013  C 7.20818324025237 15.2568483941239  6.95083286582539 15.3634464094933  6.6824919459375 15.3634464094933  C 6.12370090734353 15.3634464094933  5.67071126800801 14.9104567701578  5.67071126800801 14.3516657315639  C 5.67071126800801 14.0833248116761  5.77730928337732 13.8259744372492  5.96705496749998 13.6362287531266  L 9.11497766437495 10.4739973181273  L 5.96705496749998 7.32607462125296  C 5.77730928789917 7.13632893891712  5.67071127529999 6.87897856855523  5.67071127529999 6.61063765312814  C 5.67071127529999 6.05184661856159  6.12370091137079 5.59885698249087  6.6824919459375 5.59885698249087  C 6.95083286641831 5.59885698249087  7.20818324120076 5.70545499909394  7.39792892437502 5.89520068500325  L 10.560160359375 9.18621076312756  L 13.7223917943749 6.02397932812823  C 13.9032611382105 5.86271095377493  14.137122904102 5.77359222220758  14.3794474965522 5.77359222220758  C 14.9247199055539 5.77359222220758  15.3667505303021 6.21562284695572  15.3667505303021 6.76089525595739  C 15.3667505303021 7.02070711121869  15.2643392475204 7.27004756092549  15.08172204 7.45485328500297  L 11.933799343125 10.6027759818772  Z " fill-rule="nonzero" fill="#cdcdcd" stroke="none" transform="matrix(1 0 0 1 31 -109 )" />
  </g>
</svg>