<?xml version="1.0" encoding="utf-8"?>
<svg version="1.1" xmlns:xlink="http://www.w3.org/1999/xlink" width="10px" height="15px" xmlns="http://www.w3.org/2000/svg">
  <g transform="matrix(1 0 0 1 -10 -14 )">
    <path d="M 0.34459259259262 8.07991836734693  C 0.214222222222248 7.97216326530613  0.121777777777766 7.83502040816325  0.0814814814814903 7.68612244897959  C 0.00562962962965072 7.41967346938775  0.0933333333333053 7.12775510204082  0.34459259259262 6.92008163265307  L 8.25925925925924 0.378367346938786  C 8.64562962962964 0.0590204081632528  9.27140740740743 0.0590204081632528  9.65540740740738 0.378367346938786  C 10.0394074074074 0.697714285714293  10.0417777777778 1.21493877551019  9.65540740740738 1.53232653061225  L 2.43762962962961 7.5  L 9.65777777777777 13.4676734693878  C 10.0441481481482 13.7870204081633  10.0441481481482 14.3042448979592  9.65777777777777 14.6216326530612  C 9.27140740740743 14.9390204081633  8.64562962962964 14.9409795918367  8.26162962962963 14.6216326530612  L 0.34459259259262 8.07991836734693  Z " fill-rule="nonzero" fill="#f56c6c" stroke="none" transform="matrix(1 0 0 1 10 14 )" />
  </g>
</svg>