<?xml version="1.0" encoding="utf-8"?>
<svg version="1.1" xmlns:xlink="http://www.w3.org/1999/xlink" width="12px" height="10px" xmlns="http://www.w3.org/2000/svg">
  <g transform="matrix(1 0 0 1 -25 -234 )">
    <path d="M 3.47992615384615 8.88953535353535  L 0.228332307692303 5.44517171717169  C 0.0818215384615442 5.2900202020202  0.0558276923077003 5.04694949494947  0.188159999999992 4.8711111111111  L 0.49299692307692 4.46513131313131  C 0.618240000000004 4.29963636363636  0.849821538461536 4.25567676767677  1.01523692307693 4.37204040404039  L 3.64534153846154 6.23385858585856  C 3.78476307692307 6.33212121212122  4.02343384615385 6.31919191919192  4.15340307692309 6.20800000000001  L 11.1032123076923 0.229494949494971  C 11.2591753846154 0.0950303030303168  11.5049353846154 0.105373737373746  11.6419938461539 0.252767676767682  L 11.8121353846154 0.433777777777777  C 11.9610092307692 0.591515151515143  11.9491938461538 0.842343434343427  11.7932307692308 1.0078383838384  L 4.33299692307692 8.90763636363635  C 4.10141538461538 9.15329292929291  3.71859692307692 9.14294949494947  3.47992615384615 8.88953535353535  Z " fill-rule="nonzero" fill="#c8c9cc" stroke="none" transform="matrix(1 0 0 1 25 234 )" />
  </g>
</svg>