<?xml version="1.0" encoding="utf-8"?>
<svg version="1.1" xmlns:xlink="http://www.w3.org/1999/xlink" width="49px" height="20px" xmlns="http://www.w3.org/2000/svg">
  <g transform="matrix(1 0 0 1 -148 -91 )">
    <path d="M 148.5 101  A 9.5 9.5 0 0 1 158 91.5 L 187 91.5  A 9.5 9.5 0 0 1 196.5 101 A 9.5 9.5 0 0 1 187 110.5 L 158 110.5  A 9.5 9.5 0 0 1 148.5 101 Z " fill-rule="nonzero" fill="#f2f2f2" stroke="none" />
    <path d="M 148.5 101  A 9.5 9.5 0 0 1 158 91.5 L 187 91.5  A 9.5 9.5 0 0 1 196.5 101 A 9.5 9.5 0 0 1 187 110.5 L 158 110.5  A 9.5 9.5 0 0 1 148.5 101 Z " stroke-width="1" stroke="#f2f2f2" fill="none" />
  </g>
</svg>