<?xml version="1.0" encoding="utf-8"?>
<svg version="1.1" xmlns:xlink="http://www.w3.org/1999/xlink" width="49px" height="20px" xmlns="http://www.w3.org/2000/svg">
  <defs>
    <linearGradient gradientUnits="userSpaceOnUse" x1="207" y1="101" x2="256" y2="101" id="LinearGradient23">
      <stop id="Stop24" stop-color="#ff5f34" stop-opacity="0.498039215686275" offset="0" />
      <stop id="Stop25" stop-color="#ef0b25" offset="1" />
    </linearGradient>
  </defs>
  <g transform="matrix(1 0 0 1 -207 -91 )">
    <path d="M 207.5 101  A 9.5 9.5 0 0 1 217 91.5 L 246 91.5  A 9.5 9.5 0 0 1 255.5 101 A 9.5 9.5 0 0 1 246 110.5 L 217 110.5  A 9.5 9.5 0 0 1 207.5 101 Z " fill-rule="nonzero" fill="url(#LinearGradient23)" stroke="none" />
    <path d="M 207.5 101  A 9.5 9.5 0 0 1 217 91.5 L 246 91.5  A 9.5 9.5 0 0 1 255.5 101 A 9.5 9.5 0 0 1 246 110.5 L 217 110.5  A 9.5 9.5 0 0 1 207.5 101 Z " stroke-width="1" stroke="#d9001b" fill="none" />
  </g>
</svg>