<?xml version="1.0" encoding="utf-8"?>
<svg version="1.1" xmlns:xlink="http://www.w3.org/1999/xlink" width="9px" height="15px" xmlns="http://www.w3.org/2000/svg">
  <g transform="matrix(1 0 0 1 -49 -56 )">
    <path d="M 0.310133333333358 8.07991836734693  C 0.192800000000023 7.97216326530613  0.10959999999999 7.83502040816325  0.0733333333333412 7.68612244897959  C 0.00506666666668565 7.41967346938775  0.0839999999999748 7.12775510204082  0.310133333333358 6.92008163265307  L 7.43333333333332 0.378367346938786  C 7.78106666666667 0.0590204081632528  8.34426666666668 0.0590204081632528  8.68986666666665 0.378367346938786  C 9.03546666666666 0.697714285714293  9.0376 1.21493877551019  8.68986666666665 1.53232653061225  L 2.19386666666665 7.5  L 8.69199999999999 13.4676734693878  C 9.03973333333335 13.7870204081633  9.03973333333335 14.3042448979592  8.69199999999999 14.6216326530612  C 8.34426666666668 14.9390204081633  7.78106666666667 14.9409795918367  7.43546666666666 14.6216326530612  L 0.310133333333358 8.07991836734693  Z " fill-rule="nonzero" fill="#1989fa" stroke="none" transform="matrix(1 0 0 1 49 56 )" />
  </g>
</svg>