<?xml version="1.0" encoding="utf-8"?>
<svg version="1.1" xmlns:xlink="http://www.w3.org/1999/xlink" width="30px" height="30px" xmlns="http://www.w3.org/2000/svg">
  <g transform="matrix(1 0 0 1 -381 -122 )">
    <path d="M 2.29107692307692 11.2887692307692  C 2.29107692307692 16.3878461538462  6.42276923076923 20.5195384615385  11.5218461538462 20.5195384615385  C 16.6209230769231 20.5195384615385  20.7526153846154 16.3878461538462  20.7526153846154 11.2887692307692  C 20.7526153846154 6.1896923076923  16.6209230769231 2.058  11.5218461538462 2.058  C 6.42276923076923 2.058  2.29107692307692 6.1896923076923  2.29107692307692 11.2887692307692  Z M 22.8055384615385 11.2887692307692  C 22.8018461538462 14.0063076923077  21.8418461538461 16.4986153846154  20.2430769230769 18.4481538461538  L 29.4627692307692 27.6678461538461  C 29.8615384615385 28.0666153846154  29.8615384615385 28.7164615384615  29.4627692307692 29.1189230769231  C 29.064 29.5176923076923  28.4141538461539 29.5176923076923  28.0116923076923 29.1189230769231  L 18.8030769230769 19.9066153846154  C 16.8387692307692 21.5681538461538  14.2984615384615 22.5687692307692  11.5218461538462 22.5687692307692  C 5.28923076923077 22.5687692307692  0.23815384615385 17.5176923076923  0.23815384615385 11.2887692307692  C 0.23815384615385 5.05984615384616  5.28923076923077 0.00507692307692054  11.5218461538462 0.00507692307692054  C 17.7544615384615 0.00507692307692054  22.8055384615385 5.05615384615385  22.8055384615385 11.2887692307692  Z " fill-rule="nonzero" fill="#333333" stroke="none" transform="matrix(1 0 0 1 381 122 )" />
  </g>
</svg>