<?xml version="1.0" encoding="utf-8"?>
<svg version="1.1" xmlns:xlink="http://www.w3.org/1999/xlink" width="16px" height="16px" xmlns="http://www.w3.org/2000/svg">
  <g transform="matrix(1 0 0 1 303 105 )">
    <path d="M 13.1210069444445 6.62026909722219  C 13.1210069444445 8.2353515625  12.5331597222222 9.7146050347222  11.5595269097222 10.853515625  C 11.5595269097222 10.853515625  15.0527994791667 14.3514973958333  15.7093098958333 14.9944227430556  C 16.2488064236111 15.5223090277778  15.6300347222222 16.3421657986111  14.9328993055556 15.6006293402778  C 14.51328125 15.1539279513889  10.8517795138889 11.5621961805556  10.8517795138889 11.5621961805556  C 9.71087239583335 12.5444661458334  8.22675781250003 13.1381293402778  6.60336371527781 13.1381293402778  C 3.00373263888885 13.1381293402778  0.0857421874999697 10.2192491319444  0.0857421874999697 6.6202473958333  C 0.0857421874999697 3.02122395833332  3.00373263888885 0.102886284722217  6.60336371527781 0.102886284722217  C 10.2030164930556 0.102886284722217  13.1210069444445 3.0212456597222  13.1210069444445 6.6202473958333  Z M 12.0883680555556 6.61979166666667  C 12.0883680555556 3.59168836805558  9.63253038194443 1.13595920138891  6.60334201388885 1.13595920138891  C 3.57513020833335 1.13595920138891  1.11929253472219 3.59168836805558  1.11929253472219 6.61979166666667  C 1.11929253472219 9.64887152777775  3.57513020833335 12.1046006944444  6.60334201388885 12.1046006944444  C 9.63250868055555 12.1046006944444  12.0883680555556 9.64884982638887  12.0883680555556 6.61979166666667  Z " fill-rule="nonzero" fill="#000000" stroke="none" transform="matrix(1 0 0 1 -303 -105 )" />
  </g>
</svg>