<?xml version="1.0" encoding="utf-8"?>
<svg version="1.1" xmlns:xlink="http://www.w3.org/1999/xlink" width="16px" height="16px" xmlns="http://www.w3.org/2000/svg">
  <g transform="matrix(1 0 0 1 -358 -57 )">
    <path d="M 15.36000735 7.66948437000167  C 15.3542655727587 3.43206234882371  11.9175425362771 0  7.68011662499998 0  C 3.43863712433017 0  0.000232920398843817 3.43840420393059  0.000232920398843817 7.67989073999843  C 0.000232920398843817 11.9213772760663  3.43863712433017 15.3597814799968  7.68012366039886 15.3597814799968  C 11.9216101964676 15.3597814799968  15.3600144003989 11.9213772760663  15.3600144003989 7.67989073999843  C 15.3600144003989 7.676421948805  15.3600120502654 7.67295315801061  15.36000735 7.66948437000167  Z M 8.679126795 7.71110980500163  L 10.96852512 9.96928905000118  C 11.1213239222119 10.1055289119552  11.2087049975075 10.3005115810641  11.2087049975075 10.5052279066041  C 11.2087049975075 10.9017896586054  10.8872281795088 11.223266476604  10.4906664275076 11.223266476604  C 10.2987482879053 11.223266476604  10.1148172076194 11.1464371737122  9.97992130499995 11.0099246550009  L 7.68011662499998 8.66849455500142  L 5.38031194500002 10.9578928800009  C 5.2423150838199 11.095889741181  5.05515117514574 11.1734155705406  4.8599941425 11.1734155705406  C 4.45360065988621 11.1734155705406  4.12415364946037 10.8439685601148  4.12415364946037 10.437575077501  C 4.12415364946037 10.2424180448554  4.20167947881987 10.0552541361812  4.33967633999998 9.91725727500119  L 6.62907466499996 7.61745259500168  L 4.33967633999998 5.32805427000216  C 4.20167948210849 5.19005741012154  4.12415365476363 5.0028935044038  4.12415365476363 4.80773647500229  C 4.12415365476363 4.40134299531752  4.45360066281512 4.07189598726609  4.8599941425 4.07189598726609  C 5.05515117557695 4.07189598726609  5.24231508450964 4.14942181752286  5.38031194500002 4.28741868000236  L 7.68011662499998 6.68088055500186  L 9.97992130499995 4.38107587500235  C 10.1114626459713 4.26378978456358  10.281543930256 4.19897616160551  10.4577799974925 4.19897616160551  C 10.8543417494938 4.19897616160551  11.1758185674925 4.52045297960416  11.1758185674925 4.91701473160538  C 11.1758185674925 5.10596880815905  11.1013376345603 5.28730731703672  10.96852512 5.42171148000216  L 8.679126795 7.71110980500163  Z " fill-rule="nonzero" fill="#cdcdcd" stroke="none" transform="matrix(1 0 0 1 358 57 )" />
  </g>
</svg>