<?xml version="1.0" encoding="utf-8"?>
<svg version="1.1" xmlns:xlink="http://www.w3.org/1999/xlink" width="18px" height="12px" xmlns="http://www.w3.org/2000/svg">
  <g transform="matrix(1 0 0 1 -263 -682 )">
    <path d="M 16.327955654102 3.27694117647059  L 3.98957427937916 3.27694117647059  L 4.8229623059867 10.4182352941176  C 4.85507095343681 10.6932352941176  5.0919645232816 10.9008431372549  5.37367849223947 10.9008431372549  L 15.1304168514412 10.9008431372549  C 15.3986807095344 10.9008431372549  15.6284301552106 10.7121176470588  15.6759844789357 10.4527058823529  L 16.8735232815965 3.91813725490196  C 16.9277627494457 3.62207843137255  16.727487804878 3.33886274509804  16.4261973392461 3.28556862745098  C 16.3937760745929 3.27983020821163  16.3608987329505 3.27694296484881  16.327955654102 3.27694117647059  Z M 3.77656762749446 1.45170588235294  L 3.86245676274945 2.18760784313726  L 16.327955654102 2.18760784313726  C 16.4267760532151 2.18760784313726  16.5254168514412 2.19627450980392  16.6226607538803 2.21349019607843  C 17.5265720620843 2.37341176470588  18.127376940133 3.22303921568627  17.9646186252772 4.11117647058824  L 16.7670798226164 10.6457647058824  C 16.6244567627494 11.4239803921569  15.9351884700665 11.9901764705882  15.1304168514412 11.9901764705882  L 5.37369844789357 11.9901764705882  C 4.52855654101996 11.9901764705882  3.81781596452328 11.3673333333333  3.72152993348115 10.5423333333333  L 2.67513525498891 1.57580392156863  C 2.6430465631929 1.30080392156863  2.40613303769401 1.09319607843137  2.12441906873614 1.09319607843137  L 0.569853658536585 1.09319607843137  C 0.263694013303769 1.09319607843137  0.0155254988913525 0.849333333333334  0.0155254988913525 0.548529411764706  C 0.0155254988913525 0.247725490196078  0.263694013303769 0.00386274509803927  0.569853658536585 0.00386274509803927  L 2.12441906873614 0.00386274509803927  C 2.96956097560976 0.00386274509803927  3.68030155210643 0.626705882352941  3.77656762749446 1.45170588235294  Z " fill-rule="nonzero" fill="#323233" stroke="none" transform="matrix(1 0 0 1 263 682 )" />
  </g>
</svg>