<?xml version="1.0" encoding="utf-8"?>
<svg version="1.1" xmlns:xlink="http://www.w3.org/1999/xlink" width="19px" height="19px" xmlns="http://www.w3.org/2000/svg">
  <g transform="matrix(1 0 0 1 -174 -682 )">
    <path d="M 17.605856 4.434144  C 17.605856 2.753632  16.246368 1.394144  14.565856 1.394144  C 12.887776 1.394144  11.525856 2.756064  11.525856 4.434144  C 11.525856 6.112224  12.887776 7.474144  14.565856 7.474144  C 16.243936 7.474144  17.605856 6.112224  17.605856 4.434144  Z M 10.173664 4.434144  C 10.173664 2.007008  12.141152 0.0419520000000003  14.565856 0.0419520000000003  C 16.99056 0.0419520000000003  18.958048 2.007008  18.958048 4.434144  C 18.958048 6.86128  16.992992 8.826336  14.565856 8.826336  C 12.13872 8.826336  10.173664 6.86128  10.173664 4.434144  Z M 7.474144 1.394144  L 1.394144 1.394144  L 1.394144 7.474144  L 7.474144 7.474144  L 7.474144 1.394144  Z M 0.0419520000000003 1.394144  C 0.0419520000000003 0.647519999999998  0.647520000000003 0.0419520000000003  1.394144 0.0419520000000003  L 7.474144 0.0419520000000003  C 8.220768 0.0419520000000003  8.826336 0.647519999999998  8.826336 1.394144  L 8.826336 7.474144  C 8.826336 8.220768  8.220768 8.826336  7.474144 8.826336  L 1.394144 8.826336  C 0.647520000000003 8.826336  0.0419520000000003 8.220768  0.0419520000000003 7.474144  L 0.0419520000000003 1.394144  Z M 7.474144 11.525856  L 1.394144 11.525856  L 1.394144 17.605856  L 7.474144 17.605856  L 7.474144 11.525856  Z M 0.0419520000000003 11.528288  C 0.0419520000000003 10.781664  0.647520000000003 10.176096  1.394144 10.176096  L 7.474144 10.176096  C 8.220768 10.176096  8.826336 10.781664  8.826336 11.528288  L 8.826336 17.608288  C 8.826336 18.354912  8.220768 18.96048  7.474144 18.96048  L 1.394144 18.96048  C 0.647520000000003 18.96048  0.0419520000000003 18.354912  0.0419520000000003 17.608288  L 0.0419520000000003 11.528288  Z M 17.605856 11.525856  L 11.525856 11.525856  L 11.525856 17.605856  L 17.605856 17.605856  L 17.605856 11.525856  Z M 10.173664 11.528288  C 10.176096 10.781664  10.781664 10.176096  11.525856 10.176096  L 17.605856 10.176096  C 18.35248 10.176096  18.958048 10.781664  18.958048 11.528288  L 18.958048 17.608288  C 18.958048 18.354912  18.35248 18.96048  17.605856 18.96048  L 11.525856 18.96048  C 10.779232 18.96048  10.173664 18.354912  10.173664 17.608288  L 10.173664 11.528288  Z " fill-rule="nonzero" fill="#323233" stroke="none" transform="matrix(1 0 0 1 174 682 )" />
  </g>
</svg>