<?xml version="1.0" encoding="utf-8"?>
<svg version="1.1" xmlns:xlink="http://www.w3.org/1999/xlink" width="10px" height="16px" xmlns="http://www.w3.org/2000/svg">
  <g transform="matrix(1 0 0 1 -375 -197 )">
    <path d="M 1.04967384499997 1.30497080500004  L 7.70867965000002 7.28887035000005  C 7.92285175000001 7.48135105000006  7.94046505 7.81099400000005  7.74800195 8.02518370000004  C 7.73560255000001 8.03897500000005  7.72247655000001 8.05209515000004  7.70867965000002 8.06448845000006  L 1.04967384000003 14.04840555  C 0.782486031000019 14.2884878500001  0.760530926999991 14.699711  1.00063081500002 14.9668812500001  C 1.24071312500001 15.23406905  1.65193626000001 15.2560065500001  1.91910649499999 15.01592425  L 8.57811229999999 9.03202470000005  C 8.62632669999999 8.98869880000004  8.6721948 8.94283070000006  8.71552070000001 8.89461635000004  C 9.38816600000001 8.14608615000003  9.32664249999999 6.99399695000005  8.57811235000003 6.32135160000004  L 1.91910653000002 0.337452071000058  C 1.65191872000003 0.0973521825000319  1.24071316499999 0.119307286000037  1.000630855 0.386495095000043  C 0.760530963999997 0.653665330000052  0.782486067499974 1.06488846500005  1.04967388 1.30497077500004  Z " fill-rule="nonzero" fill="#cccccc" stroke="none" transform="matrix(1 0 0 1 375 197 )" />
  </g>
</svg>