<?xml version="1.0" encoding="utf-8"?>
<svg version="1.1" xmlns:xlink="http://www.w3.org/1999/xlink" width="9px" height="14px" xmlns="http://www.w3.org/2000/svg">
  <g transform="matrix(1 0 0 1 -373 -181 )">
    <path d="M 8.44993037214886 6.45874285714282  C 8.66981992797116 6.65257142857136  8.74657382953183 6.92502857142852  8.68019207683074 7.17371428571432  C 8.64285234093637 7.3126857142857  8.56402400960383 7.43885714285707  8.44993037214886 7.53942857142865  L 1.52340936374549 13.6468571428572  C 1.18527731092433 13.9449142857144  0.637627851140451 13.9449142857144  0.301570228091236 13.6468571428572  C -0.0344873949579778 13.3487999999999  -0.0365618247299153 12.8660571428572  0.301570228091236 12.5698285714286  L 6.61820888355339 7  L 0.301570228091236 1.43017142857137  C -0.0365618247299153 1.13211428571431  -0.0365618247299153 0.649371428571446  0.301570228091236 0.353142857142802  C 0.639702280912331 0.0550857142857391  1.18735174069627 0.0550857142857391  1.52340936374549 0.353142857142802  L 8.44993037214886 6.45874285714282  Z " fill-rule="nonzero" fill="#969799" stroke="none" transform="matrix(1 0 0 1 373 181 )" />
  </g>
</svg>