<?xml version="1.0" encoding="utf-8"?>
<svg version="1.1" xmlns:xlink="http://www.w3.org/1999/xlink" width="6px" height="10px" xmlns="http://www.w3.org/2000/svg">
  <g transform="matrix(1 0 0 1 -377 -124 )">
    <path d="M 5.6332869147659 4.61338775510202  C 5.77987995198077 4.75183673469382  5.83104921968788 4.94644897959179  5.78679471788712 5.12408163265309  C 5.76190156062421 5.22334693877551  5.70934933973592 5.31346938775505  5.6332869147659 5.38530612244904  L 1.01560624249703 9.74775510204086  C 0.790184873949556 9.96065306122455  0.425085234093672 9.96065306122455  0.201046818727491 9.74775510204086  C -0.0229915966386898 9.53485714285708  -0.0243745498199814 9.19004081632656  0.201046818727491 8.97844897959189  L 4.4121392557023 5  L 0.201046818727491 1.02155102040811  C -0.0243745498199814 0.808653061224504  -0.0243745498199814 0.463836734693899  0.201046818727491 0.252244897959145  C 0.42646818727485 0.0393469387755374  0.791567827130848 0.0393469387755374  1.01560624249703 0.252244897959145  L 5.6332869147659 4.61338775510202  Z " fill-rule="nonzero" fill="#969799" stroke="none" transform="matrix(1 0 0 1 377 124 )" />
  </g>
</svg>