<?xml version="1.0" encoding="utf-8"?>
<svg version="1.1" xmlns:xlink="http://www.w3.org/1999/xlink" width="3px" height="5px" xmlns="http://www.w3.org/2000/svg">
  <g transform="matrix(1 0 0 1 -178 -533 )">
    <path d="M 1.98523636363637 0.460085106382978  L 1.98523636363637 4.24289361702128  L 2.47047272727273 4.24289361702128  C 2.73752727272728 4.24289361702128  2.9557090909091 4.41174468085106  2.9557090909091 4.62144680851064  C 2.9557090909091 4.83114893617021  2.73752727272727 5  2.47047272727273 5  L 0.529527272727272 5  C 0.262472727272726 5  0.0442909090909112 4.83114893617021  0.0442909090909112 4.62144680851064  C 0.0442909090909112 4.41174468085106  0.260727272727273 4.24289361702128  0.529527272727272 4.24289361702128  L 1.01476363636364 4.24289361702128  L 1.01476363636364 0.838638297872339  L 0.772145454545456 0.838638297872339  C 0.50509090909091 0.838638297872339  0.286909090909091 0.669787234042551  0.286909090909091 0.460085106382978  C 0.286909090909091 0.251744680851062  0.503345454545453 0.0815319148936163  0.772145454545456 0.0815319148936163  L 1.5 0.0815319148936163  C 1.76705454545454 0.0815319148936163  1.98523636363637 0.250382978723405  1.98523636363637 0.460085106382978  Z " fill-rule="nonzero" fill="#323233" stroke="none" transform="matrix(1 0 0 1 178 533 )" />
  </g>
</svg>