<?xml version="1.0" encoding="utf-8"?>
<svg version="1.1" xmlns:xlink="http://www.w3.org/1999/xlink" width="12px" height="12px" xmlns="http://www.w3.org/2000/svg">
  <g transform="matrix(1 0 0 1 -286 -557 )">
    <path d="M 6.37456842105263 0.459615245009074  L 6.37456842105263 0.862431941923774  C 8.67991578947368 1.05896188747731  10.4921263157895 3.05771324863884  10.4921263157895 5.4927332123412  L 10.4921263157895 9.36479128856624  L 11.6144842105263 9.36479128856624  C 11.8206315789474 9.36479128856624  11.9890526315789 9.53762613430127  11.9890526315789 9.75227586206896  C 11.9890526315789 9.96553176043557  11.8219789473684 10.1397604355717  11.6144842105263 10  L 0.385515789473683 10  C 0.179368421052632 10.1397604355717  0.0109473684210514 9.96692558983666  0.0109473684210514 9.75227586206896  C 0.0109473684210514 9.53901996370236  0.178021052631578 9.36479128856624  0.385515789473683 9.36479128856624  L 1.50787368421053 9.36479128856624  L 1.50787368421053 5.4927332123412  C 1.50787368421053 3.05771324863884  3.32008421052632 1.05896188747731  5.62543157894737 0.862431941923774  L 5.62543157894737 0.459615245009074  C 5.62543157894737 0.246359346642469  5.79250526315789 0.0721306715063508  6 0.0721306715063508  C 6.2074947368421 0.0721306715063508  6.37456842105263 0.244965517241379  6.37456842105263 0.459615245009074  Z M 6.00134736842105 11.6869110707804  C 5.38021052631579 11.6883049001815  4.87764210526316 11.1684065335753  4.87764210526316 10.5258511796733  L 7.1237052631579 10.5258511796733  C 7.1237052631579 11.1670127041742  6.62113684210526 11.6869110707804  6.00134736842105 11.6869110707804  Z " fill-rule="nonzero" fill="#323233" stroke="none" transform="matrix(1 0 0 1 286 557 )" />
  </g>
</svg>