<?xml version="1.0" encoding="utf-8"?>
<svg version="1.1" xmlns:xlink="http://www.w3.org/1999/xlink" width="23px" height="20px" xmlns="http://www.w3.org/2000/svg">
  <g transform="matrix(1 0 0 1 -30 -1725 )">
    <path d="M 2.87998601398601 9.88676923076923  L 9.08194405594406 16.1587692307692  L 11.4700839160839 18.5932307692308  L 20.0447412587413 9.89907692307692  C 22.0108391608392 7.90523076923077  21.9645174825175 4.77661538461538  19.9366573426573 2.83938461538461  C 17.9422517482517 0.931692307692307  14.710027972028 0.931692307692307  12.7181958041958 2.83938461538461  L 11.4572167832168 4.04553846153846  L 10.1962377622378 2.83938461538461  C 8.20440559440559 0.934153846153843  4.97475524475524 0.934153846153843  2.98292307692308 2.83938461538461  C 0.96020979020979 4.77415384615385  0.913888111888111 7.90030769230769  2.87998601398601 9.88676923076923  Z M 1.96641958041958 1.872  C 4.51925874125874 -0.569846153846153  8.65475524475524 -0.569846153846153  11.205020979021 1.86953846153846  L 11.4572167832168 2.11076923076923  L 11.7094125874126 1.86953846153846  C 14.2622517482517 -0.572307692307694  18.3977482517482 -0.572307692307694  20.9505874125874 1.86953846153846  C 23.524013986014 4.33107692307692  23.5832027972028 8.304  21.086979020979 10.8344615384615  L 12.5097482517483 19.5310769230769  L 12.447986013986 19.5901538461538  C 11.8715384615385 20.1070769230769  10.9682657342657 20.08  10.4278461538462 19.5286153846154  L 8.04485314685314 17.0990769230769  L 1.83774825174825 10.8270769230769  C -0.66104895104895 8.30153846153846  -0.604433566433569 4.33107692307692  1.96641958041958 1.872  Z " fill-rule="nonzero" fill="#ffffff" stroke="none" transform="matrix(1 0 0 1 30 1725 )" />
  </g>
</svg>