<?xml version="1.0" encoding="utf-8"?>
<svg version="1.1" xmlns:xlink="http://www.w3.org/1999/xlink" width="20px" height="15px" xmlns="http://www.w3.org/2000/svg">
  <g transform="matrix(1 0 0 1 -131 -1725 )">
    <path d="M 18.0993103448276 4.09849518987342  L 4.45627586206896 4.10092556962026  L 5.37875862068966 12.9523686075949  C 5.41406896551724 13.2926217721519  5.67668965517241 13.5502420253165  5.98786206896552 13.5502420253165  L 16.7751724137931 13.5502420253165  C 17.0708965517241 13.5502420253165  17.3268965517241 13.3169255696203  17.3776551724138 12.9936850632911  L 18.7017931034483 4.89322936708861  C 18.7613793103448 4.52624202531645  18.5406896551724 4.17626734177215  18.2074482758621 4.10821670886076  C 18.1721379310345 4.10092556962026  18.1346206896552 4.09849518987342  18.0993103448276 4.09849518987342  Z M 4.22013793103448 1.83581164556962  C 4.22013793103448 1.83824202531646  4.31503448275862 2.74963443037975  4.31503448275862 3  L 18.0993103448276 3  C 18.2096551724138 2.74963443037975  18.3177931034483 2.75935594936709  18.4259310344828 2.78122936708861  C 19.4256551724138 2.98052050632911  20.0899310344828 4.03287493670886  19.9089655172414 5.13383696202531  L 18.5848275862069 13.2342926582278  C 18.4281379310345 14.1991534177215  17.6645517241379 14.901533164557  16.7751724137931 15  L 5.98565517241379 15  C 5.04993103448276 14.901533164557  4.26427586206897 14.1286724050633  4.15834482758621 13.1079129113924  L 3.00193103448276 1.99135594936709  C 2.96662068965517 1.65110278481013  2.704 1.39348253164557  2.3928275862069 1.39348253164557  L 0.673655172413793 1.39348253164557  C 0.335999999999999 1.39348253164557  0.0601379310344849 1.09211544303797  0.0601379310344849 0.717836962025315  C 0.0601379310344849 0.343558481012661  0.333793103448277 0.0421913924050639  0.673655172413793 0.0421913924050639  L 2.3928275862069 0.0421913924050639  C 3.32855172413793 0.0421913924050639  4.11420689655173 0.815052151898735  4.22013793103448 1.83581164556962  Z " fill-rule="nonzero" fill="#ffffff" stroke="none" transform="matrix(1 0 0 1 131 1725 )" />
  </g>
</svg>