<?xml version="1.0" encoding="utf-8"?>
<svg version="1.1" xmlns:xlink="http://www.w3.org/1999/xlink" width="22px" height="20px" xmlns="http://www.w3.org/2000/svg">
  <g transform="matrix(1 0 0 1 -219 -1721 )">
    <path d="M 1.614272 18.3717849462366  L 1.614272 12.255311827957  L 3.179968 12.255311827957  L 3.179968 18.3717849462366  L 1.614272 18.3717849462366  Z M 4.745664 12.255311827957  C 4.742848 11.4102365591398  4.041664 10.7248172043011  3.177152 10.7248172043011  L 0.048576000000002 10.7248172043011  L 0.048576000000002 18.3717849462366  C 0.048576000000002 19.2168602150538  0.74976 19.9022795698925  1.614272 19.9022795698925  L 3.179968 19.9022795698925  C 4.04448 19.9022795698925  4.745664 19.2168602150538  4.745664 18.3717849462366  L 4.745664 12.255311827957  Z M 20.385728 18.3717849462366  L 20.385728 12.255311827957  L 18.820032 12.255311827957  L 18.820032 18.3717849462366  L 20.385728 18.3717849462366  Z M 17.254336 12.255311827957  C 17.257152 11.4102365591398  17.958336 10.7248172043011  18.822848 10.7248172043011  L 21.951424 10.7248172043011  L 21.951424 18.3717849462366  C 21.951424 19.2168602150538  21.25024 19.9022795698925  20.385728 19.9022795698925  L 18.820032 19.9022795698925  C 17.95552 19.9022795698925  17.254336 19.2168602150538  17.254336 18.3717849462366  L 17.254336 12.255311827957  Z M 11 1.55010752688172  C 5.815744 1.55010752688172  1.614272 5.65711827956989  1.614272 10.7248172043011  L 0.048575999999996 10.7248172043011  C 0.048575999999996 4.81204301075269  4.951232 0.0196129032258045  11 0.0196129032258045  C 17.048768 0.0196129032258045  21.951424 4.81204301075269  21.951424 10.7248172043011  L 20.385728 10.7248172043011  C 20.385728 5.65711827956989  16.184256 1.55010752688172  11 1.55010752688172  Z " fill-rule="nonzero" fill="#323233" stroke="none" transform="matrix(1 0 0 1 219 1721 )" />
  </g>
</svg>