<?xml version="1.0" encoding="utf-8"?>
<svg version="1.1" xmlns:xlink="http://www.w3.org/1999/xlink" width="13px" height="11px" xmlns="http://www.w3.org/2000/svg">
  <g transform="matrix(1 0 0 1 -232 -1740 )">
    <path d="M 11.092224 4.76563999999999  L 11.092224 1.1858  C 11.092224 0.647239999999996  11.504896 0.207239999999999  12.017408 0.207239999999999  C 12.526592 0.207239999999999  12.942592 0.643720000000002  12.942592 1.1858  L 12.942592 4.7762  C 12.915968 8.76436  11.142144 10.9714  7.82080000000001 10.9714  L 0.931840000000001 10.9714  C 0.422656000000004 10.9714  0.00665599999999955 10.53492  0.00665599999999955 9.99284  C 0.00665599999999955 9.45428  0.419328 9.01427999999999  0.931840000000001 9.01427999999999  L 7.82079999999999 9.01427999999999  C 10.047232 9.01427999999999  11.072256 7.74003999999999  11.092224 4.76563999999999  Z " fill-rule="nonzero" fill="#323233" stroke="none" transform="matrix(1 0 0 1 232 1740 )" />
  </g>
</svg>