<?xml version="1.0" encoding="utf-8"?>
<svg version="1.1" xmlns:xlink="http://www.w3.org/1999/xlink" width="165px" height="120px" xmlns="http://www.w3.org/2000/svg">
  <g transform="matrix(1 0 0 1 -15 -3784 )">
    <path d="M 15 3784  L 180 3784  L 180 3904  L 15 3904  L 15 3784  " fill-rule="nonzero" fill="#cccccc" stroke="none" />
    <path d="M 23 3792  L 172 3792  L 172 3896  L 23 3896  L 23 3792  " fill-rule="nonzero" fill="#ffffff" stroke="none" />
    <path d="M 109.8 3820  C 104.76 3820  100.8 3816.04  100.8 3811  C 100.8 3805.96  104.76 3802  109.8 3802  C 114.84 3802  118.8 3805.96  118.8 3811  C 118.8 3816.04  114.84 3820  109.8 3820  " fill-rule="nonzero" fill="#cccccc" stroke="none" />
    <path d="M 26 3893  L 26 3839.1  L 61.75 3814.6  L 111.8 3850.23636363636  L 140.4 3829.3  L 169 3850.23636363636  L 169 3893  L 26 3893  " fill-rule="nonzero" fill="#169bd5" stroke="none" />
  </g>
</svg>