<?xml version="1.0" encoding="utf-8"?>
<svg version="1.1" xmlns:xlink="http://www.w3.org/1999/xlink" width="150px" height="267px" xmlns="http://www.w3.org/2000/svg">
  <g transform="matrix(1 0 0 1 -403 -3445 )">
    <path d="M 403 3445  L 553 3445  L 553 3712  L 403 3712  L 403 3445  " fill-rule="nonzero" fill="#cccccc" stroke="none" />
    <path d="M 414 3456  L 542 3456  L 542 3701  L 414 3701  L 414 3456  " fill-rule="nonzero" fill="#ffffff" stroke="none" />
    <path d="M 492.25 3507.55  C 485.95 3507.55  481 3502.6  481 3496.3  C 481 3490  485.95 3485.05  492.25 3485.05  C 498.55 3485.05  503.5 3490  503.5 3496.3  C 503.5 3502.6  498.55 3507.55  492.25 3507.55  " fill-rule="nonzero" fill="#cccccc" stroke="none" />
    <path d="M 418 3697  L 418 3566.65  L 448 3507.4  L 490 3554.8  L 514 3542.95  L 538 3554.8  L 538 3697  L 418 3697  " fill-rule="nonzero" fill="#169bd5" stroke="none" />
  </g>
</svg>