<?xml version="1.0" encoding="utf-8"?>
<svg version="1.1" xmlns:xlink="http://www.w3.org/1999/xlink" width="185px" height="140px" xmlns="http://www.w3.org/2000/svg">
  <g transform="matrix(1 0 0 1 -163 -3708 )">
    <path d="M 163 3708  L 348 3708  L 348 3848  L 163 3848  L 163 3708  " fill-rule="nonzero" fill="#cccccc" stroke="none" />
    <path d="M 173 3718  L 338 3718  L 338 3838  L 173 3838  L 173 3718  " fill-rule="nonzero" fill="#ffffff" stroke="none" />
    <path d="M 269.7 3750  C 263.82 3750  259.2 3745.38  259.2 3739.5  C 259.2 3733.62  263.82 3729  269.7 3729  C 275.58 3729  280.2 3733.62  280.2 3739.5  C 280.2 3745.38  275.58 3750  269.7 3750  " fill-rule="nonzero" fill="#cccccc" stroke="none" />
    <path d="M 177 3835  L 177 3772.85  L 216.5 3744.6  L 271.8 3783.69189189189  L 303.4 3761.55  L 335 3783.69189189189  L 335 3835  L 177 3835  " fill-rule="nonzero" fill="#169bd5" stroke="none" />
  </g>
</svg>