<?xml version="1.0" encoding="utf-8"?>
<svg version="1.1" xmlns:xlink="http://www.w3.org/1999/xlink" width="8px" height="13px" xmlns="http://www.w3.org/2000/svg">
  <g transform="matrix(1 0 0 1 -337 -15 )">
    <path d="M 6.99920149393091 6.28554920634917  C 7.18162838468717 6.45784126984124  7.24530569561159 6.70002539682537  7.190233426704 6.92107936507937  C 7.15925527544351 7.04460952380951  7.09385695611576 7.1567619047618  6.99920149393091 7.24615873015881  L 1.25275443510736 12.6749841269842  C 0.97223006535944 12.9399238095239  0.517883846872081 12.9399238095239  0.239080485527552 12.6749841269842  C -0.0397228758169916 12.4100444444444  -0.0414438842203708 11.9809396825397  0.239080485527552 11.7176253968254  L 5.47955107376281 6.76666666666664  L 0.239080485527552 1.81570793650792  C -0.0414438842203708 1.5507682539683  -0.0414438842203708 1.12166349206355  0.239080485527552 0.858349206349122  C 0.519604855275418 0.593409523809555  0.973951073762834 0.593409523809555  1.25275443510736 0.858349206349122  L 6.99920149393091 6.28554920634917  Z " fill-rule="nonzero" fill="#000000" stroke="none" transform="matrix(1 0 0 1 337 15 )" />
  </g>
</svg>