<?xml version="1.0" encoding="utf-8"?>
<svg version="1.1" xmlns:xlink="http://www.w3.org/1999/xlink" width="160px" height="120px" xmlns="http://www.w3.org/2000/svg">
  <g transform="matrix(1 0 0 1 -185 -4802 )">
    <path d="M 185 4802  L 345 4802  L 345 4922  L 185 4922  L 185 4802  " fill-rule="nonzero" fill="#cccccc" stroke="none" />
    <path d="M 193 4810  L 337 4810  L 337 4914  L 193 4914  L 193 4810  " fill-rule="nonzero" fill="#ffffff" stroke="none" />
    <path d="M 277.2 4838  C 272.16 4838  268.2 4834.04  268.2 4829  C 268.2 4823.96  272.16 4820  277.2 4820  C 282.24 4820  286.2 4823.96  286.2 4829  C 286.2 4834.04  282.24 4838  277.2 4838  " fill-rule="nonzero" fill="#cccccc" stroke="none" />
    <path d="M 196 4911  L 196 4857.1  L 230.5 4832.6  L 278.8 4866.9  L 306.4 4847.3  L 334 4866.9  L 334 4911  L 196 4911  " fill-rule="nonzero" fill="#169bd5" stroke="none" />
  </g>
</svg>