<?xml version="1.0" encoding="utf-8"?>
<svg version="1.1" xmlns:xlink="http://www.w3.org/1999/xlink" width="120px" height="120px" xmlns="http://www.w3.org/2000/svg">
  <g transform="matrix(1 0 0 1 -20 -2755 )">
    <path d="M 20 2755  L 140 2755  L 140 2875  L 20 2875  L 20 2755  " fill-rule="nonzero" fill="#cccccc" stroke="none" />
    <path d="M 28 2763  L 132 2763  L 132 2867  L 28 2867  L 28 2763  " fill-rule="nonzero" fill="#ffffff" stroke="none" />
    <path d="M 91.4 2791  C 86.36 2791  82.4 2787.04  82.4 2782  C 82.4 2776.96  86.36 2773  91.4 2773  C 96.44 2773  100.4 2776.96  100.4 2782  C 100.4 2787.04  96.44 2791  91.4 2791  " fill-rule="nonzero" fill="#cccccc" stroke="none" />
    <path d="M 31 2864  L 31 2810.1  L 55.5 2785.6  L 89.8 2805.2  L 109.4 2800.3  L 129 2805.2  L 129 2864  L 31 2864  " fill-rule="nonzero" fill="#169bd5" stroke="none" />
  </g>
</svg>