<?xml version="1.0" encoding="utf-8"?>
<svg version="1.1" xmlns:xlink="http://www.w3.org/1999/xlink" width="15px" height="15px" xmlns="http://www.w3.org/2000/svg">
  <g transform="matrix(1 0 0 1 -255 -2934 )">
    <path d="M 14.1273712804878 8.13504967479675  L 8.11472447154472 8.13504967479675  L 8.11472447154472 14.1476964837398  C 8.11472447154472 14.5308408333333  7.8041018902439 14.8414634146341  7.42095754065041 14.8414634146341  C 7.03781319105691 14.8414634146341  6.7271906097561 14.5308408333333  6.7271906097561 14.1476964837398  L 6.7271906097561 8.13504967479675  L 0.714543821138211 8.13504967479675  C 0.331399471544714 8.13504967479675  0.0207768902439014 7.82442709349594  0.0207768699186985 7.44128274390244  C 0.0207768495934957 7.05813839430895  0.331399451219511 6.74751581300813  0.714543821138211 6.74751581300813  L 6.7271906097561 6.74751581300813  L 6.7271906097561 0.734869024390246  C 6.7271906097561 0.351724674796749  7.03781319105691 0.0411020934959367  7.42095754065041 0.0411020731707339  C 7.8041018902439 0.041102052845531  8.11472447154472 0.351724654471546  8.11472447154472 0.734869024390246  L 8.11472447154472 6.74751581300813  L 14.1273712804878 6.74751581300813  C 14.5105156300813 6.74751581300813  14.8211382113821 7.05813839430895  14.8211382113821 7.44128274390244  C 14.8211382113821 7.82442709349594  14.5105156300813 8.13504967479675  14.1273712804878 8.13504967479675  Z " fill-rule="nonzero" fill="#ffffff" stroke="none" transform="matrix(1 0 0 1 255 2934 )" />
  </g>
</svg>