<?xml version="1.0" encoding="utf-8"?>
<svg version="1.1" xmlns:xlink="http://www.w3.org/1999/xlink" width="17px" height="12px" xmlns="http://www.w3.org/2000/svg">
  <g transform="matrix(1 0 0 1 -198 -1729 )">
    <path d="M 15.3844137931034 3.27879615189874  L 3.78783448275862 3.2807404556962  L 4.57194482758621 10.3618948860759  C 4.60195862068965 10.6340974177215  4.82518620689655 10.8401936202532  5.08968275862069 10.8401936202532  L 14.2588965517241 10.8401936202532  C 14.5102620689655 10.8401936202532  14.7278620689655 10.6535404556962  14.7710068965517 10.3949480506329  L 15.896524137931 3.91458349367089  C 15.9471724137931 3.62099362025316  15.7595862068966 3.34101387341772  15.4763310344828 3.28657336708861  C 15.4463172413793 3.2807404556962  15.4144275862069 3.27879615189874  15.3844137931034 3.27879615189874  Z M 3.58711724137931 1.4686493164557  C 3.58711724137931 1.47059362025317  3.66777931034483 2.1997075443038  3.66777931034483 2.1997075443038  L 15.3844137931034 2.1997075443038  C 15.4782068965517 2.1997075443038  15.570124137931 2.20748475949367  15.6620413793103 2.22498349367089  C 16.5118068965517 2.38441640506329  17.0764413793103 3.22629994936709  16.9226206896552 4.10706956962025  L 15.7971034482759 10.5874341265823  C 15.6639172413793 11.3593227341772  15.0148689655172 11.9212265316456  14.2588965517241 11.9212265316456  L 5.08780689655172 11.9212265316456  C 4.29244137931035 11.9212265316456  3.62463448275862 11.3029379240506  3.53459310344827 10.4863303291139  L 2.55164137931034 1.59308475949367  C 2.5216275862069 1.3208822278481  2.2984 1.11478602531646  2.03390344827586 1.11478602531646  L 0.572606896551724 1.11478602531646  C 0.285599999999999 1.11478602531646  0.0511172413793121 0.873692354430379  0.0511172413793121 0.574269569620252  C 0.0511172413793121 0.274846784810128  0.283724137931035 0.0337531139240511  0.572606896551724 0.0337531139240511  L 2.03390344827586 0.0337531139240511  C 2.82926896551724 0.0337531139240511  3.49707586206897 0.652041721518988  3.58711724137931 1.4686493164557  Z " fill-rule="nonzero" fill="#ffffff" stroke="none" transform="matrix(1 0 0 1 198 1729 )" />
  </g>
</svg>