<?xml version="1.0" encoding="utf-8"?>
<svg version="1.1" xmlns:xlink="http://www.w3.org/1999/xlink" width="25px" height="23px" xmlns="http://www.w3.org/2000/svg">
  <g transform="matrix(1 0 0 1 -93 -1723 )">
    <path d="M 3.13041958041958 11.3697846153846  L 9.87167832167832 18.5825846153846  L 12.4674825174825 21.3822153846154  L 21.7877622377622 11.3839384615385  C 23.9248251748252 9.09101538461538  23.8744755244755 5.49310769230769  21.6702797202797 3.2652923076923  C 19.5024475524475 1.07144615384615  15.9891608391608 1.07144615384615  13.8241258741259 3.2652923076923  L 12.4534965034965 4.65236923076923  L 11.0828671328671 3.2652923076923  C 8.91783216783216 1.07427692307692  5.40734265734265 1.07427692307692  3.24230769230769 3.2652923076923  C 1.04370629370629 5.49027692307692  0.993356643356643 9.08535384615385  3.13041958041958 11.3697846153846  Z M 2.13741258741259 2.1528  C 4.91223776223776 -0.655323076923075  9.40734265734266 -0.655323076923075  12.1793706293706 2.14996923076923  L 12.4534965034965 2.42738461538462  L 12.7276223776224 2.14996923076923  C 15.5024475524475 -0.658153846153848  19.9975524475524 -0.658153846153848  22.7723776223776 2.14996923076923  C 25.5695804195804 4.98073846153846  25.6339160839161 9.5496  22.9206293706294 12.4596307692308  L 13.5975524475524 22.4607384615385  L 13.5304195804196 22.5286769230769  C 12.9038461538462 23.1231384615385  11.922027972028 23.092  11.3346153846154 22.4579076923077  L 8.74440559440559 19.6639384615385  L 1.99755244755245 12.4511384615385  C -0.718531468531467 9.54676923076923  -0.65699300699301 4.98073846153846  2.13741258741259 2.1528  Z " fill-rule="nonzero" fill="#ff9732" stroke="none" transform="matrix(1 0 0 1 93 1723 )" />
  </g>
</svg>