<?xml version="1.0" encoding="utf-8"?>
<svg version="1.1" xmlns:xlink="http://www.w3.org/1999/xlink" width="18px" height="18px" xmlns="http://www.w3.org/2000/svg">
  <g transform="matrix(1 0 0 1 -155 -1718 )">
    <path d="M 164 1718  C 169.04 1718  173 1721.96  173 1727  C 173 1732.04  169.04 1736  164 1736  C 158.96 1736  155 1732.04  155 1727  C 155 1721.96  158.96 1718  164 1718  Z " fill-rule="nonzero" fill="#ffffff" stroke="none" />
    <path d="M 164 1718.5  C 168.76 1718.5  172.5 1722.24  172.5 1727  C 172.5 1731.76  168.76 1735.5  164 1735.5  C 159.24 1735.5  155.5 1731.76  155.5 1727  C 155.5 1722.24  159.24 1718.5  164 1718.5  Z " stroke-width="1" stroke="#797979" fill="none" />
  </g>
</svg>