<?xml version="1.0" encoding="utf-8"?>
<svg version="1.1" xmlns:xlink="http://www.w3.org/1999/xlink" width="19px" height="17px" xmlns="http://www.w3.org/2000/svg">
  <g transform="matrix(1 0 0 1 -32 -1723 )">
    <path d="M 1.394144 15.6160172043011  L 1.394144 10.4170150537634  L 2.746336 10.4170150537634  L 2.746336 15.6160172043011  L 1.394144 15.6160172043011  Z M 4.098528 10.4170150537634  C 4.096096 9.69870107526882  3.490528 9.11609462365591  2.743904 9.11609462365591  L 0.0419520000000017 9.11609462365591  L 0.0419520000000017 15.6160172043011  C 0.0419520000000017 16.3343311827957  0.64752 16.9169376344086  1.394144 16.9169376344086  L 2.746336 16.9169376344086  C 3.49296 16.9169376344086  4.098528 16.3343311827957  4.098528 15.6160172043011  L 4.098528 10.4170150537634  Z M 17.605856 15.6160172043011  L 17.605856 10.4170150537634  L 16.253664 10.4170150537634  L 16.253664 15.6160172043011  L 17.605856 15.6160172043011  Z M 14.901472 10.4170150537634  C 14.903904 9.69870107526882  15.509472 9.11609462365591  16.256096 9.11609462365591  L 18.958048 9.11609462365591  L 18.958048 15.6160172043011  C 18.958048 16.3343311827957  18.35248 16.9169376344086  17.605856 16.9169376344086  L 16.253664 16.9169376344086  C 15.50704 16.9169376344086  14.901472 16.3343311827957  14.901472 15.6160172043011  L 14.901472 10.4170150537634  Z M 9.5 1.31759139784946  C 5.022688 1.31759139784946  1.394144 4.80855053763441  1.394144 9.11609462365591  L 0.0419519999999965 9.11609462365591  C 0.0419519999999965 4.09023655913979  4.276064 0.0166709677419338  9.5 0.0166709677419338  C 14.723936 0.0166709677419338  18.958048 4.09023655913979  18.958048 9.11609462365591  L 17.605856 9.11609462365591  C 17.605856 4.80855053763441  13.977312 1.31759139784946  9.5 1.31759139784946  Z " fill-rule="nonzero" fill="#909399" stroke="none" transform="matrix(1 0 0 1 32 1723 )" />
  </g>
</svg>