<?xml version="1.0" encoding="utf-8"?>
<svg version="1.1" xmlns:xlink="http://www.w3.org/1999/xlink" width="12px" height="9px" xmlns="http://www.w3.org/2000/svg">
  <g transform="matrix(1 0 0 1 -43 -1739 )">
    <path d="M 10.238976 3.89915999999999  L 10.238976 0.9702  C 10.238976 0.529559999999997  10.619904 0.169559999999999  11.092992 0.169559999999999  C 11.563008 0.169559999999999  11.947008 0.526680000000001  11.947008 0.9702  L 11.947008 3.9078  C 11.922432 7.17084  10.285056 8.97659999999999  7.21920000000001 8.97659999999999  L 0.860160000000001 8.97659999999999  C 0.390144000000003 8.97659999999999  0.00614399999999959 8.61948  0.00614399999999959 8.17596  C 0.00614399999999959 7.73532  0.387072 7.37531999999999  0.860160000000001 7.37531999999999  L 7.21919999999999 7.37531999999999  C 9.274368 7.37531999999999  10.220544 6.33275999999999  10.238976 3.89915999999999  Z " fill-rule="nonzero" fill="#909399" stroke="none" transform="matrix(1 0 0 1 43 1739 )" />
  </g>
</svg>