<?xml version="1.0" encoding="utf-8"?>
<svg version="1.1" xmlns:xlink="http://www.w3.org/1999/xlink" width="10px" height="14px" xmlns="http://www.w3.org/2000/svg">
  <g transform="matrix(1 0 0 1 -10 -14 )">
    <path d="M 0.0466976744186051 5.10114418604651  C 0.0466976744186051 7.65318139534884  1.50083720930233 10.499023255814  4.40911627906977 13.6386697674419  L 4.41506976744186 13.6449209302326  C 4.73060465116279 13.9856093023256  5.2500465116279 13.993423255814  5.57451162790698 13.662111627907  L 5.58939534883721 13.6464837209302  C 8.5006511627907 10.5146511627907  9.95627906976744 7.66724651162791  9.95627906976744 5.10270697674418  C 9.95627906976744 2.29280930232558  7.73860465116279 0.0158232558139535  5.00297674418605 0.0158232558139535  C 2.2673488372093 0.0158232558139535  0.0466976744186051 2.29124651162791  0.0466976744186051 5.10114418604651  Z M 6.66102325581395 5.21679069767442  C 6.66102325581395 6.17946976744186  5.91683720930232 6.96086511627907  5 6.96086511627907  C 4.08316279069768 6.96086511627907  3.33897674418605 6.17946976744186  3.33897674418605 5.21679069767442  C 3.33897674418605 4.25411162790698  4.08316279069767 3.47271627906977  5 3.47271627906977  C 5.91683720930232 3.47271627906977  6.66102325581395 4.25411162790698  6.66102325581395 5.21679069767442  Z " fill-rule="nonzero" fill="#d9001b" stroke="none" transform="matrix(1 0 0 1 10 14 )" />
  </g>
</svg>