<?xml version="1.0" encoding="utf-8"?>
<svg version="1.1" xmlns:xlink="http://www.w3.org/1999/xlink" width="12px" height="12px" xmlns="http://www.w3.org/2000/svg">
  <g transform="matrix(1 0 0 1 -173 -528 )">
    <path d="M 0.760084210526315 6  C 0.760084210526315 8.89414736842105  3.10585263157895 11.2399157894737  6 11.2399157894737  C 8.89414736842105 11.2399157894737  11.2399157894737 8.89414736842105  11.2399157894737 6  C 11.2399157894737 3.10585263157895  8.89414736842105 0.760084210526315  6 0.760084210526315  C 3.10585263157895 0.760084210526315  0.760084210526315 3.10585263157895  0.760084210526315 6  Z M 11.9877052631579 6  C 11.9877052631579 9.30644210526316  9.30778947368421 11.9877052631579  6 11.9877052631579  C 2.69221052631579 11.9877052631579  0.0122947368421052 9.30778947368421  0.0122947368421052 6  C 0.0122947368421052 2.69221052631579  2.69221052631579 0.0122947368421052  6 0.0122947368421052  C 9.30778947368421 0.0122947368421052  11.9877052631579 2.69355789473684  11.9877052631579 6  Z " fill-rule="nonzero" fill="#323233" stroke="none" transform="matrix(1 0 0 1 173 528 )" />
  </g>
</svg>