<?xml version="1.0" encoding="utf-8"?>
<svg version="1.1" xmlns:xlink="http://www.w3.org/1999/xlink" width="200px" height="170px" xmlns="http://www.w3.org/2000/svg">
  <g transform="matrix(1 0 0 1 -148 -3467 )">
    <path d="M 148 3467  L 348 3467  L 348 3637  L 148 3637  L 148 3467  " fill-rule="nonzero" fill="#cccccc" stroke="none" />
    <path d="M 160 3479  L 336 3479  L 336 3625  L 160 3625  L 160 3479  " fill-rule="nonzero" fill="#ffffff" stroke="none" />
    <path d="M 264.75 3518  C 257.61 3518  252 3512.39  252 3505.25  C 252 3498.11  257.61 3492.5  264.75 3492.5  C 271.89 3492.5  277.5 3498.11  277.5 3505.25  C 277.5 3512.39  271.89 3518  264.75 3518  " fill-rule="nonzero" fill="#cccccc" stroke="none" />
    <path d="M 165 3621  L 165 3545.65  L 206.75 3511.4  L 265.2 3551.13  L 298.6 3531.95  L 332 3551.13  L 332 3621  L 165 3621  " fill-rule="nonzero" fill="#169bd5" stroke="none" />
  </g>
</svg>