<?xml version="1.0" encoding="utf-8"?>
<svg version="1.1" xmlns:xlink="http://www.w3.org/1999/xlink" width="18px" height="18px" xmlns="http://www.w3.org/2000/svg">
  <g transform="matrix(1 0 0 1 -172 -849 )">
    <path d="M 17.7259821428572 17.6633035714286  C 18.0052232142857 17.3880803571428  18.0052232142857 16.9400892857143  17.7279910714286 16.6628571428571  L 13.6920535714286 12.6369642857143  C 14.1782142857143 12.0563839285714  14.5719642857143 11.4095089285714  14.8692857142857 10.7083928571428  C 15.2710714285714 9.76017857142858  15.4739732142857 8.75169642857145  15.4739732142857 7.71508928571427  C 15.4739732142857 6.67848214285715  15.2710714285714 5.67000000000002  14.8692857142857 4.72178571428572  C 14.4815625 3.80571428571426  13.9291071428572 2.98406249999999  13.2219642857143 2.27691964285714  C 12.5168303571429 1.56977678571428  11.6951785714286 1.01531249999999  10.7791071428572 0.629598214285693  C 9.83089285714286 0.227812500000027  8.82441964285712 0.0249107142857383  7.78781250000003 0.0249107142857383  C 6.75120535714285 0.0249107142857383  5.74272321428572 0.223794642857115  4.79450892857142 0.625580357142837  C 3.87843749999999 1.01330357142859  3.05678571428572 1.56776785714288  2.3516517857143 2.27290178571428  C 1.64651785714284 2.98004464285714  1.09205357142855 3.8016964285714  0.704330357142851 4.71776785714286  C 0.302544642857157 5.66598214285716  0.0996428571428396 6.67446428571429  0.0996428571428396 7.71107142857142  C 0.0996428571428396 8.74767857142859  0.302544642857157 9.75616071428573  0.704330357142851 10.704375  C 1.09205357142855 11.6204464285714  1.64450892857144 12.4420982142857  2.3516517857143 13.1492410714286  C 3.05678571428572 13.8563839285714  3.87843749999999 14.4108482142857  4.79450892857142 14.7965625  C 5.74272321428572 15.1983482142857  6.74919642857142 15.40125  7.78580357142857 15.40125  C 8.82241071428572 15.40125  9.82888392857143 15.1983482142857  10.7770982142857 14.7965625  C 11.4701785714286 14.5032589285714  12.1110267857143 14.1135267857143  12.6875892857143 13.6333928571428  L 16.7255357142857 17.6633035714286  C 16.8641517857143 17.8019196428571  17.0449553571428 17.8702232142857  17.2257589285714 17.8702232142857  C 17.4065625 17.8702232142857  17.589375 17.8019196428571  17.7259821428572 17.6633035714286  Z M 12.1954017857143 12.1769196428571  C 11.0141517857143 13.3441071428571  9.44919642857144 13.9889732142857  7.78781250000003 13.9889732142857  C 6.1123660714286 13.9889732142857  4.53937500000001 13.3360714285714  3.35410714285712 12.1508035714286  C 2.16883928571428 10.9655357142857  1.51794642857146 9.38852678571425  1.51794642857146 7.71308035714287  C 1.51794642857146 6.03562499999998  2.17084821428568 4.46062499999999  3.35410714285712 3.27535714285716  C 4.53736607142855 2.09008928571427  6.1123660714286 1.43718749999999  7.78781250000003 1.43718749999999  C 9.46325892857146 1.43718749999999  11.03625 2.09008928571427  12.2215178571429 3.27535714285716  C 13.4067857142857 4.46062499999999  14.0576785714286 6.03763392857144  14.0576785714286 7.71308035714287  C 14.0576785714286 9.38249999999999  13.4108035714286 10.9514732142857  12.2355803571429 12.1367410714286  C 12.2275446428571 12.1447767857143  12.2195089285714 12.1508035714286  12.2114732142857 12.1588392857143  C 12.2054464285714 12.1648660714286  12.1994196428571 12.1708928571429  12.1954017857143 12.1769196428571  Z " fill-rule="nonzero" fill="#000000" stroke="none" transform="matrix(1 0 0 1 172 849 )" />
  </g>
</svg>