<?xml version="1.0" encoding="utf-8"?>
<svg version="1.1" xmlns:xlink="http://www.w3.org/1999/xlink" width="16px" height="20px" xmlns="http://www.w3.org/2000/svg">
  <g transform="matrix(1 0 0 1 -383 -132 )">
    <path d="M 8.64698181818182 17.4633906633907  L 8.64698181818182 9.96972972972972  L 14.4581818181818 1.43351351351351  L 1.54181818181818 1.43351351351351  L 7.35301818181818 9.96972972972972  L 7.35301818181818 16.6779361179361  L 8.64698181818182 17.4633906633907  Z M 6.05905454545455 17.4185749385749  L 6.06138181818182 10.3777886977887  L 0.196654545454544 1.76609336609337  C 0.0779636363636352 1.59154791154791  0.0128000000000005 1.38398034398034  0.0128000000000005 1.17169533169533  C 0.0128000000000005 0.593808353808352  0.475927272727275 0.124422604422605  1.04610909090909 0.124422604422605  L 14.9469090909091 0.124422604422605  C 15.1563636363636 0.124422604422605  15.3611636363636 0.188108108108108  15.5333818181818 0.310761670761669  C 16.0034909090909 0.638624078624077  16.1221818181818 1.29199017199017  15.7963636363636 1.76845208845209  L 9.93861818181819 10.3777886977887  L 9.93861818181819 19.7772972972973  L 6.05905454545455 17.4185749385749  Z " fill-rule="nonzero" fill="#323233" stroke="none" transform="matrix(1 0 0 1 383 132 )" />
  </g>
</svg>