<?xml version="1.0" encoding="utf-8"?>
<svg version="1.1" xmlns:xlink="http://www.w3.org/1999/xlink" width="28px" height="25px" xmlns="http://www.w3.org/2000/svg">
  <g transform="matrix(1 0 0 1 -175 -205 )">
    <path d="M 3.50606993006993 12.3584615384615  L 11.0562797202797 20.1984615384615  L 13.9635804195804 23.2415384615385  L 24.4022937062937 12.3738461538462  C 26.7958041958042 9.88153846153846  26.7394125874126 5.97076923076923  24.2707132867133 3.54923076923077  C 21.8427412587413 1.16461538461538  17.9078601398601 1.16461538461538  15.483020979021 3.54923076923077  L 13.9479160839161 5.05692307692308  L 12.4128111888112 3.54923076923077  C 9.98797202797202 1.1676923076923  6.05622377622377 1.1676923076923  3.63138461538461 3.54923076923077  C 1.16895104895105 5.96769230769231  1.11255944055944 9.87538461538461  3.50606993006993 12.3584615384615  Z M 2.3939020979021 2.34  C 5.50170629370629 -0.712307692307691  10.5362237762238 -0.712307692307691  13.6408951048951 2.33692307692307  L 13.9479160839161 2.63846153846154  L 14.2549370629371 2.33692307692307  C 17.3627412587413 -0.715384615384617  22.3972587412587 -0.715384615384617  25.5050629370629 2.33692307692307  C 28.6379300699301 5.41384615384615  28.709986013986 10.38  25.6711048951049 13.5430769230769  L 15.2292587412587 24.4138461538462  L 15.1540699300699 24.4876923076923  C 14.4523076923077 25.1338461538462  13.3526713286713 25.1  12.6947692307692 24.4107692307692  L 9.79373426573426 21.3738461538462  L 2.23725874125874 13.5338461538462  C -0.804755244755243 10.3769230769231  -0.735832167832171 5.41384615384615  2.3939020979021 2.34  Z " fill-rule="nonzero" fill="#323233" stroke="none" transform="matrix(1 0 0 1 175 205 )" />
  </g>
</svg>