<?xml version="1.0" encoding="utf-8"?>
<svg version="1.1" xmlns:xlink="http://www.w3.org/1999/xlink" width="5px" height="5px" xmlns="http://www.w3.org/2000/svg">
  <g transform="matrix(1 0 0 1 -622 -234 )">
    <path d="M 4.7091237601626 2.71168322493225  L 2.70490815718157 2.71168322493225  L 2.70490815718157 4.71589882791328  C 2.70490815718157 4.84361361111111  2.60136729674797 4.94715447154472  2.47365251355014 4.94715447154472  C 2.3459377303523 4.94715447154472  2.2423968699187 4.84361361111111  2.2423968699187 4.71589882791328  L 2.2423968699187 2.71168322493225  L 0.238181273712737 2.71168322493225  C 0.110466490514905 2.71168322493225  0.00692563008130046 2.60814236449865  0.00692562330623285 2.48042758130081  C 0.00692561653116523 2.35271279810298  0.110466483739837 2.24917193766938  0.238181273712737 2.24917193766938  L 2.2423968699187 2.24917193766938  L 2.2423968699187 0.244956341463415  C 2.2423968699187 0.117241558265583  2.3459377303523 0.0137006978319789  2.47365251355014 0.0137006910569113  C 2.60136729674797 0.0137006842818437  2.70490815718157 0.117241551490515  2.70490815718157 0.244956341463415  L 2.70490815718157 2.24917193766938  L 4.7091237601626 2.24917193766938  C 4.83683854336043 2.24917193766938  4.94037940379404 2.35271279810298  4.94037940379404 2.48042758130081  C 4.94037940379404 2.60814236449865  4.83683854336043 2.71168322493225  4.7091237601626 2.71168322493225  Z " fill-rule="nonzero" fill="#323233" stroke="none" transform="matrix(1 0 0 1 622 234 )" />
  </g>
</svg>