<?xml version="1.0" encoding="utf-8"?>
<svg version="1.1" xmlns:xlink="http://www.w3.org/1999/xlink" width="19px" height="20px" xmlns="http://www.w3.org/2000/svg">
  <g transform="matrix(1 0 0 1 -361 -111 )">
    <path d="M 14.47344 4.77760000000001  L 15.429216 3.77152000000001  L 13.517664 1.75935999999999  L 12.561888 2.76543999999998  L 14.47344 4.77760000000001  Z M 16.864096 3.26464000000001  C 17.126752 3.54367999999999  17.126752 3.99680000000001  16.864096 4.27328  L 14.475872 6.78720000000001  L 10.6503360000001 2.76288  L 13.03856 0.248959999999983  C 13.3012160000001 -0.0275200000000098  13.729248 -0.0275200000000098  13.9943360000001 0.248959999999983  L 16.864096 3.26464000000001  Z M 0.0395200000000159 19.24672  C 0.0395200000000159 18.85504  0.341088000000048 18.53504  0.715615999999909 18.53504  L 18.2843840000001 18.53504  C 18.6564799999999 18.53504  18.96048 18.85248  18.96048 19.24672  C 18.96048 19.64096  18.658912 19.9584  18.2843840000001 20  L 0.715615999999909 20  C 0.343520000000063 19.9584  0.0395200000000159 19.64096  0.0395200000000159 19.24672  Z M 2.05078400000002 11.8176  L 9.69455999999998 3.77152000000001  L 13.517664 7.79584  L 5.87388800000001 15.84192  L 2.08969600000005 16.63808  C 1.72489600000004 16.71488  1.36739199999997 16.46656  1.29443200000003 16.08  C 1.27740800000003 15.98784  1.27740800000003 15.89312  1.29443200000003 15.80096  L 2.05078400000002 11.8176  Z M 9.69699199999999 5.78111999999999  L 3.29596799999997 12.51904  L 2.81929599999987 15.03296  L 5.20751999999996 14.5312  L 11.6085440000001 7.79328000000001  L 9.69699199999999 5.78111999999999  Z " fill-rule="nonzero" fill="#999999" stroke="none" transform="matrix(1 0 0 1 361 111 )" />
  </g>
</svg>