<?xml version="1.0" encoding="utf-8"?>
<svg version="1.1" xmlns:xlink="http://www.w3.org/1999/xlink" width="17px" height="18px" xmlns="http://www.w3.org/2000/svg">
  <g transform="matrix(1 0 0 1 -25 -112 )">
    <path d="M 33.5 112  C 38.26 112  42 115.96  42 121  C 42 126.04  38.26 130  33.5 130  C 28.74 130  25 126.04  25 121  C 25 115.96  28.74 112  33.5 112  Z " fill-rule="nonzero" fill="#ebedf0" stroke="none" />
    <path d="M 33.5 112.5  C 37.98 112.5  41.5 116.24  41.5 121  C 41.5 125.76  37.98 129.5  33.5 129.5  C 29.02 129.5  25.5 125.76  25.5 121  C 25.5 116.24  29.02 112.5  33.5 112.5  Z " stroke-width="1" stroke="#c8c9cc" fill="none" />
  </g>
</svg>