<?xml version="1.0" encoding="utf-8"?>
<svg version="1.1" xmlns:xlink="http://www.w3.org/1999/xlink" width="60px" height="60px" xmlns="http://www.w3.org/2000/svg">
  <g transform="matrix(1 0 0 1 -177 -114 )">
    <path d="M 59.9385263157895 30  C 59.9385263157895 46.5322105263158  46.538947368421 59.9385263157895  30 59.9385263157895  C 13.461052631579 59.9385263157895  0.0614736842105259 46.5322105263158  0.0614736842105259 30  C 0.0614736842105259 13.4677894736842  13.461052631579 0.0614736842105259  30 0.0614736842105259  C 46.538947368421 0.0614736842105259  59.9385263157895 13.4677894736842  59.9385263157895 30  Z M 15.2732631578947 28.7873684210526  C 14.9027368421053 29.2252631578947  14.9701052631579 29.8315789473684  15.3877894736842 30.2223157894737  L 24.6576842105263 38.8656842105263  C 25.3381052631579 39.4989473684211  26.4227368421053 39.5258947368421  27.0896842105263 38.9128421052632  L 48.3578947368421 19.0863157894737  C 48.8025263157895 18.6686315789474  48.8362105263158 18.0421052631579  48.4117894736842 17.6446315789474  L 47.9267368421053 17.1865263157895  C 47.536 16.8227368421053  46.8353684210526 16.7957894736842  46.3907368421052 17.1326315789474  L 26.5709473684211 32.1423157894737  C 26.2004210526316 32.4252631578947  25.52 32.4522105263158  25.1225263157895 32.2096842105263  L 17.6244210526316 27.5343157894737  C 17.1528421052631 27.2446315789474  16.4926315789474 27.3456842105263  16.1355789473684 27.7633684210526  L 15.2732631578947 28.7873684210526  Z " fill-rule="nonzero" fill="#95f204" stroke="none" transform="matrix(1 0 0 1 177 114 )" />
  </g>
</svg>