<?xml version="1.0" encoding="utf-8"?>
<svg version="1.1" xmlns:xlink="http://www.w3.org/1999/xlink" width="53px" height="16px" xmlns="http://www.w3.org/2000/svg">
  <g transform="matrix(1 0 0 1 -299 -627 )">
    <path d="M 1.12973286739583 0.767132704000005  C 1.48960940958334 0.592825611000023  1.84657129958334 0.5  2.830956575 0.5  L 50.169043425 0.5  C 51.1534287114583 0.5  51.5103906125 0.592825611000023  51.8702671270834 0.767132704000005  C 52.230143696875 0.941439796499992  52.5125768875 1.19722837  52.7050409770833 1.52315429499998  C 52.8975050666667 1.84908022000002  53 2.17236645999998  53 3.06388520000002  L 53 12.9361148  C 53 13.82763355  52.8975050666667 14.1509198  52.7050409770833 14.4768457  C 52.5125768875 14.80277165  52.230143696875 15.0585602  51.8702671270834 15.2328673  C 51.5103906125 15.4071744  51.1534287114583 15.5  50.169043425 15.5  L 2.830956575 15.5  C 1.84657129958334 15.5  1.48960940958334 15.4071744  1.12973286739583 15.2328673  C 0.769856325208339 15.0585602  0.487423108635424 14.80277165  0.294959027333339 14.4768457  C 0.102494945479161 14.1509198  0 13.82763355  0 12.9361148  L 0 3.06388520000002  C 0 2.17236645999998  0.102494945479161 1.84908022000002  0.294959027333339 1.52315429499998  C 0.487423108635424 1.19722837  0.769856325208339 0.941439796499992  1.12973286739583 0.767132704000005  Z " fill-rule="nonzero" fill="#ffece3" stroke="none" transform="matrix(1 0 0 1 299 627 )" />
  </g>
</svg>