<?xml version="1.0" encoding="utf-8"?>
<svg version="1.1" xmlns:xlink="http://www.w3.org/1999/xlink" width="55px" height="16px" xmlns="http://www.w3.org/2000/svg">
  <g transform="matrix(1 0 0 1 -119 -296 )">
    <path d="M 1.17236429635416 0.767132704000005  C 1.54582108541667 0.592825611000023  1.91625323541667 0.5  2.937785125 0.5  L 52.062214875 0.5  C 53.0837467760417 0.5  53.4541789375 0.592825611000023  53.8276356979167 0.767132704000005  C 54.201092515625 0.941439796499992  54.4941835625 1.19722837  54.6939104479167 1.52315429499998  C 54.8936373333333 1.84908022000002  55 2.17236645999998  55 3.06388520000002  L 55 12.9361148  C 55 13.82763355  54.8936373333333 14.1509198  54.6939104479167 14.4768457  C 54.4941835625 14.80277165  54.201092515625 15.0585602  53.8276356979167 15.2328673  C 53.4541789375 15.4071744  53.0837467760417 15.5  52.062214875 15.5  L 2.937785125 15.5  C 1.91625323541667 15.5  1.54582108541667 15.4071744  1.17236429635416 15.2328673  C 0.798907507291672 15.0585602  0.505816433489591 14.80277165  0.306089556666673 14.4768457  C 0.106362679270828 14.1509198  0 13.82763355  0 12.9361148  L 0 3.06388520000002  C 0 2.17236645999998  0.106362679270828 1.84908022000002  0.306089556666673 1.52315429499998  C 0.505816433489591 1.19722837  0.798907507291672 0.941439796499992  1.17236429635416 0.767132704000005  Z " fill-rule="nonzero" fill="#ffece3" stroke="none" transform="matrix(1 0 0 1 119 296 )" />
  </g>
</svg>