<?xml version="1.0" encoding="utf-8"?>
<svg version="1.1" xmlns:xlink="http://www.w3.org/1999/xlink" width="18px" height="19px" xmlns="http://www.w3.org/2000/svg">
  <g transform="matrix(1 0 0 1 -169 -682 )">
    <path d="M 16.679232 4.434144  C 16.679232 2.753632  15.391296 1.394144  13.799232 1.394144  C 12.209472 1.394144  10.919232 2.756064  10.919232 4.434144  C 10.919232 6.112224  12.209472 7.474144  13.799232 7.474144  C 15.388992 7.474144  16.679232 6.112224  16.679232 4.434144  Z M 9.638208 4.434144  C 9.638208 2.007008  11.502144 0.0419520000000003  13.799232 0.0419520000000003  C 16.09632 0.0419520000000003  17.960256 2.007008  17.960256 4.434144  C 17.960256 6.86128  16.098624 8.826336  13.799232 8.826336  C 11.49984 8.826336  9.638208 6.86128  9.638208 4.434144  Z M 7.080768 1.394144  L 1.320768 1.394144  L 1.320768 7.474144  L 7.080768 7.474144  L 7.080768 1.394144  Z M 0.0397440000000003 1.394144  C 0.0397440000000003 0.647519999999998  0.613440000000003 0.0419520000000003  1.320768 0.0419520000000003  L 7.080768 0.0419520000000003  C 7.788096 0.0419520000000003  8.361792 0.647519999999998  8.361792 1.394144  L 8.361792 7.474144  C 8.361792 8.220768  7.788096 8.826336  7.080768 8.826336  L 1.320768 8.826336  C 0.613440000000003 8.826336  0.0397440000000003 8.220768  0.0397440000000003 7.474144  L 0.0397440000000003 1.394144  Z M 7.080768 11.525856  L 1.320768 11.525856  L 1.320768 17.605856  L 7.080768 17.605856  L 7.080768 11.525856  Z M 0.0397440000000003 11.528288  C 0.0397440000000003 10.781664  0.613440000000003 10.176096  1.320768 10.176096  L 7.080768 10.176096  C 7.788096 10.176096  8.361792 10.781664  8.361792 11.528288  L 8.361792 17.608288  C 8.361792 18.354912  7.788096 18.96048  7.080768 18.96048  L 1.320768 18.96048  C 0.613440000000003 18.96048  0.0397440000000003 18.354912  0.0397440000000003 17.608288  L 0.0397440000000003 11.528288  Z M 16.679232 11.525856  L 10.919232 11.525856  L 10.919232 17.605856  L 16.679232 17.605856  L 16.679232 11.525856  Z M 9.638208 11.528288  C 9.640512 10.781664  10.214208 10.176096  10.919232 10.176096  L 16.679232 10.176096  C 17.38656 10.176096  17.960256 10.781664  17.960256 11.528288  L 17.960256 17.608288  C 17.960256 18.354912  17.38656 18.96048  16.679232 18.96048  L 10.919232 18.96048  C 10.211904 18.96048  9.638208 18.354912  9.638208 17.608288  L 9.638208 11.528288  Z " fill-rule="nonzero" fill="#323233" stroke="none" transform="matrix(1 0 0 1 169 682 )" />
  </g>
</svg>