<?xml version="1.0" encoding="utf-8"?>
<svg version="1.1" xmlns:xlink="http://www.w3.org/1999/xlink" width="166px" height="230px" xmlns="http://www.w3.org/2000/svg">
  <g transform="matrix(1 0 0 1 -50 -125 )">
    <path d="M 50 125  L 216 125  L 216 355  L 50 355  L 50 125  " fill-rule="nonzero" fill="#cccccc" stroke="none" />
    <path d="M 62 137  L 204 137  L 204 343  L 62 343  L 62 137  " fill-rule="nonzero" fill="#ffffff" stroke="none" />
    <path d="M 148.77 184.4  C 141.798 184.4  136.32 178.922  136.32 171.95  C 136.32 164.978  141.798 159.5  148.77 159.5  C 155.742 159.5  161.22 164.978  161.22 171.95  C 161.22 178.922  155.742 184.4  148.77 184.4  " fill-rule="nonzero" fill="#cccccc" stroke="none" />
    <path d="M 66 339  L 66 230.1  L 99.5 180.6  L 146.4 220.2  L 173.2 210.3  L 200 220.2  L 200 339  L 66 339  " fill-rule="nonzero" fill="#169bd5" stroke="none" />
  </g>
</svg>